<svg id="Layer_1" data-name="Layer 1" xmlns="http://www.w3.org/2000/svg" viewBox="0 0 1489.02 896.17"><defs><style>.cls-1{fill:#003cba;}.cls-2{fill:#fff;}</style></defs><rect class="cls-1" width="1489.02" height="896.17"/><path class="cls-2" d="M1421.67,42.77H67.22A34.24,34.24,0,0,1,42.55,67.36V829a34.19,34.19,0,0,1,24.63,24.7H1421.6a34.22,34.22,0,0,1,24.65-24.89V67.34A34.27,34.27,0,0,1,1421.67,42.77Zm-1.08,785.28H68.21V68.42H1420.59Z"/><path class="cls-2" d="M233.08,441.63q-20.81,0-33.49-13t-12.7-36.27V303.94q0-27.88,11.06-42.7t36-14.82a56.17,56.17,0,0,1,24.24,5,38.39,38.39,0,0,1,16.72,15q6.09,10,6.1,25.11v33.11H242.88V296.31q0-8.6-2.18-11.6t-6.75-3c-3.56,0-6,1.3-7.19,3.87a24.15,24.15,0,0,0-1.85,10.3v96q0,8,2.34,11.22a7.75,7.75,0,0,0,6.7,3.27q4.91,0,6.92-4a23.45,23.45,0,0,0,2-10.46V357.31h38.56v36.28q0,25.26-12.74,36.65T233.08,441.63Z"/><path class="cls-2" d="M402.68,438.88V249.16a1,1,0,0,1,1-1h37.61a1,1,0,0,1,1,.81l15.51,80.71a1,1,0,0,0,2-.19V249.16a1,1,0,0,1,1-1h35a1,1,0,0,1,1,1V438.88a1,1,0,0,1-1,1H460.15a1,1,0,0,1-1-.8l-17-85.15a1,1,0,0,0-2,.19v84.76a1,1,0,0,1-1,1H403.68A1,1,0,0,1,402.68,438.88Z"/><path class="cls-2" d="M353.67,706.59V516.87a1,1,0,0,1,1-1h37.6a1,1,0,0,1,1,.81l15.51,80.71a1,1,0,0,0,2-.19V516.87a1,1,0,0,1,1-1h35a1,1,0,0,1,1,1V706.59a1,1,0,0,1-1,1H411.13a1,1,0,0,1-1-.8l-17-85.15a1,1,0,0,0-2,.19v84.76a1,1,0,0,1-1,1H354.67A1,1,0,0,1,353.67,706.59Z"/><path class="cls-2" d="M690.7,438.88V286a1,1,0,0,0-1-1H668.93a1,1,0,0,1-1-1V249.16a1,1,0,0,1,1-1h81.88a1,1,0,0,1,1,1V284a1,1,0,0,1-1,1H730a1,1,0,0,0-1,1v152.9a1,1,0,0,1-1,1H691.7A1,1,0,0,1,690.7,438.88Z"/><path class="cls-2" d="M913.14,441.63q-24,0-35.3-13.46t-11.33-39.59V249.16a1,1,0,0,1,1-1h35.26a1,1,0,0,1,1,1V387.05a75.9,75.9,0,0,0,.54,9.21,16,16,0,0,0,2.51,7.24c1.31,1.89,3.41,2.83,6.32,2.83s5.12-.92,6.42-2.78a15.25,15.25,0,0,0,2.46-7.24,86.63,86.63,0,0,0,.48-9.26V249.16a1,1,0,0,1,1-1h13.06q12.53,0,12.52-13.61V233a1,1,0,0,1,1-1h28.29a1,1,0,0,1,1,1v.64q0,14.26-5.45,22.54a30.71,30.71,0,0,1-13.56,11.62,1,1,0,0,0-.6.91V388.58q0,26.13-11.33,39.59T913.14,441.63Z"/><path class="cls-2" d="M1032.52,441.63q-23.52,0-35.4-14.22T985.25,387.6V296.53q0-24.73,12.2-37.42t35.29-12.69H1041q12.52,0,12.53-13.62v-1.5a1,1,0,0,1,1-1h28.28a1,1,0,0,1,1,1v.63q0,11.44-3.54,19a29.59,29.59,0,0,1-8.75,11.25,1,1,0,0,0-.23,1.36q8.49,12.39,8.49,33V387.6q0,25.59-11.87,39.81T1032.52,441.63ZM1057.41,226l-49.75-7.75a1,1,0,0,1-.84-1v-29a1,1,0,0,1,1.33-.94l49.74,17.59a1,1,0,0,1,.67.94V225A1,1,0,0,1,1057.41,226Zm-24.89,180.35q5.46,0,7.09-4.95a38.64,38.64,0,0,0,1.63-11.93V295.88a31.84,31.84,0,0,0-1.42-9.64q-1.41-4.53-7.08-4.53t-7.56,4.2a23.54,23.54,0,0,0-2,10.29v93.47a34.7,34.7,0,0,0,1.74,12.09Q1026.64,406.34,1032.52,406.33Z"/><path class="cls-2" d="M184.06,709.33q-20.81,0-33.49-13t-12.7-36.27V571.65q0-27.89,11.06-42.71t36-14.81a56.17,56.17,0,0,1,24.24,5,38.39,38.39,0,0,1,16.72,15q6.11,10,6.1,25.11v33.11H193.86V564q0-8.6-2.18-11.6t-6.75-3c-3.56,0-6,1.29-7.19,3.87a24.13,24.13,0,0,0-1.85,10.29v96q0,8,2.35,11.22a7.73,7.73,0,0,0,6.69,3.27q4.9,0,6.92-4a23.45,23.45,0,0,0,2-10.46V625h38.56V661.3q0,25.26-12.74,36.65T184.06,709.33Z"/><path class="cls-2" d="M243.46,504.45l25.06-41.9a1,1,0,0,1,.85-.49h43.31a1,1,0,0,1,.86.49l25.06,41.9a1,1,0,0,1-.86,1.51h-36.6a1,1,0,0,1-1-.71L292,478.09a1,1,0,0,0-1.92,0l-8.19,27.16a1,1,0,0,1-1,.71h-36.6A1,1,0,0,1,243.46,504.45Zm47.46,204.88q-23,0-35.13-13.88t-12.15-40.14V564.24q0-24.62,12.05-37.36t35.23-12.75q23.2,0,35.24,12.75t12,37.36v91.07q0,26.25-12.15,40.14T290.92,709.33Zm.33-35.29q8.72,0,8.71-16.88V563.58q0-14.15-8.49-14.16-9.6,0-9.59,14.49v93.46q0,8.94,2.18,12.8T291.25,674Z"/><path class="cls-2" d="M292.48,236.74l25.06-41.9a1,1,0,0,1,.85-.49H361.7a1,1,0,0,1,.86.49l25.06,41.9a1,1,0,0,1-.86,1.51h-36.6a1,1,0,0,1-1-.71L341,210.38a1,1,0,0,0-1.92,0l-8.19,27.16a1,1,0,0,1-1,.71h-36.6A1,1,0,0,1,292.48,236.74Zm47.46,204.89q-23,0-35.13-13.89T292.66,387.6V296.53q0-24.61,12-37.36t35.24-12.75q23.21,0,35.24,12.75t12,37.36V387.6q0,26.25-12.15,40.14T339.94,441.63Zm.33-35.3q8.72,0,8.71-16.88V295.88q0-14.16-8.5-14.17-9.59,0-9.58,14.49v93.47q0,8.93,2.18,12.79T340.27,406.33Z"/><path class="cls-2" d="M504.32,709.33q-41.07,0-41.07-58.82V567.83q0-53.7,47.06-53.7,19.38,0,29.74,7.79t14.27,22.71q3.82,14.58,3.92,35.37a1,1,0,0,1-1,1H521.77a1,1,0,0,1-1-1V564a27.85,27.85,0,0,0-1.69-10.4c-1.12-2.8-3.47-4.2-7-4.2q-6.64,0-8.76,4.47a22.5,22.5,0,0,0-2.13,9.8v92.92q0,7.74,2,12.58t7.89,4.85q6.1,0,8.12-4.85t2-12.8V630.05a1,1,0,0,0-1-1H512a1,1,0,0,1-1-1V596.94a1,1,0,0,1,1-1H556.8a1,1,0,0,1,1,1V706.59a1,1,0,0,1-1,1H543.12a1,1,0,0,1-.93-.62l-5.53-13.63a1,1,0,0,0-1.76-.16Q524.84,709.34,504.32,709.33Z"/><path class="cls-2" d="M553.34,441.63q-41.07,0-41.07-58.83V300.12q0-53.7,47.06-53.7,19.39,0,29.74,7.79t14.27,22.71q3.82,14.58,3.92,35.37a1,1,0,0,1-1,1H570.79a1,1,0,0,1-1-1v-16a27.85,27.85,0,0,0-1.69-10.4c-1.12-2.8-3.47-4.2-7-4.2q-6.65,0-8.76,4.47a22.5,22.5,0,0,0-2.13,9.8V388.9q0,7.74,2,12.58t7.89,4.85q6.1,0,8.12-4.85t2-12.8V362.34a1,1,0,0,0-1-1H561a1,1,0,0,1-1-1V329.23a1,1,0,0,1,1-1h44.84a1,1,0,0,1,1,1V438.88a1,1,0,0,1-1,1H592.14a1,1,0,0,1-.93-.62l-5.53-13.63a1,1,0,0,0-1.76-.16Q573.86,441.63,553.34,441.63Z"/><path class="cls-2" d="M1095.6,438.88V249.16a1,1,0,0,1,1-1h37.6a1,1,0,0,1,1,.81l15.5,80.71a1,1,0,0,0,2-.19V249.16a1,1,0,0,1,1-1h35a1,1,0,0,1,1,1V438.88a1,1,0,0,1-1,1h-35.65a1,1,0,0,1-1-.8l-17-85.15a1,1,0,0,0-2,.19v84.76a1,1,0,0,1-1,1H1096.6A1,1,0,0,1,1095.6,438.88Z"/><path class="cls-2" d="M1246.25,441.63q-41.07,0-41.07-58.83V300.12q0-53.7,47.06-53.7,19.4,0,29.74,7.79t14.27,22.71q3.82,14.58,3.92,35.37a1,1,0,0,1-1,1H1263.7a1,1,0,0,1-1-1v-16a27.85,27.85,0,0,0-1.69-10.4c-1.12-2.8-3.47-4.2-7-4.2q-6.64,0-8.76,4.47a22.5,22.5,0,0,0-2.13,9.8V388.9a33.2,33.2,0,0,0,2,12.58q2,4.86,7.89,4.85,6.11,0,8.12-4.85c1.35-3.23,2-7.49,2-12.8V362.34a1,1,0,0,0-1-1h-8.24a1,1,0,0,1-1-1V329.23a1,1,0,0,1,1-1h44.85a1,1,0,0,1,1,1V438.88a1,1,0,0,1-1,1h-13.69a1,1,0,0,1-.93-.62l-5.52-13.63a1,1,0,0,0-1.77-.16Q1266.76,441.63,1246.25,441.63Z"/><path class="cls-2" d="M619.92,706.39l20.31-100.24a1.21,1.21,0,0,0,0-.38l-16.09-88.83a1,1,0,0,1,1-1.18h35.42a1,1,0,0,1,1,.86l8.74,58.09a1,1,0,0,0,2,0L680,516.63a1,1,0,0,1,1-.87h35.51a1,1,0,0,1,1,1.18l-16.09,88.83a1.21,1.21,0,0,0,0,.38l20.2,100.24a1,1,0,0,1-1,1.2H683.92a1,1,0,0,1-1-.84l-11-68.07a1,1,0,0,0-2,0L658.7,706.76a1,1,0,0,1-1,.83H620.9A1,1,0,0,1,619.92,706.39Z"/><path class="cls-2" d="M728.06,706.5l18.32-189.72a1,1,0,0,1,1-.91h63.21a1,1,0,0,1,1,.91l18,189.72a1,1,0,0,1-1,1.09H794.34a1,1,0,0,1-1-.91l-2.56-29.11a1,1,0,0,0-1-.91H768.53a1,1,0,0,0-1,.92l-2.25,29.09a1,1,0,0,1-1,.92H729.05A1,1,0,0,1,728.06,706.5Zm68.63-202.72a41.83,41.83,0,0,1-14.76-2.5c-4.46-1.67-8.52-3.33-12.15-5a24.49,24.49,0,0,0-9.91-2.45,9.59,9.59,0,0,0-5.34,1.63,14.06,14.06,0,0,0-4.21,4.91,1,1,0,0,1-1.34.41l-14.44-7.61a1,1,0,0,1-.46-1.28,95.14,95.14,0,0,1,5.59-11.3,26.4,26.4,0,0,1,8.22-8.82q5-3.31,12.74-3.32a40.43,40.43,0,0,1,14,2.29q6.27,2.28,11.44,4.57a23.5,23.5,0,0,0,9.42,2.29,9,9,0,0,0,5.45-1.85,16,16,0,0,0,4.29-5.55,1,1,0,0,1,1.2-.51l16.28,5.3a1,1,0,0,1,.64,1.3q-2.48,6.76-5.42,12.85a30.42,30.42,0,0,1-8.11,10.57Q804.86,503.79,796.69,503.78ZM771.41,646.05h15.26a1,1,0,0,0,1-1.09l-8.29-96.41h-1.74L770.41,645A1,1,0,0,0,771.41,646.05Z"/><path class="cls-2" d="M990.69,706.5,1009,516.78a1,1,0,0,1,1-.91h63.22a1,1,0,0,1,1,.91l18,189.72a1,1,0,0,1-1,1.09H1057a1,1,0,0,1-1-.91l-2.56-29.11a1,1,0,0,0-1-.91h-21.25a1,1,0,0,0-1,.92l-2.26,29.09a1,1,0,0,1-1,.92H991.69A1,1,0,0,1,990.69,706.5ZM1034,646.05h15.26a1,1,0,0,0,1-1.09l-8.23-95.6a.89.89,0,0,0-.88-.81h0a1,1,0,0,0-1,.93L1033,645A1,1,0,0,0,1034,646.05Z"/><path class="cls-2" d="M893.75,706.59V516.87a1,1,0,0,1,1-1H944.4q15.9,0,25.22,7.08T983,543.11q4,13.07,4,31.15,0,17.43-3.38,30.34t-12,20q-8.66,7.08-24.57,7.08H932.44a1,1,0,0,0-1,1v73.92a1,1,0,0,1-1,1H894.75A1,1,0,0,1,893.75,706.59Zm37.69-110.35a1,1,0,0,0,1,1h1.18q10.67,0,13.07-6t2.39-17.64q0-10.89-2.33-16.83t-11.06-5.94h-3.25a1,1,0,0,0-1,1Z"/><path class="cls-2" d="M1104.09,706.59V516.87a1,1,0,0,1,1-1h57.83q14.7,0,22.22,6.7t10.08,18.74a137.8,137.8,0,0,1,2.55,28.27q0,15.67-4,25a22.15,22.15,0,0,1-12.15,11.89,1,1,0,0,0,.09,1.86,16.36,16.36,0,0,1,9.77,8.2q3.66,7.14,3.65,18.46v71.55a1,1,0,0,1-1,1h-35.8a1,1,0,0,1-1-1V632.54q0-8.38-3.43-10.4-3.2-1.89-10-2a1,1,0,0,0-1,1v85.46a1,1,0,0,1-1,1h-36.78A1,1,0,0,1,1104.09,706.59Zm39-120.69a1,1,0,0,0,1,1h8.26q8,0,8-17.32,0-11.22-1.74-14.71c-1.16-2.32-3.34-3.49-6.54-3.49h-7.93a1,1,0,0,0-1,1Z"/><path class="cls-2" d="M762.48,438.88V249.16a1,1,0,0,1,1-1h57.83q14.7,0,22.22,6.7t10.08,18.74a137,137,0,0,1,2.56,28.27q0,15.67-4,25.05A22.2,22.2,0,0,1,840,338.82a1,1,0,0,0,.09,1.85,16.38,16.38,0,0,1,9.78,8.2q3.65,7.14,3.64,18.46v71.55a1,1,0,0,1-1,1h-35.8a1,1,0,0,1-1-1V364.83q0-8.38-3.43-10.4c-2.13-1.26-5.48-1.92-10-2a1,1,0,0,0-1,1v85.46a1,1,0,0,1-1,1H763.48A1,1,0,0,1,762.48,438.88Zm39-120.69a1,1,0,0,0,1,1h8.26q7.95,0,8-17.32,0-11.22-1.74-14.71t-6.54-3.48h-7.93a1,1,0,0,0-1,1Z"/><path class="cls-2" d="M1208.67,706.59V516.87a1,1,0,0,1,1-1h35a1,1,0,0,1,1,1V706.59a1,1,0,0,1-1,1h-35A1,1,0,0,1,1208.67,706.59Z"/><path class="cls-2" d="M1306.49,709.33q-26.25,0-37.85-13.07T1257,654.65V636.92a1,1,0,0,1,1-1h35.91a1,1,0,0,1,1,1v23q0,6.64,2,10.4t7,3.76q5.24,0,7.25-3t2-10a53.31,53.31,0,0,0-1.74-14.76,33.2,33.2,0,0,0-6-11.33,126.66,126.66,0,0,0-11.94-12.58L1276.31,606Q1257,587.77,1257,564.35q0-24.51,11.39-37.37t32.95-12.85q26.36,0,37.42,14,10.86,13.8,11,41.69a1,1,0,0,1-1,1h-37a1,1,0,0,1-1-1V557.7a8.14,8.14,0,0,0-2.23-6.1,8.27,8.27,0,0,0-6-2.18c-3,0-5.28.86-6.7,2.56a10,10,0,0,0-2.13,6.59,20.84,20.84,0,0,0,2.18,8.72q2.17,4.68,8.61,10.78l22.11,21.24a127.53,127.53,0,0,1,12.2,13.35,58,58,0,0,1,8.93,16.34q3.38,9.32,3.38,22.71,0,27-10,42.32T1306.49,709.33Z"/></svg>