<svg id="Layer_1" data-name="Layer 1" xmlns="http://www.w3.org/2000/svg" viewBox="0 0 885.66 616.39"><defs><style>.cls-1{fill:#1e3f3f;}</style></defs><path class="cls-1" d="M5.8,159.79c2.09-1.16,2.25-4.1,5.68-4.39,35.92-3,70.21-15.12,106-19,9.94-1.07,20-1.59,29.8-3.33,11.63-2.05,14.55,6.51,18.18,13.94,2.42,5-2.94,3.88-5.09,4.75-35.6,14.38-72.82,22.39-110.71,27.55-6,.81-8.81,2.55-8.06,8.79,3.87,32.26,4.41,65.08,16,96.06,1,2.77,1.78,5.73,3.26,8.25,4.74,8.13,4.91,14-6.74,13.32-6.12-.38-10.74,8.93-16.75,3.15-4.48-4.31-2.06-11.34-3.07-17.1-6.65-37.91-17.11-75.17-19.89-113.75C14,172,8,169.29,5.8,164.25Z"/><path class="cls-1" d="M885.66,460.5c-26.94-.32-51.62,12.79-78.46,13.19-9.26.14-16.83,5.4-24.72,9.38-10,5.05-20.15,9.33-31.71,9.1-6.35-.13-11.57-.76-12.21-9-.45-5.81-10.21-9.83-6.61-15,2.46-3.5,11.07-2.28,16.64-4.1,31.77-10.35,65.57-10.94,97.57-20.67,10.57-3.22,12-6.67,9.25-15.78-10.43-35.23-17.35-71.31-26-107-2.22-9.22.58-10.6,8.68-10.68,17.63-.19,18.51-.08,23.16,17.43,8.4,31.6,10.64,64.35,17.53,96.24,2,9.37,2.87,19,6.85,27.92Z"/><path class="cls-1" d="M336.5,239.09c-.69,16.91-2.24,33.85-1.75,50.72.33,11.05-5.85,19.63-8.64,29.33-1.76,6.12-11.87,6.88-18.66,5.54-6.12-1.21-7.5-6.1-4.5-12.18,1.36-2.75-.93-5.67-2.63-8.07-13.63-19.34-21-42-32.44-62.48-5.06-9.07-6.28-20.36-8.83-30.75-1.8-7.3-6.09-11.48-13.55-13.32-2,16.51,8.47,29.44,11.22,44.4,5.22,28.38,7.88,57.37,18.27,84.66,1.23,3.24,1.13,6-3.66,5.5a5.89,5.89,0,0,0-1.11,0c-24.55,1.92-24.78,2-29-22.3-7.41-42.73-13-85.79-22.67-128.1-1.64-7.19,1.47-8.77,7-9.13,10-.64,19.89-1.79,29.19-6.08,6.41-2.95,7.38,2.44,9,6.47,10.9,27.16,21.06,54.67,34.38,80.77,3.39,6.62,4.81,19.63,13,17.59,10.15-2.54,3.91-14.77,3.95-22.5.06-12.16-2.15-24.33-3.32-36.5-.31-3.3-1.08-6.79-.36-9.9,3.22-13.89,4.39-27.84,2.34-42-.84-5.79,1.33-7.86,7-10.08A100.08,100.08,0,0,1,344.85,145c7-.88,10.73.42,11.23,9a171.49,171.49,0,0,0,12.62,56c4.66,11.3,4.45,24.65,6.18,37.11a525.41,525.41,0,0,0,10.68,55.69c1.23,4.93,2.28,8.65-4.93,8.63-2,0-4,2.19-6.08,2.51-4.61.7-9.47,6.34-13.27,2.73s-4.06-10.61-2.34-15.74c2.09-6.23.57-10.79-3.08-15.38-2.84-3.57-4.11-7.67-5.15-12.11C347.93,261.68,345,249.81,336.5,239.09Z"/><path class="cls-1" d="M715.93,445.23c-.41-16-4-30.5-7.27-45.06-8.25-36.52-16.54-73-22.3-110-1.84-11.79,4.92-15.79,13-18.27,8.42-2.59,16-6.6,24.53,5.22,17.69,24.62,30.85,51.72,46.9,77.16,3.55,5.62,6.37,11.69,9.55,17.55,1.36,2.51.08,7.9,5.55,6.07,3.56-1.19,6.36-3.83,6.1-8.32-.31-5.52.06-11.1-3.86-15.84-5.17-6.27-6.09-13.81-7.2-21.71-2.62-18.7-6.51-37.22-9.91-55.8a10.19,10.19,0,0,0-1-3.17c-2.49-4.39-10.83-8.54-2.57-13.82,8.77-5.6,22.87-.78,25.62,7.43a165.79,165.79,0,0,1,8.66,47.94c.53,17.14,7.18,33.2,11.38,49.67,4.13,16.16,8.61,32.23,12.5,48.45,2.78,11.55-1.59,15.89-13.79,14.72-5.13-.5-9.8-3.9-15.58.48-3.47,2.62-7.17-1.53-8.81-5.86-11.45-30.17-34.92-53.18-48.87-81.93-3.07-6.34-9.16-11.21-15.17-15.82-3.37,7.76-2.94,14-1.17,20.53,7.18,26.43,9.72,54,17.2,80.13,4.58,16-2,16.52-12.76,17.95C723.05,443.36,719.56,444.41,715.93,445.23Z"/><path class="cls-1" d="M213,390.09c-4.7-13.27,2.44-17,14.91-20.88,11.89-3.7,23.71-7.92,35.83-11.11,27.61-7.26,51.81,11.41,60.43,29,12.42,25.4,15.91,52.91,15.64,80.88-.05,6.21-2.07,12.38-.94,18.75a12.92,12.92,0,0,1-2.78,10.47c-13.83,17-27.69,33.52-52.85,33.42-11.4,0-22.59,4-33.49,7.62-6.41,2.14-9.25,1.33-9.71-6.37-1.94-32.66-11.83-64-16.24-96.36C221.75,420.57,210.66,407.25,213,390.09Zm98.51,78.77c-2-24.82-7.15-50.46-18.25-74.73-3.06-6.69-8.27-10.14-15.07-12-9.45-2.56-18.32.06-27.29,2.54-5.7,1.58-7.23,4.28-6.06,10.48,6.86,36.43,16.9,72.23,21.73,109.06.61,4.69,2.54,6,7.38,5.51,7.89-.81,15-4.62,22.54-5.7,10.68-1.53,12.82-8.55,13.9-16.92C311.1,481.62,311.1,476,311.51,468.86Z"/><path class="cls-1" d="M710,78.22c23.39-.18,41.61,11.7,49.63,33.91,6.91,19.13,13,38.56,12.69,59.4-.12,7.36,1,14.75,1.78,22.1,1.15,10.5.68,20.21-10.46,25.65a2,2,0,0,0-.91.62c-15.29,28-45.51,26-70.27,34.92-3.93,1.41-7,1.35-8-4.1-8.71-48-26.52-94.1-30.1-143.22-1.23-17,1.9-21,19.33-24C685.74,81.41,697.69,78.78,710,78.22Zm37.72,108.89c-2.3-20.15-2.13-41-9.7-60.1-9.14-23.09-16.64-29.34-35.18-29.51-5.75-.06-8.67,5.64-14.4,4.56-7.69-1.46-8.41,2.54-7.09,9.07,6.7,33.06,13,66.21,19.57,99.3,2.85,14.33,3,14.23,17.54,11.93a66,66,0,0,1,10-.53c4.4,0,8.22-1.37,10.2-5.44C743.08,207.13,749.35,198.38,747.68,187.11Z"/><path class="cls-1" d="M618.32,239.25c10.12-.69,20.62,1.78,29.93-5.21,3.64-2.73,7.78-1,8.8,4.51.73,4,1.81,7.89,2.75,11.83,1.41,5.92-.55,8.73-7,9.48-24.33,2.85-48.18,8.21-71.69,15-5.52,1.6-8.13,1.78-10.06-5.12-14-50.08-19.5-101.8-29.68-152.6-1.06-5.3.89-6.23,5.56-6.55a103.94,103.94,0,0,0,38.44-10.13c10.94-5.28,23-4.2,33.88-2.16,7.85,1.46,6.18,12.21,7.35,19,.91,5.25-5,4.27-8.28,4.54-13.28,1.14-26.59,2-39.91,2.72-6.38.36-9.79,2.14-6.76,9.39,1.7,4.06,2.27,8.58,3.68,12.79,2.27,6.78.7,16.66,8.17,19.45A41.46,41.46,0,0,0,616,164.8c13.59-6.36,19.37-3,22.9,11.75,1.41,5.85-.51,8-5.25,7.65-16.53-1.27-30.11,9.52-46,10.68-3.34.24-2.91,2.74-2.46,4.92q3.43,16.84,7,33.68c1.07,5.05,3.73,7.54,9.41,6.72C607.16,239.41,612.77,239.53,618.32,239.25Z"/><path class="cls-1" d="M151.94,531.47c23.42-3.48,47.14-1.14,67.44-16.34.38,3,.93,4.48.68,5.81-1.38,7.27,9.23,14.23,3.29,19.66-4.3,3.94-13,4-19.69,6-22,6.75-45.28,7.5-67.74,12.34-3,.64-4.95.34-5.18-3.49C128.06,511.18,114.4,469,105.29,426c-2.23-10.52-8-23.15-3.49-31.27,4.74-8.58,19.38-5.29,29.6-7.48,15.2-3.26,30.82-4.61,45.94-8.15,9.69-2.27,14.08,1.16,15.71,9.8,1.89,10-6.7,6.31-11.06,7.85-15.33,5.43-30.43,11.69-46.73,13.93-5.55.77-4.12,4.58-2.52,7.39,4.52,7.93,4.63,16.1,2.83,24.72-1.31,6.29.7,9.67,8.11,9.34,15.94-.7,32-.68,47.37-5.33,7.58-2.29,10.89.25,10.89,7.11,0,6.08,4.47,14.95-7.82,15.58-13.46.68-26.2,4.85-38.55,10-11.73,4.92-16.21,17.62-8.93,27.9C152,515,153.06,522.72,151.94,531.47Z"/><path class="cls-1" d="M75.64,462.64c19.13.83,18.48.95,22,20.88,5.64,32.1,12.43,64,18.29,96.06,1.28,7,4.36,7.59,10.59,6.87,36.2-4.18,70.49-16.68,105.93-24.13,6.56-1.38,11.83-1.8,15.73,3.49,4.28,5.79,2.84,12.84,1.82,19.39-.4,2.56-3.61,1.86-5.65,2.5-28.42,8.88-58,11.93-87.1,17.53-18.56,3.58-37.23,6.62-55.68,10.69-6.56,1.44-8.4-.35-9.53-6.41-6-32-14.25-63.64-19-95.94-1.73-11.77-5.22-23.06-8.68-34.43C60.16,465.35,62.81,462.08,75.64,462.64Z"/><path class="cls-1" d="M801,38.19c.53,15.88,6.62,31.26,9.35,47.28,3.36,19.71,7.66,39.28,12.11,58.78,1.56,6.86,3,12.57-6.54,13.42-7.4.66-15,6-19.82-6.41-9.79-25-6.81-51.82-12.8-77.26-1.53-6.48-2.13-13.18-3.44-19.71-3.69-18.47-7-20.58-25.68-17.95-32.32,4.53-64.5,9.88-96.37,16.84-8.06,1.76-11.93-.83-13.86-8.2-1.56-6-.22-9.77,6.32-11.79,41.5-12.79,83.87-21.68,126.66-28.78,3.26-.54,7-.75,9.56-2.47,7.07-4.69,10.26-.05,10.6,5.22C797.76,17.46,803.57,27,801,38.19Z"/><path class="cls-1" d="M455.79,497.45C442.42,452.27,437.5,406.54,426,362.19c-1.89-7.3-12.71-11.36-22.26-7.27-7.56,3.24-11.37,2.65-13.75-5.73-2.24-7.88-3.56-14.23,6.72-17.32,24.18-7.25,49.24-10.4,73.73-16.13a20.48,20.48,0,0,1,3.29-.52c4.91-.32,11.43-5.93,14.19-.9,3.26,6,6.62,14.07,3.29,21.06-3,6.22-9.61,7.34-16.46,5.73a15.69,15.69,0,0,0-6.54.42c-21.71,4.56-21.15,1.79-14,21.66,14.06,39.25,12.27,81.86,27.7,120.58,2.26,5.69.06,8.16-5.83,8.64C468.74,493,461.25,493.22,455.79,497.45Z"/><path class="cls-1" d="M509.73,115.52c8,0,18.48-5,19.35,9.93.27,4.61.06,7.1-5,7.57a30.49,30.49,0,0,0-5.36,1.41c-9.52,2.75-23.4,2.78-27.32,9s1.39,19,3.84,28.52c8.56,33.4,16.55,66.89,21,101.16.93,7.14.92,10.37-7.81,12.42-18.71,4.41-18.23,5.28-21.77-14.47-6.85-38.29-11.58-76.94-19.77-115-1.55-7.22-3.46-10.54-11.41-7.86-5.22,1.75-10.92,2-16.39,3.05-17.86,3.3-19.61,1.66-18.87-16.5.14-3.3,1.31-4.83,4.17-5.4C452.68,123.72,480.37,114.6,509.73,115.52Z"/><path class="cls-1" d="M120,361.59c-28,1.86-28.26,1.92-33.92-26.64-5.54-28-6.2-56.78-13.36-84.52-3.33-12.92-6.21-26-10.63-38.56-2.72-7.72.28-8.24,6.41-9.41,10.56-2,15.45,1.4,18.54,12,10.68,36.74,17.64,74.29,25.4,111.65,2.11,10.11,5.91,13.76,16.05,12.21,14.65-2.25,29.44-3.49,44.12-5.57,5-.72,8.95-.83,9.89,5.31.79,5.12,4.35,10.52-3.82,13.77-12.85,5.11-26.4,6.58-39.8,8.76C132.7,361.62,126.3,361.31,120,361.59Z"/><path class="cls-1" d="M558.8,467.81c.43,7.37-16.54,18.4-23.4,15.21-2.08-1-1.71-3-2.09-4.68-11.43-51.71-20.93-103.77-29.69-156-2.16-12.89,7.7-12.28,14.75-14.89,7.69-2.85,11.52.47,12.56,8.47,6.3,48.54,19.45,95.81,26.85,144.16C558.17,462.65,558.47,465.23,558.8,467.81Z"/><path class="cls-1" d="M399.48,495.76c.83,5.73-.65,8-4.79,8.82a124.74,124.74,0,0,0-16.1,4.05c-4.94,1.69-6.74.05-7.34-4.72-6.57-51.86-20.5-102.32-29.62-153.7-1.75-9.87,3.3-12.4,9.66-13,7.07-.69,15.95-1.57,18.07,9,5.81,29,11.5,58.09,17.33,87.12,4,20,8.17,39.9,12.26,59.84C399.25,494.61,399.55,496.06,399.48,495.76Z"/><path class="cls-1" d="M223.4,333.88c.95,4.4-.17,6.23-3.58,6.36a4.49,4.49,0,0,0-1.1.15c-21.94,6.63-22,6.64-26.44-15.91-8.73-44.28-15.27-89-25.87-132.89-1.35-5.58.5-7.8,5.61-9.79,19.68-7.63,19.29-7.76,23.34,13,8.81,45,18,90,27,135C222.73,331.52,223.25,333.3,223.4,333.88Z"/><path class="cls-1" d="M400.48,138.35c7.68-1.56,7.45,4.28,8.3,8.15q12.51,57.6,24.65,115.3c1.47,6.88,3.37,13.73,4.11,20.69.48,4.52,5.26,9.87.74,13.48a81.42,81.42,0,0,1-20.17,11.56c-5,2-4.36-3.61-5.07-6.41-6.1-24.11-10.18-48.61-14.48-73.09-4.37-24.82-8.91-49.63-14.56-74.18-2.41-10.48-1.1-15.46,10.52-14.69C396.69,139.3,398.92,138.58,400.48,138.35Z"/><path class="cls-1" d="M669.55,319.1c-5.28-10.64-11.53-20.38-20.33-27.59-6.42-5.25-13.26-7.8-21-6s-15.63,3.13-23.45,4.66v0c-8.24,1.61-16.47,3.28-24.72,4.83a19.93,19.93,0,0,0-11.75,7.1c-7.51,8.88-10.6,20.33-12,32.5-3.66,31.93,1.74,62.75,14.07,92.52,5.17,12.48,11.79,23.93,21.29,32.84,6.82,6.41,14.29,10.12,23,8.4,16-3.16,32-6.22,47.91-9.44a23.15,23.15,0,0,0,6.68-2.41c7.48-4.24,11.45-12,14.2-20.68,5-15.86,5.61-32.61,4.07-49.66C685.44,362.66,680,340.13,669.55,319.1Zm5.79,93.07a53.06,53.06,0,0,1-4.69,12.69c-5.93,11.05-16.18,13-26,5.25-7.78-6.14-13-14.75-17.14-24.25-9-20.83-12.9-42.56-10.93-65.13a53.44,53.44,0,0,1,6-21.39c6.56-11.91,18-13.55,28.07-4.12,7.74,7.22,13.07,16.46,16.9,26.75,3,7.92,5.2,16.16,7.76,24.26C677.66,381.82,678.82,397.17,675.34,412.17Z"/><path class="cls-1" d="M667,368.38c1.67,12.35,2.51,24.44-.14,36.27a35.25,35.25,0,0,1-3.58,9.47c-3.87,6.81-9.67,7.8-15.89,3.11-.88-.66-1.66-1.49-2.5-2.22-2.65-2.29-3.48-4.64-2.81-8.74,2.23-13.8.38-27.68-3.26-41.35-2.47-9.24-5.65-18.17-11.11-25.88a2.8,2.8,0,0,1-.32-2.11c1.3-3.09,2.39-6.46,4.24-9.07,3.54-5,8.67-5.49,13.75-1.89,6.81,4.82,11,12.24,14.25,20.23C662.51,353.38,664.57,361,667,368.38Z"/></svg>