<svg id="Layer_1" data-name="Layer 1" xmlns="http://www.w3.org/2000/svg" viewBox="0 0 2645.44 1029.49"><defs><style>.cls-1{fill:#1c3f3f;}.cls-2{fill:#697c69;}.cls-3{fill:#efeace;}</style></defs><path class="cls-1" d="M31,340Q30,328.1,30,315.78Z"/><path class="cls-1" d="M1320.29,990.6h383a.41.41,0,0,0,.16,0ZM30,315.78q0,12.32.91,24.27Z"/><path class="cls-1" d="M1419.94,801.28q0,27.21,0,54.4a11.42,11.42,0,0,1-11.5,11.44H1236.28a13.2,13.2,0,0,1-2.44-.25,11.32,11.32,0,0,1-9.23-11.13q0-27.27,0-54.53a11.22,11.22,0,0,1,.29-2.53,11.36,11.36,0,0,1,9-8.63,7.45,7.45,0,0,0,1.32-.23h174a7.62,7.62,0,0,0,1.35.23A11.35,11.35,0,0,1,1419.94,801.28Z"/><path class="cls-1" d="M2327.63,377.65c0,17.52-5.73,31.55-18,44.1l-.14.13c-8.82,9.13-18.74,14.67-30.33,16.95-27.66,5.44-57.16,12.75-90.18,22.36l-168.7,49-247.71,72.15a45,45,0,0,0-24.21,17.38v-213a45.08,45.08,0,0,0-45-45H1476.77a45.08,45.08,0,0,0-45,45v262A25.25,25.25,0,0,1,1406.48,674h-84.35c-49.74,0-91-17.11-126.28-52.36s-52.43-76.5-52.43-126.34,17.15-91.17,52.47-126.37,76.5-52.33,126.3-52.33l381.23-.84a45.1,45.1,0,0,0,40.7-26,45.11,45.11,0,0,0,41,26.49l480.87.37c17.87,0,31.79,5.62,43.87,17.78S2327.63,360.28,2327.63,377.65Z"/><path class="cls-1" d="M554.37,652.83c0,6.48-1.72,10.76-6,14.77l-.08.09c-.27.25-.54.52-.81.75a19.58,19.58,0,0,1-13.16,4.81,22.45,22.45,0,0,1-4.62-.49L335.33,631.67H532.45a21.24,21.24,0,0,1,15.84,6.27l.12.12C552.65,642.08,554.37,646.36,554.37,652.83Z"/><path class="cls-1" d="M2105.62,309.6q-2.82-11.58-5.85-23.14l-19.15,0-14,0h-33.56l-19.32,0-22.44,0-14.6,0q3.32,15,6.68,30H1998l23.28,0,19.11,0h14.48l19,0h13.81l19.32,0C2106.59,314.18,2106.11,311.88,2105.62,309.6Zm-365.59,51-.21-.28c-.16-.23-.32-.44-.49-.67s-.14-.21-.21-.3c-.35-.46-.71-.89-1.08-1.33s-.93-1.11-1.4-1.64-.93-1-1.41-1.48l-.09-.08c-.58-.58-1.19-1.16-1.81-1.71s-1.32-1.14-2-1.67c-.48-.39-1-.76-1.46-1.12a49.87,49.87,0,0,0-4.68-3l-.17-.09-.81-.42a1.13,1.13,0,0,0-.21-.12c-.44-.23-.88-.44-1.32-.65s-.92-.44-1.39-.65l-.18-.07a6.35,6.35,0,0,0-.67-.28c-.56-.23-1.1-.44-1.67-.65s-1-.37-1.56-.55c-.25-.07-.49-.16-.76-.25-.63-.19-1.26-.36-1.91-.52s-1.29-.32-2-.46c-.2,0-.39-.09-.58-.11-.57-.12-1.15-.22-1.73-.31s-1-.16-1.54-.21l-.27,0a.62.62,0,0,0-.19,0,6.84,6.84,0,0,0-.9-.08.25.25,0,0,0-.12,0l-.42,0-.46,0-.91,0c-.73,0-1.45-.06-2.17-.06H1476.78q-1,0-2,.06a8,8,0,0,0-1,0h-.1c-.34,0-.67.05-1,.09s-.61.05-.91.08l-.19,0c-.48.05-1,.11-1.43.19l-.23,0-.33.05c-.65.09-1.28.21-1.92.34s-1.31.28-2,.45l-.46.13c-.44.1-.88.23-1.32.37s-.7.21-1,.31c-1.09.35-2.16.74-3.21,1.18-.53.21-1.06.44-1.57.69s-1,.44-1.42.68-.74.35-1.09.55l-.87.47-.19.11c-.51.3-1,.59-1.51.89s-.91.58-1.35.88l-.27.18c-.4.28-.79.54-1.18.84l-.94.72c-.39.29-.76.58-1.13.9h0s0,0,0,0l0,0-.14.12s-.09.07-.12.11a8.69,8.69,0,0,0-.93.81l0,0a.94.94,0,0,0-.16.14c-.19.15-.37.33-.56.51-.39.35-.76.7-1.12,1.07l-.22.21-1.37,1.44c-.42.48-.84.95-1.26,1.44s-1,1.29-1.53,1.95-.83,1.13-1.22,1.71-.8,1.21-1.17,1.83-.71,1.18-1,1.77-.55,1-.81,1.57c0,.05,0,.1-.07.16-.14.26-.26.52-.39.8-.51,1.1-1,2.2-1.4,3.33-.09.23-.18.45-.25.68-.19.55-.39,1.09-.54,1.64s-.37,1.23-.55,1.86c0,.21-.1.42-.16.63-.12.46-.23.92-.31,1.39a6.33,6.33,0,0,0-.16.78.37.37,0,0,0,0,.14,1.25,1.25,0,0,1,0,.19,5.5,5.5,0,0,0-.11.69s0,.05,0,.07,0,.07,0,.1c-.06.23-.09.46-.13.69s0,.3,0,.46a3.5,3.5,0,0,0-.1.66c-.07.53-.14,1.08-.18,1.62s-.09.83-.11,1.25V384c0,.21,0,.4,0,.61,0,.69,0,1.37,0,2.06V391a171.2,171.2,0,0,0,30,2.53v-6.85a15,15,0,0,1,4.58-10.8h0a15,15,0,0,1,10.43-4.2H1694.3l.07,0q22.92-5.32,45.82-10.79Zm-308.29,81.89V536.7C1443.94,504.67,1444.13,473,1431.74,442.54Zm0-51.53v51.53c12.39,30.42,12.2,62.13,0,94.16v112A25.28,25.28,0,0,1,1406.49,674h-84.37c-1.53,0-3.06,0-4.57,0h-.18c-1.3,0-2.6-.07-3.9-.13l-1.25-.05c-1.1,0-2.21-.12-3.3-.19s-1.88-.13-2.82-.21-1.7-.13-2.54-.22-1.67-.15-2.52-.24-2-.21-2.93-.34h-.06q-26.41,5.94-52.84,11.82a48.42,48.42,0,0,1-10.1,1.28q39.69,18.36,87,18.34h84.37a55.28,55.28,0,0,0,55.27-55.29V393.54A171.2,171.2,0,0,1,1431.74,391Zm-217,281.68c-2.13-4.66-5.29-4.64-8.77-3.62,3.41,2.35,6.87,4.59,10.39,6.68A24.42,24.42,0,0,1,1214.74,672.69ZM2608.47,981.41v.35l.47-.35ZM1740,360.65l-.21-.28c-.16-.23-.32-.44-.49-.67s-.14-.21-.21-.3c-.35-.46-.71-.89-1.08-1.33s-.93-1.11-1.4-1.64-.93-1-1.41-1.48l-.09-.08c-.58-.58-1.19-1.16-1.81-1.71s-1.32-1.14-2-1.67c-.48-.39-1-.76-1.46-1.12a49.87,49.87,0,0,0-4.68-3l-.17-.09-.81-.42a1.13,1.13,0,0,0-.21-.12c-.44-.23-.88-.44-1.32-.65s-.92-.44-1.39-.65l-.18-.07a6.35,6.35,0,0,0-.67-.28c-.56-.23-1.1-.44-1.67-.65s-1-.37-1.56-.55c-.25-.07-.49-.16-.76-.25-.63-.19-1.26-.36-1.91-.52s-1.29-.32-2-.46c-.2,0-.39-.09-.58-.11-.57-.12-1.15-.22-1.73-.31s-1-.16-1.54-.21l-.27,0a.62.62,0,0,0-.19,0,6.84,6.84,0,0,0-.9-.08.25.25,0,0,0-.12,0l-.42,0-.46,0-.91,0c-.73,0-1.45-.06-2.17-.06H1476.78q-1,0-2,.06a8,8,0,0,0-1,0h-.1c-.34,0-.67.05-1,.09s-.61.05-.91.08l-.19,0c-.48.05-1,.11-1.43.19l-.23,0-.33.05c-.65.09-1.28.21-1.92.34s-1.31.28-2,.45l-.46.13c-.44.1-.88.23-1.32.37s-.7.21-1,.31c-1.09.35-2.16.74-3.21,1.18-.53.21-1.06.44-1.57.69s-1,.44-1.42.68-.74.35-1.09.55l-.87.47-.19.11c-.51.3-1,.59-1.51.89s-.91.58-1.35.88l-.27.18c-.4.28-.79.54-1.18.84l-.94.72c-.39.29-.76.58-1.13.9h0s0,0,0,0l0,0-.14.12s-.09.07-.12.11a8.69,8.69,0,0,0-.93.81l0,0a.94.94,0,0,0-.16.14c-.19.15-.37.33-.56.51-.39.35-.76.7-1.12,1.07l-.22.21-1.37,1.44c-.42.48-.84.95-1.26,1.44s-1,1.29-1.53,1.95-.83,1.13-1.22,1.71-.8,1.21-1.17,1.83-.71,1.18-1,1.77-.55,1-.81,1.57c0,.05,0,.1-.07.16-.14.26-.26.52-.39.8-.51,1.1-1,2.2-1.4,3.33-.09.23-.18.45-.25.68-.19.55-.39,1.09-.54,1.64s-.37,1.23-.55,1.86c0,.21-.1.42-.16.63-.12.46-.23.92-.31,1.39a6.33,6.33,0,0,0-.16.78.37.37,0,0,0,0,.14,1.25,1.25,0,0,1,0,.19,5.5,5.5,0,0,0-.11.69s0,.05,0,.07,0,.07,0,.1c-.06.23-.09.46-.13.69s0,.3,0,.46a3.5,3.5,0,0,0-.1.66c-.07.53-.14,1.08-.18,1.62s-.09.83-.11,1.25V384c0,.21,0,.4,0,.61,0,.69,0,1.37,0,2.06V391a171.2,171.2,0,0,0,30,2.53v-6.85a15,15,0,0,1,4.58-10.8h0a15,15,0,0,1,10.43-4.2H1694.3l.07,0q22.92-5.32,45.82-10.79Zm-308.29,81.89V536.7C1443.94,504.67,1444.13,473,1431.74,442.54Zm0-51.53v51.53c12.39,30.42,12.2,62.13,0,94.16v112A25.28,25.28,0,0,1,1406.49,674h-84.37c-1.53,0-3.06,0-4.57,0h-.18c-1.3,0-2.6-.07-3.9-.13l-1.25-.05c-1.1,0-2.21-.12-3.3-.19s-1.88-.13-2.82-.21-1.7-.13-2.54-.22-1.67-.15-2.52-.24-2-.21-2.93-.34h-.06q-26.41,5.94-52.84,11.82a48.42,48.42,0,0,1-10.1,1.28q39.69,18.36,87,18.34h84.37a55.28,55.28,0,0,0,55.27-55.29V393.54A171.2,171.2,0,0,1,1431.74,391Zm-217,281.68c-2.13-4.66-5.29-4.64-8.77-3.62,3.41,2.35,6.87,4.59,10.39,6.68A24.42,24.42,0,0,1,1214.74,672.69Zm525.29-312-.21-.28c-.16-.23-.32-.44-.49-.67s-.14-.21-.21-.3c-.35-.46-.71-.89-1.08-1.33s-.93-1.11-1.4-1.64-.93-1-1.41-1.48l-.09-.08c-.58-.58-1.19-1.16-1.81-1.71s-1.32-1.14-2-1.67c-.48-.39-1-.76-1.46-1.12a49.87,49.87,0,0,0-4.68-3l-.17-.09-.81-.42a1.13,1.13,0,0,0-.21-.12c-.44-.23-.88-.44-1.32-.65s-.92-.44-1.39-.65l-.18-.07a6.35,6.35,0,0,0-.67-.28c-.56-.23-1.1-.44-1.67-.65s-1-.37-1.56-.55c-.25-.07-.49-.16-.76-.25-.63-.19-1.26-.36-1.91-.52s-1.29-.32-2-.46c-.2,0-.39-.09-.58-.11-.57-.12-1.15-.22-1.73-.31s-1-.16-1.54-.21l-.27,0a.62.62,0,0,0-.19,0,6.84,6.84,0,0,0-.9-.08.25.25,0,0,0-.12,0l-.42,0-.46,0-.91,0c-.73,0-1.45-.06-2.17-.06H1476.78q-1,0-2,.06a8,8,0,0,0-1,0h-.1c-.34,0-.67.05-1,.09s-.61.05-.91.08l-.19,0c-.48.05-1,.11-1.43.19l-.23,0-.33.05c-.65.09-1.28.21-1.92.34s-1.31.28-2,.45l-.46.13c-.44.1-.88.23-1.32.37s-.7.21-1,.31c-1.09.35-2.16.74-3.21,1.18-.53.21-1.06.44-1.57.69s-1,.44-1.42.68-.74.35-1.09.55l-.87.47-.19.11c-.51.3-1,.59-1.51.89s-.91.58-1.35.88l-.27.18c-.4.28-.79.54-1.18.84l-.94.72c-.39.29-.76.58-1.13.9h0s0,0,0,0l0,0-.14.12s-.09.07-.12.11a8.69,8.69,0,0,0-.93.81l0,0a.94.94,0,0,0-.16.14c-.19.15-.37.33-.56.51-.39.35-.76.7-1.12,1.07l-.22.21-1.37,1.44c-.42.48-.84.95-1.26,1.44s-1,1.29-1.53,1.95-.83,1.13-1.22,1.71-.8,1.21-1.17,1.83-.71,1.18-1,1.77-.55,1-.81,1.57c0,.05,0,.1-.07.16-.14.26-.26.52-.39.8-.51,1.1-1,2.2-1.4,3.33-.09.23-.18.45-.25.68-.19.55-.39,1.09-.54,1.64s-.37,1.23-.55,1.86c0,.21-.1.42-.16.63-.12.46-.23.92-.31,1.39a6.33,6.33,0,0,0-.16.78.37.37,0,0,0,0,.14,1.25,1.25,0,0,1,0,.19,5.5,5.5,0,0,0-.11.69s0,.05,0,.07,0,.07,0,.1c-.06.23-.09.46-.13.69s0,.3,0,.46a3.5,3.5,0,0,0-.1.66c-.07.53-.14,1.08-.18,1.62s-.09.83-.11,1.25V384c0,.21,0,.4,0,.61,0,.69,0,1.37,0,2.06V391a171.2,171.2,0,0,0,30,2.53v-6.85a15,15,0,0,1,4.58-10.8h0a15,15,0,0,1,10.43-4.2H1694.3l.07,0q22.92-5.32,45.82-10.79Zm-308.29,81.89V536.7C1443.94,504.67,1444.13,473,1431.74,442.54Zm0-51.53v51.53c12.39,30.42,12.2,62.13,0,94.16v112A25.28,25.28,0,0,1,1406.49,674h-84.37c-1.53,0-3.06,0-4.57,0h-.18c-1.3,0-2.6-.07-3.9-.13l-1.25-.05c-1.1,0-2.21-.12-3.3-.19s-1.88-.13-2.82-.21-1.7-.13-2.54-.22-1.67-.15-2.52-.24-2-.21-2.93-.34h-.06q-26.41,5.94-52.84,11.82a48.42,48.42,0,0,1-10.1,1.28q39.69,18.36,87,18.34h84.37a55.28,55.28,0,0,0,55.27-55.29V393.54A171.2,171.2,0,0,1,1431.74,391Zm-217,281.68c-2.13-4.66-5.29-4.64-8.77-3.62,3.41,2.35,6.87,4.59,10.39,6.68A24.42,24.42,0,0,1,1214.74,672.69Zm525.29-312-.21-.28c-.16-.23-.32-.44-.49-.67s-.14-.21-.21-.3c-.35-.46-.71-.89-1.08-1.33s-.93-1.11-1.4-1.64-.93-1-1.41-1.48l-.09-.08c-.58-.58-1.19-1.16-1.81-1.71s-1.32-1.14-2-1.67c-.48-.39-1-.76-1.46-1.12a49.87,49.87,0,0,0-4.68-3l-.17-.09-.81-.42a1.13,1.13,0,0,0-.21-.12c-.44-.23-.88-.44-1.32-.65s-.92-.44-1.39-.65l-.18-.07a6.35,6.35,0,0,0-.67-.28c-.56-.23-1.1-.44-1.67-.65s-1-.37-1.56-.55c-.25-.07-.49-.16-.76-.25-.63-.19-1.26-.36-1.91-.52s-1.29-.32-2-.46c-.2,0-.39-.09-.58-.11-.57-.12-1.15-.22-1.73-.31s-1-.16-1.54-.21l-.27,0a.62.62,0,0,0-.19,0,6.84,6.84,0,0,0-.9-.08.25.25,0,0,0-.12,0l-.42,0-.46,0-.91,0c-.73,0-1.45-.06-2.17-.06H1476.78q-1,0-2,.06a8,8,0,0,0-1,0h-.1c-.34,0-.67.05-1,.09s-.61.05-.91.08l-.19,0c-.48.05-1,.11-1.43.19l-.23,0-.33.05c-.65.09-1.28.21-1.92.34s-1.31.28-2,.45l-.46.13c-.44.1-.88.23-1.32.37s-.7.21-1,.31c-1.09.35-2.16.74-3.21,1.18-.53.21-1.06.44-1.57.69s-1,.44-1.42.68-.74.35-1.09.55l-.87.47-.19.11c-.51.3-1,.59-1.51.89s-.91.58-1.35.88l-.27.18c-.4.28-.79.54-1.18.84l-.94.72c-.39.29-.76.58-1.13.9h0s0,0,0,0l0,0-.14.12s-.09.07-.12.11a8.69,8.69,0,0,0-.93.81l0,0a.94.94,0,0,0-.16.14c-.19.15-.37.33-.56.51-.39.35-.76.7-1.12,1.07l-.22.21-1.37,1.44c-.42.48-.84.95-1.26,1.44s-1,1.29-1.53,1.95-.83,1.13-1.22,1.71-.8,1.21-1.17,1.83-.71,1.18-1,1.77-.55,1-.81,1.57c0,.05,0,.1-.07.16-.14.26-.26.52-.39.8-.51,1.1-1,2.2-1.4,3.33-.09.23-.18.45-.25.68-.19.55-.39,1.09-.54,1.64s-.37,1.23-.55,1.86c0,.21-.1.42-.16.63-.12.46-.23.92-.31,1.39a6.33,6.33,0,0,0-.16.78.37.37,0,0,0,0,.14,1.25,1.25,0,0,1,0,.19,5.5,5.5,0,0,0-.11.69s0,.05,0,.07,0,.07,0,.1c-.06.23-.09.46-.13.69s0,.3,0,.46a3.5,3.5,0,0,0-.1.66c-.07.53-.14,1.08-.18,1.62s-.09.83-.11,1.25V384c0,.21,0,.4,0,.61,0,.69,0,1.37,0,2.06V391a171.2,171.2,0,0,0,30,2.53v-6.85a15,15,0,0,1,4.58-10.8h0a15,15,0,0,1,10.43-4.2H1694.3l.07,0q22.92-5.32,45.82-10.79Zm-308.29,81.89V536.7C1443.94,504.67,1444.13,473,1431.74,442.54Zm0-51.53v51.53c12.39,30.42,12.2,62.13,0,94.16v112A25.28,25.28,0,0,1,1406.49,674h-84.37c-1.53,0-3.06,0-4.57,0h-.18c-1.3,0-2.6-.07-3.9-.13l-1.25-.05c-1.1,0-2.21-.12-3.3-.19s-1.88-.13-2.82-.21-1.7-.13-2.54-.22-1.67-.15-2.52-.24-2-.21-2.93-.34h-.06q-26.41,5.94-52.84,11.82a48.42,48.42,0,0,1-10.1,1.28q39.69,18.36,87,18.34h84.37a55.28,55.28,0,0,0,55.27-55.29V393.54A171.2,171.2,0,0,1,1431.74,391Zm-217,281.68c-2.13-4.66-5.29-4.64-8.77-3.62,3.41,2.35,6.87,4.59,10.39,6.68A24.42,24.42,0,0,1,1214.74,672.69Zm525.29-312-.21-.28c-.16-.23-.32-.44-.49-.67s-.14-.21-.21-.3c-.35-.46-.71-.89-1.08-1.33s-.93-1.11-1.4-1.64-.93-1-1.41-1.48l-.09-.08c-.58-.58-1.19-1.16-1.81-1.71s-1.32-1.14-2-1.67c-.48-.39-1-.76-1.46-1.12a49.87,49.87,0,0,0-4.68-3l-.17-.09-.81-.42a1.13,1.13,0,0,0-.21-.12c-.44-.23-.88-.44-1.32-.65s-.92-.44-1.39-.65l-.18-.07a6.35,6.35,0,0,0-.67-.28c-.56-.23-1.1-.44-1.67-.65s-1-.37-1.56-.55c-.25-.07-.49-.16-.76-.25-.63-.19-1.26-.36-1.91-.52s-1.29-.32-2-.46c-.2,0-.39-.09-.58-.11-.57-.12-1.15-.22-1.73-.31s-1-.16-1.54-.21l-.27,0a.62.62,0,0,0-.19,0,6.84,6.84,0,0,0-.9-.08.25.25,0,0,0-.12,0l-.42,0-.46,0-.91,0c-.73,0-1.45-.06-2.17-.06H1476.78q-1,0-2,.06a8,8,0,0,0-1,0h-.1c-.34,0-.67.05-1,.09s-.61.05-.91.08l-.19,0c-.48.05-1,.11-1.43.19l-.23,0-.33.05c-.65.09-1.28.21-1.92.34s-1.31.28-2,.45l-.46.13c-.44.1-.88.23-1.32.37s-.7.21-1,.31c-1.09.35-2.16.74-3.21,1.18-.53.21-1.06.44-1.57.69s-1,.44-1.42.68-.74.35-1.09.55l-.87.47-.19.11c-.51.3-1,.59-1.51.89s-.91.58-1.35.88l-.27.18c-.4.28-.79.54-1.18.84l-.94.72c-.39.29-.76.58-1.13.9h0s0,0,0,0l0,0-.14.12s-.09.07-.12.11a8.69,8.69,0,0,0-.93.81l0,0a.94.94,0,0,0-.16.14c-.19.15-.37.33-.56.51-.39.35-.76.7-1.12,1.07l-.22.21-1.37,1.44c-.42.48-.84.95-1.26,1.44s-1,1.29-1.53,1.95-.83,1.13-1.22,1.71-.8,1.21-1.17,1.83-.71,1.18-1,1.77-.55,1-.81,1.57c0,.05,0,.1-.07.16-.14.26-.26.52-.39.8-.51,1.1-1,2.2-1.4,3.33-.09.23-.18.45-.25.68-.19.55-.39,1.09-.54,1.64s-.37,1.23-.55,1.86c0,.21-.1.42-.16.63-.12.46-.23.92-.31,1.39a6.33,6.33,0,0,0-.16.78.37.37,0,0,0,0,.14,1.25,1.25,0,0,1,0,.19,5.5,5.5,0,0,0-.11.69s0,.05,0,.07,0,.07,0,.1c-.06.23-.09.46-.13.69s0,.3,0,.46a3.5,3.5,0,0,0-.1.66c-.07.53-.14,1.08-.18,1.62s-.09.83-.11,1.25V384c0,.21,0,.4,0,.61,0,.69,0,1.37,0,2.06V391a171.2,171.2,0,0,0,30,2.53v-6.85a15,15,0,0,1,4.58-10.8h0a15,15,0,0,1,10.43-4.2H1694.3l.07,0q22.92-5.32,45.82-10.79Zm-308.29,81.89V536.7C1443.94,504.67,1444.13,473,1431.74,442.54Zm0-51.53v51.53c12.39,30.42,12.2,62.13,0,94.16v112A25.28,25.28,0,0,1,1406.49,674h-84.37c-1.53,0-3.06,0-4.57,0h-.18c-1.3,0-2.6-.07-3.9-.13l-1.25-.05c-1.1,0-2.21-.12-3.3-.19s-1.88-.13-2.82-.21-1.7-.13-2.54-.22-1.67-.15-2.52-.24-2-.21-2.93-.34h-.06q-26.41,5.94-52.84,11.82a48.42,48.42,0,0,1-10.1,1.28q39.69,18.36,87,18.34h84.37a55.28,55.28,0,0,0,55.27-55.29V393.54A171.2,171.2,0,0,1,1431.74,391Zm-217,281.68c-2.13-4.66-5.29-4.64-8.77-3.62,3.41,2.35,6.87,4.59,10.39,6.68A24.42,24.42,0,0,1,1214.74,672.69Zm525.29-312-.21-.28c-.16-.23-.32-.44-.49-.67s-.14-.21-.21-.3c-.35-.46-.71-.89-1.08-1.33s-.93-1.11-1.4-1.64-.93-1-1.41-1.48l-.09-.08c-.58-.58-1.19-1.16-1.81-1.71s-1.32-1.14-2-1.67c-.48-.39-1-.76-1.46-1.12a49.87,49.87,0,0,0-4.68-3l-.17-.09-.81-.42a1.13,1.13,0,0,0-.21-.12c-.44-.23-.88-.44-1.32-.65s-.92-.44-1.39-.65l-.18-.07a6.35,6.35,0,0,0-.67-.28c-.56-.23-1.1-.44-1.67-.65s-1-.37-1.56-.55c-.25-.07-.49-.16-.76-.25-.63-.19-1.26-.36-1.91-.52s-1.29-.32-2-.46c-.2,0-.39-.09-.58-.11-.57-.12-1.15-.22-1.73-.31s-1-.16-1.54-.21l-.27,0a.62.62,0,0,0-.19,0,6.84,6.84,0,0,0-.9-.08.25.25,0,0,0-.12,0l-.42,0-.46,0-.91,0c-.73,0-1.45-.06-2.17-.06H1476.78q-1,0-2,.06a8,8,0,0,0-1,0h-.1c-.34,0-.67.05-1,.09s-.61.05-.91.08l-.19,0c-.48.05-1,.11-1.43.19l-.23,0-.33.05c-.65.09-1.28.21-1.92.34s-1.31.28-2,.45l-.46.13c-.44.1-.88.23-1.32.37s-.7.21-1,.31c-1.09.35-2.16.74-3.21,1.18-.53.21-1.06.44-1.57.69s-1,.44-1.42.68-.74.35-1.09.55l-.87.47-.19.11c-.51.3-1,.59-1.51.89s-.91.58-1.35.88l-.27.18c-.4.28-.79.54-1.18.84l-.94.72c-.39.29-.76.58-1.13.9h0s0,0,0,0l0,0-.14.12s-.09.07-.12.11a8.69,8.69,0,0,0-.93.81l0,0a.94.94,0,0,0-.16.14c-.19.15-.37.33-.56.51-.39.35-.76.7-1.12,1.07l-.22.21-1.37,1.44c-.42.48-.84.95-1.26,1.44s-1,1.29-1.53,1.95-.83,1.13-1.22,1.71-.8,1.21-1.17,1.83-.71,1.18-1,1.77-.55,1-.81,1.57c0,.05,0,.1-.07.16-.14.26-.26.52-.39.8-.51,1.1-1,2.2-1.4,3.33-.09.23-.18.45-.25.68-.19.55-.39,1.09-.54,1.64s-.37,1.23-.55,1.86c0,.21-.1.42-.16.63-.12.46-.23.92-.31,1.39a6.33,6.33,0,0,0-.16.78.37.37,0,0,0,0,.14,1.25,1.25,0,0,1,0,.19,5.5,5.5,0,0,0-.11.69s0,.05,0,.07,0,.07,0,.1c-.06.23-.09.46-.13.69s0,.3,0,.46a3.5,3.5,0,0,0-.1.66c-.07.53-.14,1.08-.18,1.62s-.09.83-.11,1.25V384c0,.21,0,.4,0,.61,0,.69,0,1.37,0,2.06V391a171.2,171.2,0,0,0,30,2.53v-6.85a15,15,0,0,1,4.58-10.8h0a15,15,0,0,1,10.43-4.2H1694.3l.07,0q22.92-5.32,45.82-10.79Zm-308.29,81.89V536.7C1443.94,504.67,1444.13,473,1431.74,442.54Zm0-51.53v51.53c12.39,30.42,12.2,62.13,0,94.16v112A25.28,25.28,0,0,1,1406.49,674h-84.37c-1.53,0-3.06,0-4.57,0h-.18c-1.3,0-2.6-.07-3.9-.13l-1.25-.05c-1.1,0-2.21-.12-3.3-.19s-1.88-.13-2.82-.21-1.7-.13-2.54-.22-1.67-.15-2.52-.24-2-.21-2.93-.34h-.06q-26.41,5.94-52.84,11.82a48.42,48.42,0,0,1-10.1,1.28q39.69,18.36,87,18.34h84.37a55.28,55.28,0,0,0,55.27-55.29V393.54A171.2,171.2,0,0,1,1431.74,391Zm-217,281.68c-2.13-4.66-5.29-4.64-8.77-3.62,3.41,2.35,6.87,4.59,10.39,6.68A24.42,24.42,0,0,1,1214.74,672.69Zm525.29-312-.21-.28c-.16-.23-.32-.44-.49-.67s-.14-.21-.21-.3c-.35-.46-.71-.89-1.08-1.33s-.93-1.11-1.4-1.64-.93-1-1.41-1.48l-.09-.08c-.58-.58-1.19-1.16-1.81-1.71s-1.32-1.14-2-1.67c-.48-.39-1-.76-1.46-1.12a49.87,49.87,0,0,0-4.68-3l-.17-.09-.81-.42a1.13,1.13,0,0,0-.21-.12c-.44-.23-.88-.44-1.32-.65s-.92-.44-1.39-.65l-.18-.07a6.35,6.35,0,0,0-.67-.28c-.56-.23-1.1-.44-1.67-.65s-1-.37-1.56-.55c-.25-.07-.49-.16-.76-.25-.63-.19-1.26-.36-1.91-.52s-1.29-.32-2-.46c-.2,0-.39-.09-.58-.11-.57-.12-1.15-.22-1.73-.31s-1-.16-1.54-.21l-.27,0a.62.62,0,0,0-.19,0,6.84,6.84,0,0,0-.9-.08.25.25,0,0,0-.12,0l-.42,0-.46,0-.91,0c-.73,0-1.45-.06-2.17-.06H1476.78q-1,0-2,.06a8,8,0,0,0-1,0h-.1c-.34,0-.67.05-1,.09s-.61.05-.91.08l-.19,0c-.48.05-1,.11-1.43.19l-.23,0-.33.05c-.65.09-1.28.21-1.92.34s-1.31.28-2,.45l-.46.13c-.44.1-.88.23-1.32.37s-.7.21-1,.31c-1.09.35-2.16.74-3.21,1.18-.53.21-1.06.44-1.57.69s-1,.44-1.42.68-.74.35-1.09.55l-.87.47-.19.11c-.51.3-1,.59-1.51.89s-.91.58-1.35.88l-.27.18c-.4.28-.79.54-1.18.84l-.94.72c-.39.29-.76.58-1.13.9h0s0,0,0,0l0,0-.14.12s-.09.07-.12.11a8.69,8.69,0,0,0-.93.81l0,0a.94.94,0,0,0-.16.14c-.19.15-.37.33-.56.51-.39.35-.76.7-1.12,1.07l-.22.21-1.37,1.44c-.42.48-.84.95-1.26,1.44s-1,1.29-1.53,1.95-.83,1.13-1.22,1.71-.8,1.21-1.17,1.83-.71,1.18-1,1.77-.55,1-.81,1.57c0,.05,0,.1-.07.16-.14.26-.26.52-.39.8-.51,1.1-1,2.2-1.4,3.33-.09.23-.18.45-.25.68-.19.55-.39,1.09-.54,1.64s-.37,1.23-.55,1.86c0,.21-.1.42-.16.63-.12.46-.23.92-.31,1.39a6.33,6.33,0,0,0-.16.78.37.37,0,0,0,0,.14,1.25,1.25,0,0,1,0,.19,5.5,5.5,0,0,0-.11.69s0,.05,0,.07,0,.07,0,.1c-.06.23-.09.46-.13.69s0,.3,0,.46a3.5,3.5,0,0,0-.1.66c-.07.53-.14,1.08-.18,1.62s-.09.83-.11,1.25V384c0,.21,0,.4,0,.61,0,.69,0,1.37,0,2.06V391a171.2,171.2,0,0,0,30,2.53v-6.85a15,15,0,0,1,4.58-10.8h0a15,15,0,0,1,10.43-4.2H1694.3l.07,0q22.92-5.32,45.82-10.79Zm-308.29,81.89V536.7C1443.94,504.67,1444.13,473,1431.74,442.54Zm0-51.53v51.53c12.39,30.42,12.2,62.13,0,94.16v112A25.28,25.28,0,0,1,1406.49,674h-84.37c-1.53,0-3.06,0-4.57,0h-.18c-1.3,0-2.6-.07-3.9-.13l-1.25-.05c-1.1,0-2.21-.12-3.3-.19s-1.88-.13-2.82-.21-1.7-.13-2.54-.22-1.67-.15-2.52-.24-2-.21-2.93-.34h-.06q-26.41,5.94-52.84,11.82a48.42,48.42,0,0,1-10.1,1.28q39.69,18.36,87,18.34h84.37a55.28,55.28,0,0,0,55.27-55.29V393.54A171.2,171.2,0,0,1,1431.74,391Zm-217,281.68c-2.13-4.66-5.29-4.64-8.77-3.62,3.41,2.35,6.87,4.59,10.39,6.68A24.42,24.42,0,0,1,1214.74,672.69Zm525.29-312-.21-.28c-.16-.23-.32-.44-.49-.67s-.14-.21-.21-.3c-.35-.46-.71-.89-1.08-1.33s-.93-1.11-1.4-1.64-.93-1-1.41-1.48l-.09-.08c-.58-.58-1.19-1.16-1.81-1.71s-1.32-1.14-2-1.67c-.48-.39-1-.76-1.46-1.12a49.87,49.87,0,0,0-4.68-3l-.17-.09-.81-.42a1.13,1.13,0,0,0-.21-.12c-.44-.23-.88-.44-1.32-.65s-.92-.44-1.39-.65l-.18-.07a6.35,6.35,0,0,0-.67-.28c-.56-.23-1.1-.44-1.67-.65s-1-.37-1.56-.55c-.25-.07-.49-.16-.76-.25-.63-.19-1.26-.36-1.91-.52s-1.29-.32-2-.46c-.2,0-.39-.09-.58-.11-.57-.12-1.15-.22-1.73-.31s-1-.16-1.54-.21l-.27,0a.62.62,0,0,0-.19,0,6.84,6.84,0,0,0-.9-.08.25.25,0,0,0-.12,0l-.42,0-.46,0-.91,0c-.73,0-1.45-.06-2.17-.06H1476.78q-1,0-2,.06a8,8,0,0,0-1,0h-.1c-.34,0-.67.05-1,.09s-.61.05-.91.08l-.19,0c-.48.05-1,.11-1.43.19l-.23,0-.33.05c-.65.09-1.28.21-1.92.34s-1.31.28-2,.45l-.46.13c-.44.1-.88.23-1.32.37s-.7.21-1,.31c-1.09.35-2.16.74-3.21,1.18-.53.21-1.06.44-1.57.69s-1,.44-1.42.68-.74.35-1.09.55l-.87.47-.19.11c-.51.3-1,.59-1.51.89s-.91.58-1.35.88l-.27.18c-.4.28-.79.54-1.18.84l-.94.72c-.39.29-.76.58-1.13.9h0s0,0,0,0l0,0-.14.12s-.09.07-.12.11a8.69,8.69,0,0,0-.93.81l0,0a.94.94,0,0,0-.16.14c-.19.15-.37.33-.56.51-.39.35-.76.7-1.12,1.07l-.22.21-1.37,1.44c-.42.48-.84.95-1.26,1.44s-1,1.29-1.53,1.95-.83,1.13-1.22,1.71-.8,1.21-1.17,1.83-.71,1.18-1,1.77-.55,1-.81,1.57c0,.05,0,.1-.07.16-.14.26-.26.52-.39.8-.51,1.1-1,2.2-1.4,3.33-.09.23-.18.45-.25.68-.19.55-.39,1.09-.54,1.64s-.37,1.23-.55,1.86c0,.21-.1.42-.16.63-.12.46-.23.92-.31,1.39a6.33,6.33,0,0,0-.16.78.37.37,0,0,0,0,.14,1.25,1.25,0,0,1,0,.19,5.5,5.5,0,0,0-.11.69s0,.05,0,.07,0,.07,0,.1c-.06.23-.09.46-.13.69s0,.3,0,.46a3.5,3.5,0,0,0-.1.66c-.07.53-.14,1.08-.18,1.62s-.09.83-.11,1.25V384c0,.21,0,.4,0,.61,0,.69,0,1.37,0,2.06V391a171.2,171.2,0,0,0,30,2.53v-6.85a15,15,0,0,1,4.58-10.8h0a15,15,0,0,1,10.43-4.2H1694.3l.07,0q22.92-5.32,45.82-10.79Zm-308.29,81.89V536.7C1443.94,504.67,1444.13,473,1431.74,442.54Zm0-51.53v51.53c12.39,30.42,12.2,62.13,0,94.16v112A25.28,25.28,0,0,1,1406.49,674h-84.37c-1.53,0-3.06,0-4.57,0h-.18c-1.3,0-2.6-.07-3.9-.13l-1.25-.05c-1.1,0-2.21-.12-3.3-.19s-1.88-.13-2.82-.21-1.7-.13-2.54-.22-1.67-.15-2.52-.24-2-.21-2.93-.34h-.06q-26.41,5.94-52.84,11.82a48.42,48.42,0,0,1-10.1,1.28q39.69,18.36,87,18.34h84.37a55.28,55.28,0,0,0,55.27-55.29V393.54A171.2,171.2,0,0,1,1431.74,391Zm-217,281.68c-2.13-4.66-5.29-4.64-8.77-3.62,3.41,2.35,6.87,4.59,10.39,6.68A24.42,24.42,0,0,1,1214.74,672.69Zm525.29-312-.21-.28c-.16-.23-.32-.44-.49-.67s-.14-.21-.21-.3c-.35-.46-.71-.89-1.08-1.33s-.93-1.11-1.4-1.64-.93-1-1.41-1.48l-.09-.08c-.58-.58-1.19-1.16-1.81-1.71s-1.32-1.14-2-1.67c-.48-.39-1-.76-1.46-1.12a49.87,49.87,0,0,0-4.68-3l-.17-.09-.81-.42a1.13,1.13,0,0,0-.21-.12c-.44-.23-.88-.44-1.32-.65s-.92-.44-1.39-.65l-.18-.07a6.35,6.35,0,0,0-.67-.28c-.56-.23-1.1-.44-1.67-.65s-1-.37-1.56-.55c-.25-.07-.49-.16-.76-.25-.63-.19-1.26-.36-1.91-.52s-1.29-.32-2-.46c-.2,0-.39-.09-.58-.11-.57-.12-1.15-.22-1.73-.31s-1-.16-1.54-.21l-.27,0a.62.62,0,0,0-.19,0,6.84,6.84,0,0,0-.9-.08.25.25,0,0,0-.12,0l-.42,0-.46,0-.91,0c-.73,0-1.45-.06-2.17-.06H1476.78q-1,0-2,.06a8,8,0,0,0-1,0h-.1c-.34,0-.67.05-1,.09s-.61.05-.91.08l-.19,0c-.48.05-1,.11-1.43.19l-.23,0-.33.05c-.65.09-1.28.21-1.92.34s-1.31.28-2,.45l-.46.13c-.44.1-.88.23-1.32.37s-.7.21-1,.31c-1.09.35-2.16.74-3.21,1.18-.53.21-1.06.44-1.57.69s-1,.44-1.42.68-.74.35-1.09.55l-.87.47-.19.11c-.51.3-1,.59-1.51.89s-.91.58-1.35.88l-.27.18c-.4.28-.79.54-1.18.84l-.94.72c-.39.29-.76.58-1.13.9h0s0,0,0,0l0,0-.14.12s-.09.07-.12.11a8.69,8.69,0,0,0-.93.81l0,0a.94.94,0,0,0-.16.14c-.19.15-.37.33-.56.51-.39.35-.76.7-1.12,1.07l-.22.21-1.37,1.44c-.42.48-.84.95-1.26,1.44s-1,1.29-1.53,1.95-.83,1.13-1.22,1.71-.8,1.21-1.17,1.83-.71,1.18-1,1.77-.55,1-.81,1.57c0,.05,0,.1-.07.16-.14.26-.26.52-.39.8-.51,1.1-1,2.2-1.4,3.33-.09.23-.18.45-.25.68-.19.55-.39,1.09-.54,1.64s-.37,1.23-.55,1.86c0,.21-.1.42-.16.63-.12.46-.23.92-.31,1.39a6.33,6.33,0,0,0-.16.78.37.37,0,0,0,0,.14,1.25,1.25,0,0,1,0,.19,5.5,5.5,0,0,0-.11.69s0,.05,0,.07,0,.07,0,.1c-.06.23-.09.46-.13.69s0,.3,0,.46a3.5,3.5,0,0,0-.1.66c-.07.53-.14,1.08-.18,1.62s-.09.83-.11,1.25V384c0,.21,0,.4,0,.61,0,.69,0,1.37,0,2.06V391a171.2,171.2,0,0,0,30,2.53v-6.85a15,15,0,0,1,4.58-10.8h0a15,15,0,0,1,10.43-4.2H1694.3l.07,0q22.92-5.32,45.82-10.79ZM1431.74,536.7c12.2-32,12.39-63.74,0-94.16Zm0-145.69v51.53c12.39,30.42,12.2,62.13,0,94.16v112A25.28,25.28,0,0,1,1406.49,674h-84.37c-1.53,0-3.06,0-4.57,0h-.18c-1.3,0-2.6-.07-3.9-.13l-1.25-.05c-1.1,0-2.21-.12-3.3-.19s-1.88-.13-2.82-.21-1.7-.13-2.54-.22-1.67-.15-2.52-.24-2-.21-2.93-.34h-.06q-26.41,5.94-52.84,11.82a48.42,48.42,0,0,1-10.1,1.28q39.69,18.36,87,18.34h84.37a55.28,55.28,0,0,0,55.27-55.29V393.54A171.2,171.2,0,0,1,1431.74,391ZM1206,669.07c3.41,2.35,6.87,4.59,10.39,6.68a24.42,24.42,0,0,1-1.62-3.06C1212.61,668,1209.45,668.05,1206,669.07ZM2599.32,0H317.17A318.36,318.36,0,0,0,196.06,23.75,313.22,313.22,0,0,0,93.09,92C31.33,153.48,0,228.78,0,315.77v.58l0,.19c0,8.26.33,16.51.91,24.56a289.18,289.18,0,0,0,85,205.1,293.09,293.09,0,0,0,57.65,44.93L48.17,571H45A45.1,45.1,0,0,0,0,616L.33,945.56a45.08,45.08,0,0,0,45,45H1320.29l383.19,0h664.34v-30h-40.89a15,15,0,0,1-13.35-8.15l-38.92-75.76a278.82,278.82,0,0,0-232.15-150.95,15,15,0,0,0-15.83,15V945.56a15,15,0,0,1-15,15H1785.13a15,15,0,0,1-15-15v-320a15,15,0,0,1,10.81-14.41L2028.65,539l168.69-49c28.89-8.39,58.07-15.91,87.61-21.73q26.39-5.17,46.11-25.53,26.64-27.21,26.58-65.1t-26.58-64.49q-26.45-26.66-65.1-26.58l-104.11-.09h-19.64l-42.44,0-19.15,0-14,0h-33.56l-19.32,0-22.44,0-14.6,0-137.47-.1-23.85,0-30.24,0a15,15,0,0,1-15-15V45a15,15,0,0,1,15-15h814.19a15,15,0,0,1,15,15V378.27a335.65,335.65,0,0,1-20,115,352.22,352.22,0,0,1-55.15,99.63,359.41,359.41,0,0,1-72.47,69.15,15,15,0,0,0-4.6,19.09l102.55,198.75c7.24-5.24,17-7.79,29.78-7.79l-99.81-193.4a390.94,390.94,0,0,0,68.11-67.18,384.65,384.65,0,0,0,59.84-108,367.33,367.33,0,0,0,21.79-125.24V45A45.08,45.08,0,0,0,2599.32,0ZM749.87,870.14q-89.82,90.4-217.42,90.43H45.36a15,15,0,0,1-15-15L30,616a15,15,0,0,1,15-15l478.5,101.14a50.39,50.39,0,0,0,44-11.32l1.54-1.45q15.3-14.52,15.3-36.53t-15.3-36.53a51,51,0,0,0-36.65-14.66H292c-144.39,0-261.35-117.21-261-261.6q-.9-12-.91-24.27,0-118.5,84.24-202.51C168.09,59.67,241.24,30,317.17,30H812.25a18,18,0,0,1,18,18V270.21a15,15,0,0,1-15,15H315.78c-7.94,0-14.78,3.11-20.62,9.34a30.54,30.54,0,0,0-8.56,22.13,29,29,0,0,0,8.69,19.85,28,28,0,0,0,20.49,8.56H532.45q127.66,0,217.42,90.33Q839.53,526,839.58,652.84T749.87,870.14ZM335.33,631.67H532.45a21.23,21.23,0,0,1,15.84,6.26l.12.13c4.24,4,6,8.29,6,14.76s-1.72,10.76-6,14.79l-.09.09c-.26.24-.52.51-.79.74a19.57,19.57,0,0,1-13.16,4.81,22.47,22.47,0,0,1-4.63-.49Zm1383,313.89a15,15,0,0,1-15,15h-381.2q-126.34,0-233.31-62.48T919.35,728.61q-62.45-107-62.5-233.31a451,451,0,0,1,37.27-180.78q37.08-86.47,99-148.21t148.23-99.13A453.68,453.68,0,0,1,1322.12,30h381.2a15,15,0,0,1,15,15v225.7a15,15,0,0,1-15,15l-381.22.84q-78.66,0-136.23,50.6-5.73,5-11.24,10.53a210.94,210.94,0,0,0-39.92,54.34q-21.33,42.22-21.33,93.25,0,86.48,61.25,147.59A233.35,233.35,0,0,0,1192,658.63q6.81,5.55,13.91,10.44h0c3.41,2.35,6.87,4.59,10.39,6.68v0a197.49,197.49,0,0,0,18.74,9.91h0q39.69,18.36,87,18.34h84.37a55.28,55.28,0,0,0,55.27-55.29v-262a15,15,0,0,1,4.58-10.8h0a15,15,0,0,1,10.43-4.2h226.54a15,15,0,0,1,15,15Zm66.77-629.34h5.8l55.22.06h36.31l12.9,0,60,0h12.87l15.23,0H1998l23.28,0,19.11,0h14.48l19,0h13.81l19.32,0,41.87,0,19.11,0,97.95.07c17.86,0,31.78,5.63,43.86,17.79s17.79,25.9,17.79,43.27c0,17.53-5.73,31.54-18,44.09l-.14.14c-8.81,9.13-18.72,14.67-30.33,16.95-27.65,5.45-57.15,12.75-90.17,22.36l-4.18,1.22-20.31,5.9-33.82,9.83-18.41,5.35-13,3.76-18,5.22-14,4.08-19.43,5.64-27.6,8-5.47,1.6h0l-.08,0-188.5,54.9-53.63,15.61a45.11,45.11,0,0,0-24.21,17.39v-213a43.54,43.54,0,0,0-.23-4.59c-.09-.76-.18-1.51-.3-2.25,0-.39-.11-.78-.19-1.14s-.18-1-.28-1.45-.29-1.24-.44-1.86c-.09-.39-.2-.76-.32-1.12a4.79,4.79,0,0,0-.21-.74c-.07-.25-.16-.5-.23-.74-.19-.6-.4-1.2-.63-1.79a7.12,7.12,0,0,0-.34-.87l-.31-.8c-.13-.27-.23-.53-.36-.8h0s0,0,0,0c-.28-.63-.57-1.25-.88-1.86a1,1,0,0,0-.11-.2c-.14-.31-.31-.63-.47-.93s-.34-.61-.51-.91a10.76,10.76,0,0,0-.55-.95c-.19-.32-.37-.62-.58-.93s-.37-.58-.56-.86-.39-.58-.58-.87l-.07-.1-.16-.23-.21-.28c-.16-.23-.32-.44-.49-.67s-.14-.21-.21-.3c-.35-.46-.71-.89-1.08-1.33s-.93-1.11-1.4-1.64-.93-1-1.41-1.48l-.09-.08c-.58-.58-1.19-1.16-1.81-1.71s-1.32-1.14-2-1.67c-.48-.39-1-.76-1.46-1.12a49.87,49.87,0,0,0-4.68-3l-.17-.09-.81-.42a1.13,1.13,0,0,0-.21-.12c-.44-.23-.88-.44-1.32-.65s-.92-.44-1.39-.65l-.18-.07a6.35,6.35,0,0,0-.67-.28c-.56-.23-1.1-.44-1.67-.65s-1-.37-1.56-.55c-.25-.07-.49-.16-.76-.25-.63-.19-1.26-.36-1.91-.52s-1.29-.32-2-.46c-.2,0-.39-.09-.58-.11-.57-.12-1.15-.22-1.73-.31s-1-.16-1.54-.21l-.27,0a.62.62,0,0,0-.19,0,6.84,6.84,0,0,0-.9-.08.25.25,0,0,0-.12,0l-.42,0-.46,0-.91,0c-.73,0-1.45-.06-2.17-.06H1476.78q-1,0-2,.06a8,8,0,0,0-1,0h-.1c-.34,0-.67.05-1,.09s-.61.05-.91.08l-.19,0c-.48.05-1,.11-1.43.19l-.23,0-.33.05c-.65.09-1.28.21-1.92.34s-1.31.28-2,.45l-.46.13c-.44.1-.88.23-1.32.37s-.7.21-1,.31c-1.09.35-2.16.74-3.21,1.18-.53.21-1.06.44-1.57.69s-1,.44-1.42.68-.74.35-1.09.55l-.87.47-.19.11c-.51.3-1,.59-1.51.89s-.91.58-1.35.88l-.27.18c-.4.28-.79.54-1.18.84l-.94.72c-.39.29-.76.58-1.13.9h0s0,0,0,0l0,0-.14.12s-.09.07-.12.11a8.69,8.69,0,0,0-.93.81l0,0a.94.94,0,0,0-.16.14c-.19.15-.37.33-.56.51-.39.35-.76.7-1.12,1.07l-.22.21-1.37,1.44c-.42.48-.84.95-1.26,1.44s-1,1.29-1.53,1.95-.83,1.13-1.22,1.71-.8,1.21-1.17,1.83-.71,1.18-1,1.77-.55,1-.81,1.57c0,.05,0,.1-.07.16-.14.26-.26.52-.39.8-.51,1.1-1,2.2-1.4,3.33-.09.23-.18.45-.25.68-.19.55-.39,1.09-.54,1.64s-.37,1.23-.55,1.86c0,.21-.1.42-.16.63-.12.46-.23.92-.31,1.39a6.33,6.33,0,0,0-.16.78.37.37,0,0,0,0,.14,1.25,1.25,0,0,1,0,.19,5.5,5.5,0,0,0-.11.69s0,.05,0,.07,0,.07,0,.1c-.06.23-.09.46-.13.69s0,.3,0,.46a3.5,3.5,0,0,0-.1.66c-.07.53-.14,1.08-.18,1.62s-.09.83-.11,1.25V384c0,.21,0,.4,0,.61,0,.69,0,1.37,0,2.06v262A25.28,25.28,0,0,1,1406.49,674h-84.37c-1.53,0-3.06,0-4.57,0h-.18c-1.3,0-2.6-.07-3.9-.13l-1.25-.05c-1.1,0-2.21-.12-3.3-.19s-1.88-.13-2.82-.21-1.7-.13-2.54-.22-1.67-.15-2.52-.24-2-.21-2.93-.34h-.06c-.91-.1-1.79-.22-2.69-.35s-1.77-.24-2.67-.38l-2.67-.43c-1-.15-1.9-.31-2.85-.49q-.8-.13-1.56-.3a.91.91,0,0,1-.23,0l-.25-.06c-.12,0-.23,0-.35-.07l-.53-.1c-.19,0-.38-.07-.56-.12-.7-.14-1.41-.28-2.09-.44-1.15-.25-2.27-.51-3.4-.78-1.3-.31-2.6-.63-3.9-1l-1.18-.32h0l-.27-.07c-1.09-.3-2.16-.6-3.23-.93s-1.95-.58-2.92-.9c-.48-.14-.93-.3-1.39-.44-1.21-.4-2.43-.8-3.62-1.23l-.21-.07c-1.15-.42-2.29-.84-3.43-1.28l-1.28-.49c-1.08-.42-2.15-.85-3.2-1.29-1.3-.54-2.61-1.09-3.91-1.68s-2.58-1.16-3.86-1.78c-1.08-.51-2.13-1-3.19-1.56-.33-.16-.65-.32-1-.5-1.16-.59-2.3-1.19-3.45-1.82-.79-.43-1.58-.87-2.35-1.32l-.25-.14c-.21-.13-.44-.25-.65-.37-.53-.28-1-.58-1.55-.9-.17-.09-.35-.19-.52-.3l-2.11-1.26c-.92-.57-1.83-1.13-2.75-1.73l-.15-.1c-1.22-.78-2.41-1.57-3.61-2.38a1.28,1.28,0,0,1-.17-.1c-1.29-.88-2.57-1.76-3.84-2.67-2.56-1.83-5.1-3.77-7.59-5.75h0c-1.11-.9-2.18-1.76-3.25-2.68-.81-.66-1.6-1.33-2.39-2l-1.18-1c-1.09-1-2.16-1.93-3.25-2.91-2.25-2.06-4.49-4.21-6.68-6.4-.51-.51-1-1-1.52-1.55l-.35-.37c-.81-.83-1.61-1.67-2.41-2.5-1.58-1.67-3.13-3.36-4.62-5-.32-.35-.63-.71-.93-1.06s-.62-.7-.92-1.07L1185,610l-.22-.26-.09-.11s-.07-.09-.11-.12l-1.63-1.94s-.06,0-.07-.08c-.78-.94-1.53-1.85-2.27-2.78-.93-1.16-1.85-2.34-2.73-3.5-.75-1-1.49-2-2.21-3s-1.25-1.72-1.85-2.6c-.1-.14-.21-.27-.3-.41a1.7,1.7,0,0,1-.1-.14,3.5,3.5,0,0,1-.23-.35c-.18-.24-.35-.51-.53-.75s-.35-.51-.51-.76c-.75-1.12-1.49-2.23-2.21-3.36-.13-.19-.25-.38-.37-.58s-.16-.26-.25-.39l-.35-.56-1.28-2.07c-.55-.88-1.06-1.76-1.57-2.64-.42-.72-.84-1.44-1.25-2.18-.17-.32-.35-.61-.52-.93,0,0,0,0,0-.05a2.85,2.85,0,0,0-.16-.3l-.88-1.62c-.08-.16-.17-.32-.26-.47-.18-.32-.33-.64-.51-1l-.37-.74c0-.05-.05-.09-.07-.14s0,0,0-.05a0,0,0,0,1,0,0s0,0,0,0,0,0,0,0-.17-.32-.24-.48c-.57-1.09-1.11-2.19-1.64-3.3l-.58-1.23c-.45-.95-.89-1.92-1.33-2.88-.06-.15-.13-.27-.18-.41-.54-1.21-1.07-2.43-1.58-3.66s-1-2.37-1.43-3.55c-.37-.95-.72-1.88-1.07-2.83-.09-.26-.19-.51-.28-.77-.25-.67-.47-1.35-.72-2-.39-1.11-.76-2.23-1.13-3.38l-.87-2.79c-.11-.37-.22-.72-.32-1.09-.37-1.28-.74-2.57-1.09-3.87,0,0,0-.07,0-.11-.26-1-.52-2-.77-3l-.16-.65c-.1-.42-.21-.86-.3-1.28-.26-1.09-.52-2.2-.75-3.33a2.88,2.88,0,0,1-.09-.4c-.28-1.27-.53-2.53-.77-3.81a.16.16,0,0,0,0-.09c-.23-1.23-.46-2.48-.65-3.73-.06-.23-.09-.46-.13-.7-.19-1.23-.38-2.46-.56-3.69,0-.27-.07-.51-.1-.78-.18-1.26-.34-2.51-.48-3.78,0-.49-.1-1-.16-1.46-.12-1.11-.23-2.21-.33-3.34-.14-1.49-.25-3-.35-4.5-.09-1.23-.16-2.48-.21-3.73,0-.51-.06-1-.07-1.53,0-.1,0-.19,0-.29,0-1.18-.09-2.36-.11-3.54v-.17c0-1.52,0-3,0-4.54s0-3,0-4.52c0-1.09.06-2.18.09-3.27,0-.16,0-.31,0-.47a1.23,1.23,0,0,1,0-.27c0-.73.05-1.46.1-2.19,0-1.2.13-2.39.21-3.59s.2-2.67.32-4c.12-1.5.28-3,.46-4.45.12-1.16.26-2.32.42-3.46.07-.48.12-.95.19-1.43.39-2.76.83-5.48,1.36-8.19.26-1.42.54-2.85.86-4.25q.88-4.25,2-8.39c.37-1.39.75-2.78,1.18-4.13s.82-2.74,1.26-4.08c.88-2.71,1.83-5.38,2.85-8,.48-1.27,1-2.54,1.51-3.78a1.09,1.09,0,0,1,.13-.3q1.57-3.88,3.41-7.65c.49-1.05,1-2.09,1.54-3.13.25-.51.5-1,.76-1.49.49-1,1-1.94,1.53-2.89a.6.6,0,0,1,.09-.15c.54-1,1.09-2,1.67-3l.67-1.2c.45-.77.91-1.55,1.38-2.32,0,0,.06-.09.07-.12.3-.51.62-1,1-1.53a4.64,4.64,0,0,1,.25-.42c.44-.69.86-1.38,1.3-2,.16-.27.33-.53.51-.8.44-.66.88-1.33,1.34-2l.08-.14a4.33,4.33,0,0,1,.27-.37c.24-.4.53-.81.81-1.19.63-.95,1.28-1.87,2-2.8,1.51-2.11,3.07-4.2,4.71-6.26.74-1,1.51-1.92,2.29-2.86.61-.76,1.23-1.52,1.88-2.25s1.21-1.45,1.84-2.15,1.37-1.58,2.09-2.37c.34-.37.66-.76,1-1.13s.67-.74,1-1.11c.89-1,1.79-1.93,2.74-2.9s2.14-2.21,3.25-3.32,2.2-2.18,3.32-3.25,2.36-2.25,3.56-3.34c.91-.83,1.82-1.64,2.74-2.45s1.65-1.44,2.48-2.12q1.71-1.49,3.43-2.87h0c1-.81,2-1.6,3-2.37s2-1.55,3-2.31l3-2.19c1-.72,2-1.43,3-2.13,2.14-1.46,4.32-2.88,6.52-4.24.63-.38,1.26-.79,1.91-1.16s1.11-.68,1.67-1l.15-.09,1.58-.91.26-.14q.63-.37,1.23-.69l.2-.1c.68-.39,1.35-.76,2-1.11a0,0,0,0,1,0,0l.2-.1.17-.09c1.06-.56,2.11-1.11,3.17-1.65s2.12-1.08,3.2-1.59c2.32-1.1,4.65-2.14,7-3.13.72-.31,1.42-.59,2.15-.87.49-.22,1-.41,1.47-.6.95-.37,1.88-.74,2.85-1.09l1.79-.67,1.41-.48.12-.05,3-1,2.45-.77c1.7-.53,3.42-1,5.16-1.5l1.13-.3c.39-.1.76-.21,1.14-.3a2.29,2.29,0,0,0,.28-.07l1.48-.37c.9-.22,1.81-.44,2.71-.63.21-.07.42-.1.63-.16.91-.19,1.81-.4,2.73-.58.63-.14,1.24-.26,1.88-.38l1.91-.37c.51-.09,1-.2,1.55-.27.9-.15,1.81-.31,2.72-.45,2.47-.41,5-.76,7.49-1q.93-.14,1.89-.21c.63-.07,1.26-.12,1.89-.2h.06c.93-.1,1.86-.17,2.81-.24.63-.07,1.27-.12,1.92-.16s1.33-.11,2-.12,1.37-.11,2.07-.13,1.43-.08,2.13-.1c1.29,0,2.59-.09,3.89-.12h.07q2.29-.06,4.62-.06l82.35-.17,298.89-.65a45.16,45.16,0,0,0,40.7-26A45.06,45.06,0,0,0,1785.09,316.22ZM1214.74,672.69c-2.13-4.66-5.29-4.64-8.77-3.62,3.41,2.35,6.87,4.59,10.39,6.68A24.42,24.42,0,0,1,1214.74,672.69Zm217-281.68v51.53c12.39,30.42,12.2,62.13,0,94.16v112A25.28,25.28,0,0,1,1406.49,674h-84.37c-1.53,0-3.06,0-4.57,0h-.18c-1.3,0-2.6-.07-3.9-.13l-1.25-.05c-1.1,0-2.21-.12-3.3-.19s-1.88-.13-2.82-.21-1.7-.13-2.54-.22-1.67-.15-2.52-.24-2-.21-2.93-.34h-.06q-26.41,5.94-52.84,11.82a48.42,48.42,0,0,1-10.1,1.28q39.69,18.36,87,18.34h84.37a55.28,55.28,0,0,0,55.27-55.29V393.54A171.2,171.2,0,0,1,1431.74,391Zm0,51.53V536.7C1443.94,504.67,1444.13,473,1431.74,442.54ZM1740,360.65l-.21-.28c-.16-.23-.32-.44-.49-.67s-.14-.21-.21-.3c-.35-.46-.71-.89-1.08-1.33s-.93-1.11-1.4-1.64-.93-1-1.41-1.48l-.09-.08c-.58-.58-1.19-1.16-1.81-1.71s-1.32-1.14-2-1.67c-.48-.39-1-.76-1.46-1.12a49.87,49.87,0,0,0-4.68-3l-.17-.09-.81-.42a1.13,1.13,0,0,0-.21-.12c-.44-.23-.88-.44-1.32-.65s-.92-.44-1.39-.65l-.18-.07a6.35,6.35,0,0,0-.67-.28c-.56-.23-1.1-.44-1.67-.65s-1-.37-1.56-.55c-.25-.07-.49-.16-.76-.25-.63-.19-1.26-.36-1.91-.52s-1.29-.32-2-.46c-.2,0-.39-.09-.58-.11-.57-.12-1.15-.22-1.73-.31s-1-.16-1.54-.21l-.27,0a.62.62,0,0,0-.19,0,6.84,6.84,0,0,0-.9-.08.25.25,0,0,0-.12,0l-.42,0-.46,0-.91,0c-.73,0-1.45-.06-2.17-.06H1476.78q-1,0-2,.06a8,8,0,0,0-1,0h-.1c-.34,0-.67.05-1,.09s-.61.05-.91.08l-.19,0c-.48.05-1,.11-1.43.19l-.23,0-.33.05c-.65.09-1.28.21-1.92.34s-1.31.28-2,.45l-.46.13c-.44.1-.88.23-1.32.37s-.7.21-1,.31c-1.09.35-2.16.74-3.21,1.18-.53.21-1.06.44-1.57.69s-1,.44-1.42.68-.74.35-1.09.55l-.87.47-.19.11c-.51.3-1,.59-1.51.89s-.91.58-1.35.88l-.27.18c-.4.28-.79.54-1.18.84l-.94.72c-.39.29-.76.58-1.13.9h0s0,0,0,0l0,0-.14.12s-.09.07-.12.11a8.69,8.69,0,0,0-.93.81l0,0a.94.94,0,0,0-.16.14c-.19.15-.37.33-.56.51-.39.35-.76.7-1.12,1.07l-.22.21-1.37,1.44c-.42.48-.84.95-1.26,1.44s-1,1.29-1.53,1.95-.83,1.13-1.22,1.71-.8,1.21-1.17,1.83-.71,1.18-1,1.77-.55,1-.81,1.57c0,.05,0,.1-.07.16-.14.26-.26.52-.39.8-.51,1.1-1,2.2-1.4,3.33-.09.23-.18.45-.25.68-.19.55-.39,1.09-.54,1.64s-.37,1.23-.55,1.86c0,.21-.1.42-.16.63-.12.46-.23.92-.31,1.39a6.33,6.33,0,0,0-.16.78.37.37,0,0,0,0,.14,1.25,1.25,0,0,1,0,.19,5.5,5.5,0,0,0-.11.69s0,.05,0,.07,0,.07,0,.1c-.06.23-.09.46-.13.69s0,.3,0,.46a3.5,3.5,0,0,0-.1.66c-.07.53-.14,1.08-.18,1.62s-.09.83-.11,1.25V384c0,.21,0,.4,0,.61,0,.69,0,1.37,0,2.06V391a171.2,171.2,0,0,0,30,2.53v-6.85a15,15,0,0,1,4.58-10.8h0a15,15,0,0,1,10.43-4.2H1694.3l.07,0q22.92-5.32,45.82-10.79Zm-525.29,312c-2.13-4.66-5.29-4.64-8.77-3.62,3.41,2.35,6.87,4.59,10.39,6.68A24.42,24.42,0,0,1,1214.74,672.69Zm217-281.68v51.53c12.39,30.42,12.2,62.13,0,94.16v112A25.28,25.28,0,0,1,1406.49,674h-84.37c-1.53,0-3.06,0-4.57,0h-.18c-1.3,0-2.6-.07-3.9-.13l-1.25-.05c-1.1,0-2.21-.12-3.3-.19s-1.88-.13-2.82-.21-1.7-.13-2.54-.22-1.67-.15-2.52-.24-2-.21-2.93-.34h-.06q-26.41,5.94-52.84,11.82a48.42,48.42,0,0,1-10.1,1.28q39.69,18.36,87,18.34h84.37a55.28,55.28,0,0,0,55.27-55.29V393.54A171.2,171.2,0,0,1,1431.74,391Zm0,51.53V536.7C1443.94,504.67,1444.13,473,1431.74,442.54ZM1740,360.65l-.21-.28c-.16-.23-.32-.44-.49-.67s-.14-.21-.21-.3c-.35-.46-.71-.89-1.08-1.33s-.93-1.11-1.4-1.64-.93-1-1.41-1.48l-.09-.08c-.58-.58-1.19-1.16-1.81-1.71s-1.32-1.14-2-1.67c-.48-.39-1-.76-1.46-1.12a49.87,49.87,0,0,0-4.68-3l-.17-.09-.81-.42a1.13,1.13,0,0,0-.21-.12c-.44-.23-.88-.44-1.32-.65s-.92-.44-1.39-.65l-.18-.07a6.35,6.35,0,0,0-.67-.28c-.56-.23-1.1-.44-1.67-.65s-1-.37-1.56-.55c-.25-.07-.49-.16-.76-.25-.63-.19-1.26-.36-1.91-.52s-1.29-.32-2-.46c-.2,0-.39-.09-.58-.11-.57-.12-1.15-.22-1.73-.31s-1-.16-1.54-.21l-.27,0a.62.62,0,0,0-.19,0,6.84,6.84,0,0,0-.9-.08.25.25,0,0,0-.12,0l-.42,0-.46,0-.91,0c-.73,0-1.45-.06-2.17-.06H1476.78q-1,0-2,.06a8,8,0,0,0-1,0h-.1c-.34,0-.67.05-1,.09s-.61.05-.91.08l-.19,0c-.48.05-1,.11-1.43.19l-.23,0-.33.05c-.65.09-1.28.21-1.92.34s-1.31.28-2,.45l-.46.13c-.44.1-.88.23-1.32.37s-.7.21-1,.31c-1.09.35-2.16.74-3.21,1.18-.53.21-1.06.44-1.57.69s-1,.44-1.42.68-.74.35-1.09.55l-.87.47-.19.11c-.51.3-1,.59-1.51.89s-.91.58-1.35.88l-.27.18c-.4.28-.79.54-1.18.84l-.94.72c-.39.29-.76.58-1.13.9h0s0,0,0,0l0,0-.14.12s-.09.07-.12.11a8.69,8.69,0,0,0-.93.81l0,0a.94.94,0,0,0-.16.14c-.19.15-.37.33-.56.51-.39.35-.76.7-1.12,1.07l-.22.21-1.37,1.44c-.42.48-.84.95-1.26,1.44s-1,1.29-1.53,1.95-.83,1.13-1.22,1.71-.8,1.21-1.17,1.83-.71,1.18-1,1.77-.55,1-.81,1.57c0,.05,0,.1-.07.16-.14.26-.26.52-.39.8-.51,1.1-1,2.2-1.4,3.33-.09.23-.18.45-.25.68-.19.55-.39,1.09-.54,1.64s-.37,1.23-.55,1.86c0,.21-.1.42-.16.63-.12.46-.23.92-.31,1.39a6.33,6.33,0,0,0-.16.78.37.37,0,0,0,0,.14,1.25,1.25,0,0,1,0,.19,5.5,5.5,0,0,0-.11.69s0,.05,0,.07,0,.07,0,.1c-.06.23-.09.46-.13.69s0,.3,0,.46a3.5,3.5,0,0,0-.1.66c-.07.53-.14,1.08-.18,1.62s-.09.83-.11,1.25V384c0,.21,0,.4,0,.61,0,.69,0,1.37,0,2.06V391a171.2,171.2,0,0,0,30,2.53v-6.85a15,15,0,0,1,4.58-10.8h0a15,15,0,0,1,10.43-4.2H1694.3l.07,0q22.92-5.32,45.82-10.79Zm-525.29,312c-2.13-4.66-5.29-4.64-8.77-3.62,3.41,2.35,6.87,4.59,10.39,6.68A24.42,24.42,0,0,1,1214.74,672.69Zm217-281.68v51.53c12.39,30.42,12.2,62.13,0,94.16v112A25.28,25.28,0,0,1,1406.49,674h-84.37c-1.53,0-3.06,0-4.57,0h-.18c-1.3,0-2.6-.07-3.9-.13l-1.25-.05c-1.1,0-2.21-.12-3.3-.19s-1.88-.13-2.82-.21-1.7-.13-2.54-.22-1.67-.15-2.52-.24-2-.21-2.93-.34h-.06q-26.41,5.94-52.84,11.82a48.42,48.42,0,0,1-10.1,1.28q39.69,18.36,87,18.34h84.37a55.28,55.28,0,0,0,55.27-55.29V393.54A171.2,171.2,0,0,1,1431.74,391Zm0,51.53V536.7C1443.94,504.67,1444.13,473,1431.74,442.54ZM1740,360.65l-.21-.28c-.16-.23-.32-.44-.49-.67s-.14-.21-.21-.3c-.35-.46-.71-.89-1.08-1.33s-.93-1.11-1.4-1.64-.93-1-1.41-1.48l-.09-.08c-.58-.58-1.19-1.16-1.81-1.71s-1.32-1.14-2-1.67c-.48-.39-1-.76-1.46-1.12a49.87,49.87,0,0,0-4.68-3l-.17-.09-.81-.42a1.13,1.13,0,0,0-.21-.12c-.44-.23-.88-.44-1.32-.65s-.92-.44-1.39-.65l-.18-.07a6.35,6.35,0,0,0-.67-.28c-.56-.23-1.1-.44-1.67-.65s-1-.37-1.56-.55c-.25-.07-.49-.16-.76-.25-.63-.19-1.26-.36-1.91-.52s-1.29-.32-2-.46c-.2,0-.39-.09-.58-.11-.57-.12-1.15-.22-1.73-.31s-1-.16-1.54-.21l-.27,0a.62.62,0,0,0-.19,0,6.84,6.84,0,0,0-.9-.08.25.25,0,0,0-.12,0l-.42,0-.46,0-.91,0c-.73,0-1.45-.06-2.17-.06H1476.78q-1,0-2,.06a8,8,0,0,0-1,0h-.1c-.34,0-.67.05-1,.09s-.61.05-.91.08l-.19,0c-.48.05-1,.11-1.43.19l-.23,0-.33.05c-.65.09-1.28.21-1.92.34s-1.31.28-2,.45l-.46.13c-.44.1-.88.23-1.32.37s-.7.21-1,.31c-1.09.35-2.16.74-3.21,1.18-.53.21-1.06.44-1.57.69s-1,.44-1.42.68-.74.35-1.09.55l-.87.47-.19.11c-.51.3-1,.59-1.51.89s-.91.58-1.35.88l-.27.18c-.4.28-.79.54-1.18.84l-.94.72c-.39.29-.76.58-1.13.9h0s0,0,0,0l0,0-.14.12s-.09.07-.12.11a8.69,8.69,0,0,0-.93.81l0,0a.94.94,0,0,0-.16.14c-.19.15-.37.33-.56.51-.39.35-.76.7-1.12,1.07l-.22.21-1.37,1.44c-.42.48-.84.95-1.26,1.44s-1,1.29-1.53,1.95-.83,1.13-1.22,1.71-.8,1.21-1.17,1.83-.71,1.18-1,1.77-.55,1-.81,1.57c0,.05,0,.1-.07.16-.14.26-.26.52-.39.8-.51,1.1-1,2.2-1.4,3.33-.09.23-.18.45-.25.68-.19.55-.39,1.09-.54,1.64s-.37,1.23-.55,1.86c0,.21-.1.42-.16.63-.12.46-.23.92-.31,1.39a6.33,6.33,0,0,0-.16.78.37.37,0,0,0,0,.14,1.25,1.25,0,0,1,0,.19,5.5,5.5,0,0,0-.11.69s0,.05,0,.07,0,.07,0,.1c-.06.23-.09.46-.13.69s0,.3,0,.46a3.5,3.5,0,0,0-.1.66c-.07.53-.14,1.08-.18,1.62s-.09.83-.11,1.25V384c0,.21,0,.4,0,.61,0,.69,0,1.37,0,2.06V391a171.2,171.2,0,0,0,30,2.53v-6.85a15,15,0,0,1,4.58-10.8h0a15,15,0,0,1,10.43-4.2H1694.3l.07,0q22.92-5.32,45.82-10.79Zm-525.29,312c-2.13-4.66-5.29-4.64-8.77-3.62,3.41,2.35,6.87,4.59,10.39,6.68A24.42,24.42,0,0,1,1214.74,672.69Zm217-281.68v51.53c12.39,30.42,12.2,62.13,0,94.16v112A25.28,25.28,0,0,1,1406.49,674h-84.37c-1.53,0-3.06,0-4.57,0h-.18c-1.3,0-2.6-.07-3.9-.13l-1.25-.05c-1.1,0-2.21-.12-3.3-.19s-1.88-.13-2.82-.21-1.7-.13-2.54-.22-1.67-.15-2.52-.24-2-.21-2.93-.34h-.06q-26.41,5.94-52.84,11.82a48.42,48.42,0,0,1-10.1,1.28q39.69,18.36,87,18.34h84.37a55.28,55.28,0,0,0,55.27-55.29V393.54A171.2,171.2,0,0,1,1431.74,391Zm0,51.53V536.7C1443.94,504.67,1444.13,473,1431.74,442.54ZM1740,360.65l-.21-.28c-.16-.23-.32-.44-.49-.67s-.14-.21-.21-.3c-.35-.46-.71-.89-1.08-1.33s-.93-1.11-1.4-1.64-.93-1-1.41-1.48l-.09-.08c-.58-.58-1.19-1.16-1.81-1.71s-1.32-1.14-2-1.67c-.48-.39-1-.76-1.46-1.12a49.87,49.87,0,0,0-4.68-3l-.17-.09-.81-.42a1.13,1.13,0,0,0-.21-.12c-.44-.23-.88-.44-1.32-.65s-.92-.44-1.39-.65l-.18-.07a6.35,6.35,0,0,0-.67-.28c-.56-.23-1.1-.44-1.67-.65s-1-.37-1.56-.55c-.25-.07-.49-.16-.76-.25-.63-.19-1.26-.36-1.91-.52s-1.29-.32-2-.46c-.2,0-.39-.09-.58-.11-.57-.12-1.15-.22-1.73-.31s-1-.16-1.54-.21l-.27,0a.62.62,0,0,0-.19,0,6.84,6.84,0,0,0-.9-.08.25.25,0,0,0-.12,0l-.42,0-.46,0-.91,0c-.73,0-1.45-.06-2.17-.06H1476.78q-1,0-2,.06a8,8,0,0,0-1,0h-.1c-.34,0-.67.05-1,.09s-.61.05-.91.08l-.19,0c-.48.05-1,.11-1.43.19l-.23,0-.33.05c-.65.09-1.28.21-1.92.34s-1.31.28-2,.45l-.46.13c-.44.1-.88.23-1.32.37s-.7.21-1,.31c-1.09.35-2.16.74-3.21,1.18-.53.21-1.06.44-1.57.69s-1,.44-1.42.68-.74.35-1.09.55l-.87.47-.19.11c-.51.3-1,.59-1.51.89s-.91.58-1.35.88l-.27.18c-.4.28-.79.54-1.18.84l-.94.72c-.39.29-.76.58-1.13.9h0s0,0,0,0l0,0-.14.12s-.09.07-.12.11a8.69,8.69,0,0,0-.93.81l0,0a.94.94,0,0,0-.16.14c-.19.15-.37.33-.56.51-.39.35-.76.7-1.12,1.07l-.22.21-1.37,1.44c-.42.48-.84.95-1.26,1.44s-1,1.29-1.53,1.95-.83,1.13-1.22,1.71-.8,1.21-1.17,1.83-.71,1.18-1,1.77-.55,1-.81,1.57c0,.05,0,.1-.07.16-.14.26-.26.52-.39.8-.51,1.1-1,2.2-1.4,3.33-.09.23-.18.45-.25.68-.19.55-.39,1.09-.54,1.64s-.37,1.23-.55,1.86c0,.21-.1.42-.16.63-.12.46-.23.92-.31,1.39a6.33,6.33,0,0,0-.16.78.37.37,0,0,0,0,.14,1.25,1.25,0,0,1,0,.19,5.5,5.5,0,0,0-.11.69s0,.05,0,.07,0,.07,0,.1c-.06.23-.09.46-.13.69s0,.3,0,.46a3.5,3.5,0,0,0-.1.66c-.07.53-.14,1.08-.18,1.62s-.09.83-.11,1.25V384c0,.21,0,.4,0,.61,0,.69,0,1.37,0,2.06V391a171.2,171.2,0,0,0,30,2.53v-6.85a15,15,0,0,1,4.58-10.8h0a15,15,0,0,1,10.43-4.2H1694.3l.07,0q22.92-5.32,45.82-10.79Zm-525.29,312c-2.13-4.66-5.29-4.64-8.77-3.62,3.41,2.35,6.87,4.59,10.39,6.68A24.42,24.42,0,0,1,1214.74,672.69Zm217-281.68v51.53c12.39,30.42,12.2,62.13,0,94.16v112A25.28,25.28,0,0,1,1406.49,674h-84.37c-1.53,0-3.06,0-4.57,0h-.18c-1.3,0-2.6-.07-3.9-.13l-1.25-.05c-1.1,0-2.21-.12-3.3-.19s-1.88-.13-2.82-.21-1.7-.13-2.54-.22-1.67-.15-2.52-.24-2-.21-2.93-.34h-.06q-26.41,5.94-52.84,11.82a48.42,48.42,0,0,1-10.1,1.28q39.69,18.36,87,18.34h84.37a55.28,55.28,0,0,0,55.27-55.29V393.54A171.2,171.2,0,0,1,1431.74,391Zm0,51.53V536.7C1443.94,504.67,1444.13,473,1431.74,442.54ZM1740,360.65l-.21-.28c-.16-.23-.32-.44-.49-.67s-.14-.21-.21-.3c-.35-.46-.71-.89-1.08-1.33s-.93-1.11-1.4-1.64-.93-1-1.41-1.48l-.09-.08c-.58-.58-1.19-1.16-1.81-1.71s-1.32-1.14-2-1.67c-.48-.39-1-.76-1.46-1.12a49.87,49.87,0,0,0-4.68-3l-.17-.09-.81-.42a1.13,1.13,0,0,0-.21-.12c-.44-.23-.88-.44-1.32-.65s-.92-.44-1.39-.65l-.18-.07a6.35,6.35,0,0,0-.67-.28c-.56-.23-1.1-.44-1.67-.65s-1-.37-1.56-.55c-.25-.07-.49-.16-.76-.25-.63-.19-1.26-.36-1.91-.52s-1.29-.32-2-.46c-.2,0-.39-.09-.58-.11-.57-.12-1.15-.22-1.73-.31s-1-.16-1.54-.21l-.27,0a.62.62,0,0,0-.19,0,6.84,6.84,0,0,0-.9-.08.25.25,0,0,0-.12,0l-.42,0-.46,0-.91,0c-.73,0-1.45-.06-2.17-.06H1476.78q-1,0-2,.06a8,8,0,0,0-1,0h-.1c-.34,0-.67.05-1,.09s-.61.05-.91.08l-.19,0c-.48.05-1,.11-1.43.19l-.23,0-.33.05c-.65.09-1.28.21-1.92.34s-1.31.28-2,.45l-.46.13c-.44.1-.88.23-1.32.37s-.7.21-1,.31c-1.09.35-2.16.74-3.21,1.18-.53.21-1.06.44-1.57.69s-1,.44-1.42.68-.74.35-1.09.55l-.87.47-.19.11c-.51.3-1,.59-1.51.89s-.91.58-1.35.88l-.27.18c-.4.28-.79.54-1.18.84l-.94.72c-.39.29-.76.58-1.13.9h0s0,0,0,0l0,0-.14.12s-.09.07-.12.11a8.69,8.69,0,0,0-.93.81l0,0a.94.94,0,0,0-.16.14c-.19.15-.37.33-.56.51-.39.35-.76.7-1.12,1.07l-.22.21-1.37,1.44c-.42.48-.84.95-1.26,1.44s-1,1.29-1.53,1.95-.83,1.13-1.22,1.71-.8,1.21-1.17,1.83-.71,1.18-1,1.77-.55,1-.81,1.57c0,.05,0,.1-.07.16-.14.26-.26.52-.39.8-.51,1.1-1,2.2-1.4,3.33-.09.23-.18.45-.25.68-.19.55-.39,1.09-.54,1.64s-.37,1.23-.55,1.86c0,.21-.1.42-.16.63-.12.46-.23.92-.31,1.39a6.33,6.33,0,0,0-.16.78.37.37,0,0,0,0,.14,1.25,1.25,0,0,1,0,.19,5.5,5.5,0,0,0-.11.69s0,.05,0,.07,0,.07,0,.1c-.06.23-.09.46-.13.69s0,.3,0,.46a3.5,3.5,0,0,0-.1.66c-.07.53-.14,1.08-.18,1.62s-.09.83-.11,1.25V384c0,.21,0,.4,0,.61,0,.69,0,1.37,0,2.06V391a171.2,171.2,0,0,0,30,2.53v-6.85a15,15,0,0,1,4.58-10.8h0a15,15,0,0,1,10.43-4.2H1694.3l.07,0q22.92-5.32,45.82-10.79Zm-525.29,312c-2.13-4.66-5.29-4.64-8.77-3.62,3.41,2.35,6.87,4.59,10.39,6.68A24.42,24.42,0,0,1,1214.74,672.69Zm217-281.68v51.53c12.39,30.42,12.2,62.13,0,94.16v112A25.28,25.28,0,0,1,1406.49,674h-84.37c-1.53,0-3.06,0-4.57,0h-.18c-1.3,0-2.6-.07-3.9-.13l-1.25-.05c-1.1,0-2.21-.12-3.3-.19s-1.88-.13-2.82-.21-1.7-.13-2.54-.22-1.67-.15-2.52-.24-2-.21-2.93-.34h-.06q-26.41,5.94-52.84,11.82a48.42,48.42,0,0,1-10.1,1.28q39.69,18.36,87,18.34h84.37a55.28,55.28,0,0,0,55.27-55.29V393.54A171.2,171.2,0,0,1,1431.74,391Zm0,51.53V536.7C1443.94,504.67,1444.13,473,1431.74,442.54ZM1740,360.65l-.21-.28c-.16-.23-.32-.44-.49-.67s-.14-.21-.21-.3c-.35-.46-.71-.89-1.08-1.33s-.93-1.11-1.4-1.64-.93-1-1.41-1.48l-.09-.08c-.58-.58-1.19-1.16-1.81-1.71s-1.32-1.14-2-1.67c-.48-.39-1-.76-1.46-1.12a49.87,49.87,0,0,0-4.68-3l-.17-.09-.81-.42a1.13,1.13,0,0,0-.21-.12c-.44-.23-.88-.44-1.32-.65s-.92-.44-1.39-.65l-.18-.07a6.35,6.35,0,0,0-.67-.28c-.56-.23-1.1-.44-1.67-.65s-1-.37-1.56-.55c-.25-.07-.49-.16-.76-.25-.63-.19-1.26-.36-1.91-.52s-1.29-.32-2-.46c-.2,0-.39-.09-.58-.11-.57-.12-1.15-.22-1.73-.31s-1-.16-1.54-.21l-.27,0a.62.62,0,0,0-.19,0,6.84,6.84,0,0,0-.9-.08.25.25,0,0,0-.12,0l-.42,0-.46,0-.91,0c-.73,0-1.45-.06-2.17-.06H1476.78q-1,0-2,.06a8,8,0,0,0-1,0h-.1c-.34,0-.67.05-1,.09s-.61.05-.91.08l-.19,0c-.48.05-1,.11-1.43.19l-.23,0-.33.05c-.65.09-1.28.21-1.92.34s-1.31.28-2,.45l-.46.13c-.44.1-.88.23-1.32.37s-.7.21-1,.31c-1.09.35-2.16.74-3.21,1.18-.53.21-1.06.44-1.57.69s-1,.44-1.42.68-.74.35-1.09.55l-.87.47-.19.11c-.51.3-1,.59-1.51.89s-.91.58-1.35.88l-.27.18c-.4.28-.79.54-1.18.84l-.94.72c-.39.29-.76.58-1.13.9h0s0,0,0,0l0,0-.14.12s-.09.07-.12.11a8.69,8.69,0,0,0-.93.81l0,0a.94.94,0,0,0-.16.14c-.19.15-.37.33-.56.51-.39.35-.76.7-1.12,1.07l-.22.21-1.37,1.44c-.42.48-.84.95-1.26,1.44s-1,1.29-1.53,1.95-.83,1.13-1.22,1.71-.8,1.21-1.17,1.83-.71,1.18-1,1.77-.55,1-.81,1.57c0,.05,0,.1-.07.16-.14.26-.26.52-.39.8-.51,1.1-1,2.2-1.4,3.33-.09.23-.18.45-.25.68-.19.55-.39,1.09-.54,1.64s-.37,1.23-.55,1.86c0,.21-.1.42-.16.63-.12.46-.23.92-.31,1.39a6.33,6.33,0,0,0-.16.78.37.37,0,0,0,0,.14,1.25,1.25,0,0,1,0,.19,5.5,5.5,0,0,0-.11.69s0,.05,0,.07,0,.07,0,.1c-.06.23-.09.46-.13.69s0,.3,0,.46a3.5,3.5,0,0,0-.1.66c-.07.53-.14,1.08-.18,1.62s-.09.83-.11,1.25V384c0,.21,0,.4,0,.61,0,.69,0,1.37,0,2.06V391a171.2,171.2,0,0,0,30,2.53v-6.85a15,15,0,0,1,4.58-10.8h0a15,15,0,0,1,10.43-4.2H1694.3l.07,0q22.92-5.32,45.82-10.79Zm-525.29,312c-2.13-4.66-5.29-4.64-8.77-3.62,3.41,2.35,6.87,4.59,10.39,6.68A24.42,24.42,0,0,1,1214.74,672.69Zm217-281.68v51.53c12.39,30.42,12.2,62.13,0,94.16v112A25.28,25.28,0,0,1,1406.49,674h-84.37c-1.53,0-3.06,0-4.57,0h-.18c-1.3,0-2.6-.07-3.9-.13l-1.25-.05c-1.1,0-2.21-.12-3.3-.19s-1.88-.13-2.82-.21-1.7-.13-2.54-.22-1.67-.15-2.52-.24-2-.21-2.93-.34h-.06q-26.41,5.94-52.84,11.82a48.42,48.42,0,0,1-10.1,1.28q39.69,18.36,87,18.34h84.37a55.28,55.28,0,0,0,55.27-55.29V393.54A171.2,171.2,0,0,1,1431.74,391Zm0,51.53V536.7C1443.94,504.67,1444.13,473,1431.74,442.54ZM1740,360.65l-.21-.28c-.16-.23-.32-.44-.49-.67s-.14-.21-.21-.3c-.35-.46-.71-.89-1.08-1.33s-.93-1.11-1.4-1.64-.93-1-1.41-1.48l-.09-.08c-.58-.58-1.19-1.16-1.81-1.71s-1.32-1.14-2-1.67c-.48-.39-1-.76-1.46-1.12a49.87,49.87,0,0,0-4.68-3l-.17-.09-.81-.42a1.13,1.13,0,0,0-.21-.12c-.44-.23-.88-.44-1.32-.65s-.92-.44-1.39-.65l-.18-.07a6.35,6.35,0,0,0-.67-.28c-.56-.23-1.1-.44-1.67-.65s-1-.37-1.56-.55c-.25-.07-.49-.16-.76-.25-.63-.19-1.26-.36-1.91-.52s-1.29-.32-2-.46c-.2,0-.39-.09-.58-.11-.57-.12-1.15-.22-1.73-.31s-1-.16-1.54-.21l-.27,0a.62.62,0,0,0-.19,0,6.84,6.84,0,0,0-.9-.08.25.25,0,0,0-.12,0l-.42,0-.46,0-.91,0c-.73,0-1.45-.06-2.17-.06H1476.78q-1,0-2,.06a8,8,0,0,0-1,0h-.1c-.34,0-.67.05-1,.09s-.61.05-.91.08l-.19,0c-.48.05-1,.11-1.43.19l-.23,0-.33.05c-.65.09-1.28.21-1.92.34s-1.31.28-2,.45l-.46.13c-.44.1-.88.23-1.32.37s-.7.21-1,.31c-1.09.35-2.16.74-3.21,1.18-.53.21-1.06.44-1.57.69s-1,.44-1.42.68-.74.35-1.09.55l-.87.47-.19.11c-.51.3-1,.59-1.51.89s-.91.58-1.35.88l-.27.18c-.4.28-.79.54-1.18.84l-.94.72c-.39.29-.76.58-1.13.9h0s0,0,0,0l0,0-.14.12s-.09.07-.12.11a8.69,8.69,0,0,0-.93.81l0,0a.94.94,0,0,0-.16.14c-.19.15-.37.33-.56.51-.39.35-.76.7-1.12,1.07l-.22.21-1.37,1.44c-.42.48-.84.95-1.26,1.44s-1,1.29-1.53,1.95-.83,1.13-1.22,1.71-.8,1.21-1.17,1.83-.71,1.18-1,1.77-.55,1-.81,1.57c0,.05,0,.1-.07.16-.14.26-.26.52-.39.8-.51,1.1-1,2.2-1.4,3.33-.09.23-.18.45-.25.68-.19.55-.39,1.09-.54,1.64s-.37,1.23-.55,1.86c0,.21-.1.42-.16.63-.12.46-.23.92-.31,1.39a6.33,6.33,0,0,0-.16.78.37.37,0,0,0,0,.14,1.25,1.25,0,0,1,0,.19,5.5,5.5,0,0,0-.11.69s0,.05,0,.07,0,.07,0,.1c-.06.23-.09.46-.13.69s0,.3,0,.46a3.5,3.5,0,0,0-.1.66c-.07.53-.14,1.08-.18,1.62s-.09.83-.11,1.25V384c0,.21,0,.4,0,.61,0,.69,0,1.37,0,2.06V391a171.2,171.2,0,0,0,30,2.53v-6.85a15,15,0,0,1,4.58-10.8h0a15,15,0,0,1,10.43-4.2H1694.3l.07,0q22.92-5.32,45.82-10.79Zm-525.29,312c-2.13-4.66-5.29-4.64-8.77-3.62,3.41,2.35,6.87,4.59,10.39,6.68A24.42,24.42,0,0,1,1214.74,672.69Zm217-281.68v51.53c12.39,30.42,12.2,62.13,0,94.16v112A25.28,25.28,0,0,1,1406.49,674h-84.37c-1.53,0-3.06,0-4.57,0h-.18c-1.3,0-2.6-.07-3.9-.13l-1.25-.05c-1.1,0-2.21-.12-3.3-.19s-1.88-.13-2.82-.21-1.7-.13-2.54-.22-1.67-.15-2.52-.24-2-.21-2.93-.34h-.06q-26.41,5.94-52.84,11.82a48.42,48.42,0,0,1-10.1,1.28q39.69,18.36,87,18.34h84.37a55.28,55.28,0,0,0,55.27-55.29V393.54A171.2,171.2,0,0,1,1431.74,391Zm0,51.53V536.7C1443.94,504.67,1444.13,473,1431.74,442.54ZM1740,360.65l-.21-.28c-.16-.23-.32-.44-.49-.67s-.14-.21-.21-.3c-.35-.46-.71-.89-1.08-1.33s-.93-1.11-1.4-1.64-.93-1-1.41-1.48l-.09-.08c-.58-.58-1.19-1.16-1.81-1.71s-1.32-1.14-2-1.67c-.48-.39-1-.76-1.46-1.12a49.87,49.87,0,0,0-4.68-3l-.17-.09-.81-.42a1.13,1.13,0,0,0-.21-.12c-.44-.23-.88-.44-1.32-.65s-.92-.44-1.39-.65l-.18-.07a6.35,6.35,0,0,0-.67-.28c-.56-.23-1.1-.44-1.67-.65s-1-.37-1.56-.55c-.25-.07-.49-.16-.76-.25-.63-.19-1.26-.36-1.91-.52s-1.29-.32-2-.46c-.2,0-.39-.09-.58-.11-.57-.12-1.15-.22-1.73-.31s-1-.16-1.54-.21l-.27,0a.62.62,0,0,0-.19,0,6.84,6.84,0,0,0-.9-.08.25.25,0,0,0-.12,0l-.42,0-.46,0-.91,0c-.73,0-1.45-.06-2.17-.06H1476.78q-1,0-2,.06a8,8,0,0,0-1,0h-.1c-.34,0-.67.05-1,.09s-.61.05-.91.08l-.19,0c-.48.05-1,.11-1.43.19l-.23,0-.33.05c-.65.09-1.28.21-1.92.34s-1.31.28-2,.45l-.46.13c-.44.1-.88.23-1.32.37s-.7.21-1,.31c-1.09.35-2.16.74-3.21,1.18-.53.21-1.06.44-1.57.69s-1,.44-1.42.68-.74.35-1.09.55l-.87.47-.19.11c-.51.3-1,.59-1.51.89s-.91.58-1.35.88l-.27.18c-.4.28-.79.54-1.18.84l-.94.72c-.39.29-.76.58-1.13.9h0s0,0,0,0l0,0-.14.12s-.09.07-.12.11a8.69,8.69,0,0,0-.93.81l0,0a.94.94,0,0,0-.16.14c-.19.15-.37.33-.56.51-.39.35-.76.7-1.12,1.07l-.22.21-1.37,1.44c-.42.48-.84.95-1.26,1.44s-1,1.29-1.53,1.95-.83,1.13-1.22,1.71-.8,1.21-1.17,1.83-.71,1.18-1,1.77-.55,1-.81,1.57c0,.05,0,.1-.07.16-.14.26-.26.52-.39.8-.51,1.1-1,2.2-1.4,3.33-.09.23-.18.45-.25.68-.19.55-.39,1.09-.54,1.64s-.37,1.23-.55,1.86c0,.21-.1.42-.16.63-.12.46-.23.92-.31,1.39a6.33,6.33,0,0,0-.16.78.37.37,0,0,0,0,.14,1.25,1.25,0,0,1,0,.19,5.5,5.5,0,0,0-.11.69s0,.05,0,.07,0,.07,0,.1c-.06.23-.09.46-.13.69s0,.3,0,.46a3.5,3.5,0,0,0-.1.66c-.07.53-.14,1.08-.18,1.62s-.09.83-.11,1.25V384c0,.21,0,.4,0,.61,0,.69,0,1.37,0,2.06V391a171.2,171.2,0,0,0,30,2.53v-6.85a15,15,0,0,1,4.58-10.8h0a15,15,0,0,1,10.43-4.2H1694.3l.07,0q22.92-5.32,45.82-10.79Zm-525.29,312c-2.13-4.66-5.29-4.64-8.77-3.62,3.41,2.35,6.87,4.59,10.39,6.68A24.42,24.42,0,0,1,1214.74,672.69Zm217-281.68v51.53c12.39,30.42,12.2,62.13,0,94.16v112A25.28,25.28,0,0,1,1406.49,674h-84.37c-1.53,0-3.06,0-4.57,0h-.18c-1.3,0-2.6-.07-3.9-.13l-1.25-.05c-1.1,0-2.21-.12-3.3-.19s-1.88-.13-2.82-.21-1.7-.13-2.54-.22-1.67-.15-2.52-.24-2-.21-2.93-.34h-.06q-26.41,5.94-52.84,11.82a48.42,48.42,0,0,1-10.1,1.28q39.69,18.36,87,18.34h84.37a55.28,55.28,0,0,0,55.27-55.29V393.54A171.2,171.2,0,0,1,1431.74,391Zm0,51.53V536.7C1443.94,504.67,1444.13,473,1431.74,442.54ZM1740,360.65l-.21-.28c-.16-.23-.32-.44-.49-.67s-.14-.21-.21-.3c-.35-.46-.71-.89-1.08-1.33s-.93-1.11-1.4-1.64-.93-1-1.41-1.48l-.09-.08c-.58-.58-1.19-1.16-1.81-1.71s-1.32-1.14-2-1.67c-.48-.39-1-.76-1.46-1.12a49.87,49.87,0,0,0-4.68-3l-.17-.09-.81-.42a1.13,1.13,0,0,0-.21-.12c-.44-.23-.88-.44-1.32-.65s-.92-.44-1.39-.65l-.18-.07a6.35,6.35,0,0,0-.67-.28c-.56-.23-1.1-.44-1.67-.65s-1-.37-1.56-.55c-.25-.07-.49-.16-.76-.25-.63-.19-1.26-.36-1.91-.52s-1.29-.32-2-.46c-.2,0-.39-.09-.58-.11-.57-.12-1.15-.22-1.73-.31s-1-.16-1.54-.21l-.27,0a.62.62,0,0,0-.19,0,6.84,6.84,0,0,0-.9-.08.25.25,0,0,0-.12,0l-.42,0-.46,0-.91,0c-.73,0-1.45-.06-2.17-.06H1476.78q-1,0-2,.06a8,8,0,0,0-1,0h-.1c-.34,0-.67.05-1,.09s-.61.05-.91.08l-.19,0c-.48.05-1,.11-1.43.19l-.23,0-.33.05c-.65.09-1.28.21-1.92.34s-1.31.28-2,.45l-.46.13c-.44.1-.88.23-1.32.37s-.7.21-1,.31c-1.09.35-2.16.74-3.21,1.18-.53.21-1.06.44-1.57.69s-1,.44-1.42.68-.74.35-1.09.55l-.87.47-.19.11c-.51.3-1,.59-1.51.89s-.91.58-1.35.88l-.27.18c-.4.28-.79.54-1.18.84l-.94.72c-.39.29-.76.58-1.13.9h0s0,0,0,0l0,0-.14.12s-.09.07-.12.11a8.69,8.69,0,0,0-.93.81l0,0a.94.94,0,0,0-.16.14c-.19.15-.37.33-.56.51-.39.35-.76.7-1.12,1.07l-.22.21-1.37,1.44c-.42.48-.84.95-1.26,1.44s-1,1.29-1.53,1.95-.83,1.13-1.22,1.71-.8,1.21-1.17,1.83-.71,1.18-1,1.77-.55,1-.81,1.57c0,.05,0,.1-.07.16-.14.26-.26.52-.39.8-.51,1.1-1,2.2-1.4,3.33-.09.23-.18.45-.25.68-.19.55-.39,1.09-.54,1.64s-.37,1.23-.55,1.86c0,.21-.1.42-.16.63-.12.46-.23.92-.31,1.39a6.33,6.33,0,0,0-.16.78.37.37,0,0,0,0,.14,1.25,1.25,0,0,1,0,.19,5.5,5.5,0,0,0-.11.69s0,.05,0,.07,0,.07,0,.1c-.06.23-.09.46-.13.69s0,.3,0,.46a3.5,3.5,0,0,0-.1.66c-.07.53-.14,1.08-.18,1.62s-.09.83-.11,1.25V384c0,.21,0,.4,0,.61,0,.69,0,1.37,0,2.06V391a171.2,171.2,0,0,0,30,2.53v-6.85a15,15,0,0,1,4.58-10.8h0a15,15,0,0,1,10.43-4.2H1694.3l.07,0q22.92-5.32,45.82-10.79Zm365.59-51q-2.82-11.58-5.85-23.14l-19.15,0-14,0h-33.56l-19.32,0-22.44,0-14.6,0q3.32,15,6.68,30H1998l23.28,0,19.11,0h14.48l19,0h13.81l19.32,0C2106.59,314.18,2106.11,311.88,2105.62,309.6Z"/><path class="cls-1" d="M2547.17,375.3a13.95,13.95,0,0,1,14,14v3.45a13.58,13.58,0,0,1-3,8.7,14.38,14.38,0,0,1-7.6,4.91l-2.68-9.11a4.55,4.55,0,0,0,2.74-1.64,4.35,4.35,0,0,0,1.06-2.86v-3.45a4.57,4.57,0,0,0-1.35-3.21,4.44,4.44,0,0,0-3.21-1.34,4.08,4.08,0,0,0-3.21,1.34,14.34,14.34,0,0,0-2.22,4l-2.22,5.79a18.34,18.34,0,0,1-5.85,8.06,14.81,14.81,0,0,1-8.93,2.86,13.64,13.64,0,0,1-9.93-4,13.39,13.39,0,0,1-4.09-10V389.6a13.35,13.35,0,0,1,2.92-8.64,13.5,13.5,0,0,1,7.59-5l2.75,9.05a5,5,0,0,0-2.75,1.58,4.63,4.63,0,0,0-1.05,3v3.16a4.51,4.51,0,0,0,4.56,4.56c2.74,0,4.79-1.7,6.07-5.14l2.16-5.67Q2537.35,375.29,2547.17,375.3Z"/><path class="cls-1" d="M2551,346.9v7.72h-30.15V346.9h-9.46v24.9h9.46v-7.72H2551v7.72h9.46V346.9Z"/><path class="cls-1" d="M2560.49,320.22V308.35h-49.07v9.46h29.9c.18,0,.3.12.36.35a.25.25,0,0,1-.18.35l-30.08,11.69v11.85h49.07v-9.46h-30a.33.33,0,0,1-.35-.28.46.46,0,0,1,.25-.42Z"/><path class="cls-1" d="M2558.15,276.93a13.43,13.43,0,0,0-7.7-5l-2.76,9.05a5.36,5.36,0,0,1,2.86,1.63,4.68,4.68,0,0,1,1.18,3.1v3a4.76,4.76,0,0,1-4.8,4.78h-22a4.57,4.57,0,0,1-3.37-1.39,4.7,4.7,0,0,1-1.36-3.39v-3a4.4,4.4,0,0,1,1.18-3.1,5.49,5.49,0,0,1,2.8-1.63l-2.8-9.05a13.61,13.61,0,0,0-7.64,5,14,14,0,0,0-3,8.81v3A14.29,14.29,0,0,0,2524.9,303h22a14.38,14.38,0,0,0,14.26-14.26v-3A13.73,13.73,0,0,0,2558.15,276.93Z"/><path class="cls-1" d="M2551,236.44v21.1h-10.41V243.46h-9.46v14.08h-10.28v-21.1h-9.46V267h49.07V236.44Z"/><path class="cls-1" d="M2551,186.27v21a6,6,0,0,1-4.33-1.93,59.64,59.64,0,0,1-5.43-7.83,43,43,0,0,0-2.86-4.2,35.16,35.16,0,0,0-3.22-3.44,12.57,12.57,0,0,0-4.48-2.69,17.45,17.45,0,0,0-5.68-.88,13.24,13.24,0,0,0-10,4.15,13.65,13.65,0,0,0-4.15,10v2.11a13.63,13.63,0,0,0,4.2,10,13.81,13.81,0,0,0,10.06,4.15v-9.41a4.8,4.8,0,0,1-4.8-4.78v-2a4.78,4.78,0,0,1,1.35-3.38,4.54,4.54,0,0,1,3.33-1.35,6.9,6.9,0,0,1,2.69.52,6.21,6.21,0,0,1,2.39,1.88,18.23,18.23,0,0,1,1.93,2.4c.53.7,1.16,1.81,2.09,3.27a51,51,0,0,0,2.94,4.37,42,42,0,0,0,3.45,4,15.14,15.14,0,0,0,4.83,3.39,14.24,14.24,0,0,0,5.68,1.16h9.46V186.27Z"/><path class="cls-1" d="M2557,154.38a13.79,13.79,0,0,0-10.06-4.15h-22a14.17,14.17,0,0,0-14.18,14.26v2.91a14.29,14.29,0,0,0,14.18,14.26h22a14.38,14.38,0,0,0,14.26-14.26v-2.91A13.74,13.74,0,0,0,2557,154.38Zm-5.26,13a4.76,4.76,0,0,1-4.8,4.79h-22a4.57,4.57,0,0,1-3.37-1.39,4.71,4.71,0,0,1-1.36-3.4v-2.91a4.79,4.79,0,0,1,1.36-3.45,4.73,4.73,0,0,1,3.37-1.35h22a4.7,4.7,0,0,1,4.8,4.8Z"/><path class="cls-1" d="M2551,115.47v21a5.91,5.91,0,0,1-4.33-1.93,59.31,59.31,0,0,1-5.43-7.82,42.09,42.09,0,0,0-2.86-4.21,34.06,34.06,0,0,0-3.22-3.44,12.57,12.57,0,0,0-4.48-2.69,17.45,17.45,0,0,0-5.68-.88,13.24,13.24,0,0,0-10,4.15,13.65,13.65,0,0,0-4.15,10v2.11a13.62,13.62,0,0,0,4.2,10,13.77,13.77,0,0,0,10.06,4.15v-9.4a4.81,4.81,0,0,1-4.8-4.79v-2.05a4.78,4.78,0,0,1,1.35-3.38,4.54,4.54,0,0,1,3.33-1.35,6.73,6.73,0,0,1,2.69.53,6.12,6.12,0,0,1,2.39,1.88,17.58,17.58,0,0,1,1.93,2.39c.53.7,1.16,1.81,2.09,3.27,1.06,1.74,2.06,3.22,2.94,4.38a42,42,0,0,0,3.45,4,15.3,15.3,0,0,0,4.83,3.39,14.07,14.07,0,0,0,5.68,1.16h9.46V115.47Z"/><path class="cls-1" d="M2511.42,82.59V99.12l28.67,14h9.48v-21h10.92V82.59Zm28.67,19.55c0,.36-.17.48-.51.3L2520,92.76c-.23-.13-.3-.25-.3-.43a.51.51,0,0,1,.52-.28h19.92Z"/><path class="cls-2" d="M1406.05,473.06v0c-.26-1.53-.56-3.06-.9-4.58a107.18,107.18,0,0,0-5.3-17.13,99.84,99.84,0,0,0-84.76-62.3l12.52,25.36a80.42,80.42,0,0,1,44.23,32.88A77,77,0,0,1,1383,473.92a75.93,75.93,0,0,1,1.49,20.17,82.22,82.22,0,0,1-15.73,43.55l4.9,28.58A101.45,101.45,0,0,0,1406.05,473.06Zm0,0v0c-.26-1.53-.56-3.06-.9-4.58a107.18,107.18,0,0,0-5.3-17.13,99.84,99.84,0,0,0-84.76-62.3l12.52,25.36a80.42,80.42,0,0,1,44.23,32.88A77,77,0,0,1,1383,473.92a75.93,75.93,0,0,1,1.49,20.17,82.22,82.22,0,0,1-15.73,43.55l4.9,28.58A101.45,101.45,0,0,0,1406.05,473.06Zm0,0v0c-.26-1.53-.56-3.06-.9-4.58a107.18,107.18,0,0,0-5.3-17.13,99.84,99.84,0,0,0-84.76-62.3l12.52,25.36a80.42,80.42,0,0,1,44.23,32.88A77,77,0,0,1,1383,473.92a75.93,75.93,0,0,1,1.49,20.17,82.22,82.22,0,0,1-15.73,43.55l4.9,28.58A101.45,101.45,0,0,0,1406.05,473.06Zm0,0v0c-.26-1.53-.56-3.06-.9-4.58a107.18,107.18,0,0,0-5.3-17.13,99.84,99.84,0,0,0-84.76-62.3l12.52,25.36a80.42,80.42,0,0,1,44.23,32.88A77,77,0,0,1,1383,473.92a75.93,75.93,0,0,1,1.49,20.17,82.22,82.22,0,0,1-15.73,43.55l4.9,28.58A101.45,101.45,0,0,0,1406.05,473.06Zm0,0v0c-.26-1.53-.56-3.06-.9-4.58a107.18,107.18,0,0,0-5.3-17.13,99.84,99.84,0,0,0-84.76-62.3l12.52,25.36a80.42,80.42,0,0,1,44.23,32.88A77,77,0,0,1,1383,473.92a75.93,75.93,0,0,1,1.49,20.17,82.22,82.22,0,0,1-15.73,43.55l4.9,28.58A101.45,101.45,0,0,0,1406.05,473.06Zm0,0v0c-.26-1.53-.56-3.06-.9-4.58a107.18,107.18,0,0,0-5.3-17.13,99.84,99.84,0,0,0-84.76-62.3l12.52,25.36a80.42,80.42,0,0,1,44.23,32.88A77,77,0,0,1,1383,473.92a75.93,75.93,0,0,1,1.49,20.17,82.22,82.22,0,0,1-15.73,43.55l4.9,28.58A101.45,101.45,0,0,0,1406.05,473.06Zm0,0v0c-.26-1.53-.56-3.06-.9-4.58a107.18,107.18,0,0,0-5.3-17.13,99.84,99.84,0,0,0-84.76-62.3l12.52,25.36a80.42,80.42,0,0,1,44.23,32.88A77,77,0,0,1,1383,473.92a75.93,75.93,0,0,1,1.49,20.17,82.22,82.22,0,0,1-15.73,43.55l4.9,28.58A101.45,101.45,0,0,0,1406.05,473.06Zm0,0v0c-.26-1.53-.56-3.06-.9-4.58a107.18,107.18,0,0,0-5.3-17.13,99.84,99.84,0,0,0-84.76-62.3l12.52,25.36a80.42,80.42,0,0,1,44.23,32.88A77,77,0,0,1,1383,473.92a75.93,75.93,0,0,1,1.49,20.17,82.22,82.22,0,0,1-15.73,43.55l4.9,28.58A101.45,101.45,0,0,0,1406.05,473.06Zm0,0v0c-.26-1.53-.56-3.06-.9-4.58a107.18,107.18,0,0,0-5.3-17.13,99.84,99.84,0,0,0-84.76-62.3l12.52,25.36a80.42,80.42,0,0,1,44.23,32.88A77,77,0,0,1,1383,473.92a75.93,75.93,0,0,1,1.49,20.17,82.22,82.22,0,0,1-15.73,43.55l4.9,28.58A101.45,101.45,0,0,0,1406.05,473.06Zm0,0v0c-.26-1.53-.56-3.06-.9-4.58a107.18,107.18,0,0,0-5.3-17.13,99.84,99.84,0,0,0-84.76-62.3l12.52,25.36a80.42,80.42,0,0,1,44.23,32.88A77,77,0,0,1,1383,473.92a75.93,75.93,0,0,1,1.49,20.17,82.22,82.22,0,0,1-15.73,43.55l4.9,28.58A101.45,101.45,0,0,0,1406.05,473.06Zm0,0v0c-.26-1.53-.56-3.06-.9-4.58a107.18,107.18,0,0,0-5.3-17.13,99.84,99.84,0,0,0-84.76-62.3l12.52,25.36a80.42,80.42,0,0,1,44.23,32.88A77,77,0,0,1,1383,473.92a75.93,75.93,0,0,1,1.49,20.17,82.22,82.22,0,0,1-15.73,43.55l4.9,28.58A101.45,101.45,0,0,0,1406.05,473.06Zm0,0v0c-.26-1.53-.56-3.06-.9-4.58a107.18,107.18,0,0,0-5.3-17.13,99.84,99.84,0,0,0-84.76-62.3l12.52,25.36a80.42,80.42,0,0,1,44.23,32.88A77,77,0,0,1,1383,473.92a75.93,75.93,0,0,1,1.49,20.17,82.22,82.22,0,0,1-15.73,43.55l4.9,28.58A101.45,101.45,0,0,0,1406.05,473.06Zm0,0v0c-.26-1.53-.56-3.06-.9-4.58a107.18,107.18,0,0,0-5.3-17.13,99.84,99.84,0,0,0-84.76-62.3l12.52,25.36a80.42,80.42,0,0,1,44.23,32.88A77,77,0,0,1,1383,473.92a75.93,75.93,0,0,1,1.49,20.17,82.22,82.22,0,0,1-15.73,43.55l4.9,28.58A101.45,101.45,0,0,0,1406.05,473.06Zm0,0v0c-.26-1.53-.56-3.06-.9-4.58a107.18,107.18,0,0,0-5.3-17.13,99.84,99.84,0,0,0-84.76-62.3l12.52,25.36a80.42,80.42,0,0,1,44.23,32.88A77,77,0,0,1,1383,473.92a75.93,75.93,0,0,1,1.49,20.17,82.22,82.22,0,0,1-15.73,43.55l4.9,28.58A101.45,101.45,0,0,0,1406.05,473.06Zm774.64-71.2c-4-28.46-7.52-57.09-12.66-85.34-1.4-7.77-2.93-15.52-4.64-23.22-.49-2.27-1-4.54-1.54-6.81-7.37-31.13-17.74-61.63-27.48-92.19-7.48-23.47-16-46.62-29-67.86-5.63-9.18-11.82-12.13-23.05-9.56-104,23.8-208.08,47-312.18,70.3h0c-18.65,4.2-24.66,5.56-24.66,14.72,0,4.34,1.35,10.46,3.35,19.48,5.42,24.47,8.34,33.07,21.31,33.94h0c6,.41,14.12-.8,25.6-2.88,8.51-1.53,12.71,1.23,14.38,9.46s3.32,16.26,5.26,24.33c.75,3.22,1.56,6.44,2.4,9.62,2.38,8.89-.82,13.29-9.33,15.52-5.87,1.55-11.71,3.2-17.55,4.85h-.24c-9.27,2.68-18.29,5.38-27.62,7.83-23,6-45.89,12-68.92,17.61-51.39,12.61-103.13,23.6-155.75,30l-.14,0q-13.42,1.67-27,2.87c-15,1.35-30,2.19-44.92,1.33h0a167.15,167.15,0,0,1-26.46-3.5c-1.85-.4-3.63-.86-5.31-1.4-13.1-4.12-21.77-12.31-23.93-28-1.23-9-2.92-18-6.1-26.6a70.12,70.12,0,0,0-3.43-7.9c-5.8-11.41-14.17-16.42-25.19-14q-95.07,21.15-190,42.63-11.27,2.54-22.52,5.1c-10.29,2.34-17.25,8.53-17.86,20.11-.16,3,1,7.63-3.93,7.95-14.68.91-12.93,9.61-9.95,19.51a118.42,118.42,0,0,1,3.1,12.2c.32,1.76.6,3.54.79,5.31,1.23,11.13,4.78,18.58,18.93,12.94-24.93,37.13-18.37,107,7.32,155.27.07.16.16.32.24.48s0,0,0,0,0,0,0,0a0,0,0,0,0,0,0s0,0,0,.05.05.09.07.14c10,18.49,22.73,33.77,37.64,42.72a35.26,35.26,0,0,0-5.82.67h0c-9.32,2-10.1,7.84-7.18,16.58a144.62,144.62,0,0,1,5.24,22.33c.16.94.32,1.89.46,2.84,1.19,7.58,4.41,10.62,12.08,8,.45-.16.91-.3,1.37-.42h0c3.48-1,6.64-1,8.77,3.62a24.42,24.42,0,0,0,1.62,3.06v0c4.57,7.49,11.19,10,18.74,9.91h0a48.42,48.42,0,0,0,10.1-1.28q26.41-5.88,52.84-11.82h.06q66.83-14.93,133.63-30c5.75-1.28,11.49-2.59,17.24-3.89,5.42-1.23,9.62-3.07,12.78-5.69,5.44-4.49,7.77-11.2,7.85-20.73.08-11-3.27-21.4-5.58-32-4.85-22.33-1.86-30.73,16.69-43.9,19.39-13.76,41.14-22.94,63.37-30.64,57.07-19.74,115.33-34.51,174.23-46.64q15-3.09,30-6,35.78-6.86,71.8-12.75c31.19-5.19,27.74-10.65,35.42,24.77,5.91,27.29,11.52,28.48-20.29,35-14.08,2.88-20.44,13.81-17.65,27.67,2.45,12.09,5.68,24.05,7.88,36.2a18,18,0,0,0,.68,2.72c1.67,5,5,5.42,10.92,4.08q165.93-37.5,332-74.45c7.75-1.71,11.92-5.95,13.43-13.05a105.91,105.91,0,0,0,2.16-17.72c0-1.06.07-2.13.09-3.18C2185.26,442.12,2183.54,421.9,2180.69,401.86ZM1286.8,424c4.77,22.68,10,45.25,15.1,67.86s10,45.27,15.32,67.82a17,17,0,0,1,.61,4.38c-.09,3-1.84,4.48-6.77,4.92a70.3,70.3,0,0,1-24.66-2.33h0A81.65,81.65,0,0,1,1241,533.82a76.65,76.65,0,0,1-13.12-36.55,79.91,79.91,0,0,1,12.77-50.49A74.77,74.77,0,0,1,1276,417.7a17.85,17.85,0,0,1,4.49-1.23C1284.52,416.05,1285.71,418.7,1286.8,424ZM1383,473.92a75.93,75.93,0,0,1,1.49,20.17,82.22,82.22,0,0,1-15.73,43.55,73.27,73.27,0,0,1-34.5,26.1c-6.78,2.38-7.35-1.23-8.38-5.94-5-22.68-10.11-45.31-15.19-67.93-5.17-23-10.24-46.05-15.56-69-1.27-5.5-1.78-8.52,5.89-9.19a73,73,0,0,1,26.6,2.72,80.42,80.42,0,0,1,44.23,32.88A77,77,0,0,1,1383,473.92Zm-116.58-77.05c-26.23,11.78-44.67,29.8-54.26,54.06a107.81,107.81,0,0,0-6.38,24.75c0,.42-.1.83-.16,1.23-4.41,34.6,6.05,63.92,30.33,86.62a121.71,121.71,0,0,0,11.13,9.23,106.15,106.15,0,0,0,12.5,8,89.88,89.88,0,0,0,55.11,10.53c15.44-2,10.94,10.11,12.91,16.7,2.88,9.53-6.12,6.38-10.06,6.73-66.07,5.89-120.48-30-137-93.84-15.24-59,14.38-116.85,69.88-142.94,4-1.89,8.37-3.23,12.43-5.09,9.18-4.21,14.14-1.76,14,8.84C1283.69,393.68,1272.77,394,1266.41,396.87Zm55,251.1c-11.63,2.85-23.35,5.28-35,7.9v0c-9.85,2.22-19.78,4.1-29.57,6.49-2.92.72-5.84,1.47-8.72,2.3-9.41,2.69-13.33-.53-14.23-9.49-.16-1.48-.72-2.92-1-4.4a.17.17,0,0,0,0-.07v0c-3.33-21.66-11.5-39.08-28.5-55.45-44.45-42.84-54.17-116.49-26.51-171.46,2.25-4.45,2.32-8.37,1.24-12.89-1.38-5.85-2.7-11.71-4-17.56-1.39-6.19-2.78-12.38-4.27-18.53-1.74-7.14,0-11.08,7.91-12.75q16.38-3.45,32.72-7.1h0q24.18-5.4,48.33-11c5.45-1.25,9.51-1.64,10.27,5.52.6,5.48,4.5,10.6-5,13.83-53.07,18.13-84.25,55.77-91.82,111-11.41,83,59.17,156.06,142.79,149.92,5.41-.38,14.33-7.1,16.79,5.26C1336.63,648.5,1337.5,644,1321.37,648ZM1335,598.53c-3.81-7.5-.37-10.82,8.2-14,2.54-1,5.06-2,7.48-3.16a97,97,0,0,0,22.93-15.12,101.45,101.45,0,0,0,32.4-93.16v0c-.26-1.53-.56-3.06-.9-4.58a107.18,107.18,0,0,0-5.3-17.13,99.84,99.84,0,0,0-84.76-62.3,107.82,107.82,0,0,0-18.06,0,26.6,26.6,0,0,1-3,.08c-11.36-.42-7.37-10.21-9.14-15.85-2.92-9.32,6.2-6.74,10.05-7.12,62.12-6.19,122.24,38.64,134.13,99.61,12,61.34-25.41,124.19-84.9,142.82C1337.73,610.58,1337.73,610.58,1335,598.53Zm509.7-182.66c-32.21,5.79-64.36,11.83-96.39,18.46q-15,3.12-30,6.4c-36.27,8-72.35,16.79-108.1,26.93-49.3,14-98.56,28.22-143,54.93-1.84,1.1-3.67,2.26-5.47,3.46-2.23,1.51-4.43,3.08-6.55,4.73-14.81,11.39-23.07,24.82-16.27,44.6,3.89,11.27,5.1,23.4,8.2,35,1.93,7.26-.5,9.84-7.49,11.34-2.64.56-5.28,1.12-7.91,1.7-25.9,5.58-51.73,11.54-77.59,17.32-4.66,1.06-10.28,3.32-10.56-4.68-.23-6.47-8.83-14.45,4.32-18.79,34.57-11.43,61.24-33.17,77.39-65.84q3.65-7.35,6.44-14.7c12.2-32,12.39-63.74,0-94.16a148.7,148.7,0,0,0-15.47-28.3c-30.17-43.66-73.3-62.22-126.13-56.6-8.68.92-9.72-2.7-11.39-9.17-1.78-6.89.4-9.06,6.94-10.45,28.92-6.17,57.79-12.55,86.54-19.46,7.63-1.84,9.88.72,11.14,7.56,2.2,11.76,5.68,23.3,7.61,35.11,2.06,12.61,9.52,20,20.71,24.26a112.09,112.09,0,0,0,20,5.52,171.2,171.2,0,0,0,30,2.53c5.79.06,11.57-.08,17.37-.29,54.86-1.94,108.67-11,161.36-21.56l.09,0c18.37-3.67,36.62-7.54,54.73-11.35,12.14-3.06,24.15-6,36-8.83,31-7.47,61.3-14.63,91.14-23.5,8-2.4,11.76-1.66,13.57,7.68,4.52,23.52,10,46.87,15.63,70.15C1853.36,412.74,1851.53,414.66,1844.74,415.87Zm12.59-49.12,0,0c-3.77-16.8-7.46-33.63-11.26-50.45q-3.37-15-6.89-30c-.38-1.6-.75-3.2-1.14-4.82-1.81-7.56.05-10.27,7.66-11.88q53.74-11.44,107.23-24c10.62-2.49,15,1.22,17.19,11.31q3.25,14.76,6.53,29.51,3.32,15,6.68,30,11.31,50.65,22.69,101.32c2.75,12.27.9,15.21-11.39,18-35.35,8-70.81,15.53-106.08,23.91-8.7,2.08-10.9-.91-12.52-8.59C1870.15,422.87,1863.62,394.83,1857.33,366.75ZM2039.8,506.38c-8.33,1.79-16.67,3.58-25,5.43h0l-.08,0c-24.52,5.41-49,11-73.5,16.52-29.57,6.65-59.19,13.08-88.69,20-7.44,1.74-11.27,1.32-13.12-7.6-4.52-22-5-21.9,16.65-26.84,20.29-4.63,27.46-12.82,26.74-33.27-.28-7.64,4.62-6.55,8.39-7.42,36.84-8.4,73.73-16.59,110.61-24.85,22-4.95,24-8,19.11-30Q2009.5,367.38,1998,316.38q-3.35-15-6.74-30-4.21-18.86-8.49-37.73c-4.57-20.28-7.52-22.08-27.72-17.56-37.25,8.35-74.53,16.56-111.71,25.19-7,1.62-10.58,1.22-12.6-7-3.59-14.38-13.19-19.88-27.78-17.68-3.32.51-6.58,1.45-9.86,2.19-12.77,2.87-19.4,3.13-23-1.6h0c-2.69-3.57-3.67-10-4.31-20.15-.28-4.68,1.83-5.75,4.31-6.19h0c1.2-.21,2.44-.28,3.57-.55,31.73-7.26,63.5-14.32,95.27-21.44,31.4-7,62.85-13.86,94.16-21.29,7.33-1.74,10.21-.13,12.92,7a1221.18,1221.18,0,0,1,37.68,116.75q4,15,7.58,30a1079.87,1079.87,0,0,1,22.85,130.36c1.76,15.59,2.25,31.36,4.61,46.85.59,4,.35,6.67-.9,8.58C2046.48,504.34,2043.86,505.5,2039.8,506.38ZM2073,498.8c-3.78.68-5.19-.44-5.71-2.25-.46-1.53-.3-3.53-.44-5.36a1187,1187,0,0,0-26.44-174.77q-3.47-15.06-7.37-30v0q-10.58-40.45-24.4-80.26-7.39-21.16-15.4-42.12c-2-5.12-2.9-9,4-8.65,7.77-3.45,8.93,2.58,10.46,6.79,6.77,18.61,13.57,37.25,19.64,56.1,7.24,22.57,14,45.27,20,68.16q4,15,7.47,30,4.48,19.19,8.14,38.58c8.37,44.51,13,89.52,18.27,134.45a12.66,12.66,0,0,1,0,3C2080.76,496.73,2077.41,498,2073,498.8Zm37.46-9.42c-2.19,1.63-5.52,2.19-8.38,2.32-1.64.07-2.15-.23-2.81-4.45-.29-1.79-.6-4.31-1.06-7.79-4.54-52.35-11.78-108-24.3-163-.44-2-.89-4-1.37-6q-2.82-12-5.94-24a1234.88,1234.88,0,0,0-38.31-120.78,43.12,43.12,0,0,1-2.41-7.45c-.59-3.39-5.41-7.54,1.66-9.9,5.69-1.9,9-.63,11,5.38,8.93,27,18.51,53.75,27.21,80.79q8.31,25.81,14.91,52v0q3.8,15,7.11,30c11.81,53.76,19.12,108.39,24,163.45.11,1.14.37,2.37.51,3.59C2112.53,485.72,2112.46,487.9,2110.47,489.38Zm40.33-7.83c-14.38,2.64-18.31,3.71-20.14-3.41a93.22,93.22,0,0,1-1.64-12.25c-4.92-49.88-11.69-99.46-22-149.42-.46-2.29-.94-4.59-1.43-6.87q-2.82-11.58-5.85-23.14v0c-11.54-44.06-25.37-88.06-41.47-131.36-4.7-12.61-4.79-12.59,8.42-15.56,21.2-4.78,21.62-4.94,30.09,15.89,17.44,42.88,34.09,86.29,45.4,131.07h0c1.4,5.53,2.72,11.05,3.94,16.62q1.47,6.67,2.77,13.39c9.55,48.63,13.19,98.33,15.58,148a30.32,30.32,0,0,1,0,3.83C2164,476.37,2160,479.85,2150.8,481.55Zm-744.75-8.49v0c-.26-1.53-.56-3.06-.9-4.58a107.18,107.18,0,0,0-5.3-17.13,99.84,99.84,0,0,0-84.76-62.3l12.52,25.36a80.42,80.42,0,0,1,44.23,32.88A77,77,0,0,1,1383,473.92a75.93,75.93,0,0,1,1.49,20.17,82.22,82.22,0,0,1-15.73,43.55l4.9,28.58A101.45,101.45,0,0,0,1406.05,473.06Zm0,0v0c-.26-1.53-.56-3.06-.9-4.58a107.18,107.18,0,0,0-5.3-17.13,99.84,99.84,0,0,0-84.76-62.3l12.52,25.36a80.42,80.42,0,0,1,44.23,32.88A77,77,0,0,1,1383,473.92a75.93,75.93,0,0,1,1.49,20.17,82.22,82.22,0,0,1-15.73,43.55l4.9,28.58A101.45,101.45,0,0,0,1406.05,473.06Zm0,0v0c-.26-1.53-.56-3.06-.9-4.58a107.18,107.18,0,0,0-5.3-17.13,99.84,99.84,0,0,0-84.76-62.3l12.52,25.36a80.42,80.42,0,0,1,44.23,32.88A77,77,0,0,1,1383,473.92a75.93,75.93,0,0,1,1.49,20.17,82.22,82.22,0,0,1-15.73,43.55l4.9,28.58A101.45,101.45,0,0,0,1406.05,473.06Zm0,0v0c-.26-1.53-.56-3.06-.9-4.58a107.18,107.18,0,0,0-5.3-17.13,99.84,99.84,0,0,0-84.76-62.3l12.52,25.36a80.42,80.42,0,0,1,44.23,32.88A77,77,0,0,1,1383,473.92a75.93,75.93,0,0,1,1.49,20.17,82.22,82.22,0,0,1-15.73,43.55l4.9,28.58A101.45,101.45,0,0,0,1406.05,473.06Zm0,0v0c-.26-1.53-.56-3.06-.9-4.58a107.18,107.18,0,0,0-5.3-17.13,99.84,99.84,0,0,0-84.76-62.3l12.52,25.36a80.42,80.42,0,0,1,44.23,32.88A77,77,0,0,1,1383,473.92a75.93,75.93,0,0,1,1.49,20.17,82.22,82.22,0,0,1-15.73,43.55l4.9,28.58A101.45,101.45,0,0,0,1406.05,473.06Zm0,0v0c-.26-1.53-.56-3.06-.9-4.58a107.18,107.18,0,0,0-5.3-17.13,99.84,99.84,0,0,0-84.76-62.3l12.52,25.36a80.42,80.42,0,0,1,44.23,32.88A77,77,0,0,1,1383,473.92a75.93,75.93,0,0,1,1.49,20.17,82.22,82.22,0,0,1-15.73,43.55l4.9,28.58A101.45,101.45,0,0,0,1406.05,473.06Zm0,0v0c-.26-1.53-.56-3.06-.9-4.58a107.18,107.18,0,0,0-5.3-17.13,99.84,99.84,0,0,0-84.76-62.3l12.52,25.36a80.42,80.42,0,0,1,44.23,32.88A77,77,0,0,1,1383,473.92a75.93,75.93,0,0,1,1.49,20.17,82.22,82.22,0,0,1-15.73,43.55l4.9,28.58A101.45,101.45,0,0,0,1406.05,473.06Zm0,0v0c-.26-1.53-.56-3.06-.9-4.58a107.18,107.18,0,0,0-5.3-17.13,99.84,99.84,0,0,0-84.76-62.3l12.52,25.36a80.42,80.42,0,0,1,44.23,32.88A77,77,0,0,1,1383,473.92a75.93,75.93,0,0,1,1.49,20.17,82.22,82.22,0,0,1-15.73,43.55l4.9,28.58A101.45,101.45,0,0,0,1406.05,473.06Zm0,0v0c-.26-1.53-.56-3.06-.9-4.58a107.18,107.18,0,0,0-5.3-17.13,99.84,99.84,0,0,0-84.76-62.3l12.52,25.36a80.42,80.42,0,0,1,44.23,32.88A77,77,0,0,1,1383,473.92a75.93,75.93,0,0,1,1.49,20.17,82.22,82.22,0,0,1-15.73,43.55l4.9,28.58A101.45,101.45,0,0,0,1406.05,473.06Zm0,0v0c-.26-1.53-.56-3.06-.9-4.58a107.18,107.18,0,0,0-5.3-17.13,99.84,99.84,0,0,0-84.76-62.3l12.52,25.36a80.42,80.42,0,0,1,44.23,32.88A77,77,0,0,1,1383,473.92a75.93,75.93,0,0,1,1.49,20.17,82.22,82.22,0,0,1-15.73,43.55l4.9,28.58A101.45,101.45,0,0,0,1406.05,473.06Zm0,0v0c-.26-1.53-.56-3.06-.9-4.58a107.18,107.18,0,0,0-5.3-17.13,99.84,99.84,0,0,0-84.76-62.3l12.52,25.36a80.42,80.42,0,0,1,44.23,32.88A77,77,0,0,1,1383,473.92a75.93,75.93,0,0,1,1.49,20.17,82.22,82.22,0,0,1-15.73,43.55l4.9,28.58A101.45,101.45,0,0,0,1406.05,473.06Zm0,0v0c-.26-1.53-.56-3.06-.9-4.58a107.18,107.18,0,0,0-5.3-17.13,99.84,99.84,0,0,0-84.76-62.3l12.52,25.36a80.42,80.42,0,0,1,44.23,32.88A77,77,0,0,1,1383,473.92a75.93,75.93,0,0,1,1.49,20.17,82.22,82.22,0,0,1-15.73,43.55l4.9,28.58A101.45,101.45,0,0,0,1406.05,473.06Zm0,0v0c-.26-1.53-.56-3.06-.9-4.58a107.18,107.18,0,0,0-5.3-17.13,99.84,99.84,0,0,0-84.76-62.3l12.52,25.36a80.42,80.42,0,0,1,44.23,32.88A77,77,0,0,1,1383,473.92a75.93,75.93,0,0,1,1.49,20.17,82.22,82.22,0,0,1-15.73,43.55l4.9,28.58A101.45,101.45,0,0,0,1406.05,473.06Zm0,0v0c-.26-1.53-.56-3.06-.9-4.58a107.18,107.18,0,0,0-5.3-17.13,99.84,99.84,0,0,0-84.76-62.3l12.52,25.36a80.42,80.42,0,0,1,44.23,32.88A77,77,0,0,1,1383,473.92a75.93,75.93,0,0,1,1.49,20.17,82.22,82.22,0,0,1-15.73,43.55l4.9,28.58A101.45,101.45,0,0,0,1406.05,473.06Z"/><path class="cls-2" d="M1744.5,368.49c-.28-.63-.57-1.25-.88-1.86a1,1,0,0,0-.11-.2c-.14-.31-.31-.63-.47-.93s-.34-.61-.51-.91a10.76,10.76,0,0,0-.55-.95c-.19-.32-.37-.62-.58-.93s-.37-.58-.56-.86-.39-.58-.58-.87l-.07-.1q-22.89,5.43-45.82,10.79l-.07,0h9a14.89,14.89,0,0,1,10.09,3.9c10.38-2.33,20.73-4.71,31.1-7.06C1744.51,368.51,1744.5,368.51,1744.5,368.49Zm0,0c-.28-.63-.57-1.25-.88-1.86a1,1,0,0,0-.11-.2c-.14-.31-.31-.63-.47-.93s-.34-.61-.51-.91a10.76,10.76,0,0,0-.55-.95c-.19-.32-.37-.62-.58-.93s-.37-.58-.56-.86-.39-.58-.58-.87l-.07-.1q-22.89,5.43-45.82,10.79l-.07,0C1638.2,384.75,1582,396.94,1525,406c-20.94,3.34-42,7.49-63.24,5.1v8.24c34.3,1.25,67.57-6.63,101-12.53,50.54-8.93,100.65-19.89,150.66-31.23,10.38-2.33,20.73-4.71,31.1-7.06C1744.51,368.51,1744.5,368.51,1744.5,368.49Zm0,0c-.28-.63-.57-1.25-.88-1.86a1,1,0,0,0-.11-.2c-.14-.31-.31-.63-.47-.93s-.34-.61-.51-.91a10.76,10.76,0,0,0-.55-.95c-.19-.32-.37-.62-.58-.93s-.37-.58-.56-.86-.39-.58-.58-.87l-.07-.1q-22.89,5.43-45.82,10.79l-.07,0C1638.2,384.75,1582,396.94,1525,406c-20.94,3.34-42,7.49-63.24,5.1v8.24c34.3,1.25,67.57-6.63,101-12.53,50.54-8.93,100.65-19.89,150.66-31.23,10.38-2.33,20.73-4.71,31.1-7.06C1744.51,368.51,1744.5,368.51,1744.5,368.49Zm0,0c-.28-.63-.57-1.25-.88-1.86a1,1,0,0,0-.11-.2c-.14-.31-.31-.63-.47-.93s-.34-.61-.51-.91a10.76,10.76,0,0,0-.55-.95c-.19-.32-.37-.62-.58-.93s-.37-.58-.56-.86-.39-.58-.58-.87l-.07-.1q-22.89,5.43-45.82,10.79l-.07,0C1638.2,384.75,1582,396.94,1525,406c-20.94,3.34-42,7.49-63.24,5.1v8.24c34.3,1.25,67.57-6.63,101-12.53,50.54-8.93,100.65-19.89,150.66-31.23,10.38-2.33,20.73-4.71,31.1-7.06C1744.51,368.51,1744.5,368.51,1744.5,368.49Zm0,0c-.28-.63-.57-1.25-.88-1.86a1,1,0,0,0-.11-.2c-.14-.31-.31-.63-.47-.93s-.34-.61-.51-.91a10.76,10.76,0,0,0-.55-.95c-.19-.32-.37-.62-.58-.93s-.37-.58-.56-.86-.39-.58-.58-.87l-.07-.1q-22.89,5.43-45.82,10.79l-.07,0C1638.2,384.75,1582,396.94,1525,406c-20.94,3.34-42,7.49-63.24,5.1v8.24c34.3,1.25,67.57-6.63,101-12.53,50.54-8.93,100.65-19.89,150.66-31.23,10.38-2.33,20.73-4.71,31.1-7.06C1744.51,368.51,1744.5,368.51,1744.5,368.49Zm0,0c-.28-.63-.57-1.25-.88-1.86a1,1,0,0,0-.11-.2c-.14-.31-.31-.63-.47-.93s-.34-.61-.51-.91a10.76,10.76,0,0,0-.55-.95c-.19-.32-.37-.62-.58-.93s-.37-.58-.56-.86-.39-.58-.58-.87l-.07-.1q-22.89,5.43-45.82,10.79l-.07,0C1638.2,384.75,1582,396.94,1525,406c-20.94,3.34-42,7.49-63.24,5.1v8.24c34.3,1.25,67.57-6.63,101-12.53,50.54-8.93,100.65-19.89,150.66-31.23,10.38-2.33,20.73-4.71,31.1-7.06C1744.51,368.51,1744.5,368.51,1744.5,368.49Zm0,0c-.28-.63-.57-1.25-.88-1.86a1,1,0,0,0-.11-.2c-.14-.31-.31-.63-.47-.93s-.34-.61-.51-.91a10.76,10.76,0,0,0-.55-.95c-.19-.32-.37-.62-.58-.93s-.37-.58-.56-.86-.39-.58-.58-.87l-.07-.1q-22.89,5.43-45.82,10.79l-.07,0C1638.2,384.75,1582,396.94,1525,406c-20.94,3.34-42,7.49-63.24,5.1v8.24c34.3,1.25,67.57-6.63,101-12.53,50.54-8.93,100.65-19.89,150.66-31.23,10.38-2.33,20.73-4.71,31.1-7.06C1744.51,368.51,1744.5,368.51,1744.5,368.49Zm0,0c-.28-.63-.57-1.25-.88-1.86a1,1,0,0,0-.11-.2c-.14-.31-.31-.63-.47-.93s-.34-.61-.51-.91a10.76,10.76,0,0,0-.55-.95c-.19-.32-.37-.62-.58-.93s-.37-.58-.56-.86-.39-.58-.58-.87l-.07-.1q-22.89,5.43-45.82,10.79l-.07,0C1638.2,384.75,1582,396.94,1525,406c-20.94,3.34-42,7.49-63.24,5.1v8.24c34.3,1.25,67.57-6.63,101-12.53,50.54-8.93,100.65-19.89,150.66-31.23,10.38-2.33,20.73-4.71,31.1-7.06C1744.51,368.51,1744.5,368.51,1744.5,368.49Zm92.93,24.23a111.22,111.22,0,0,0-9.44-41.28c-3.17-7.18-7.4-10.23-15.75-7.77-12.19,3.58-24.74,5.94-37.1,8.88l-35,8.33q-22.89,5.43-45.82,10.79l-.07,0C1638.2,384.75,1582,396.94,1525,406c-20.94,3.34-42,7.49-63.24,5.1l-1.35-.16c-8.4-1.06-11.87,2.21-14.61,8.37-7.24,16.17,2.44,61.72,16,74.43.2.18.39.37.58.53,3.54,3,7.63,8.3,13.59,3.87,14.74-11,32.23-15.44,49.27-20.78,52.18-16.33,105.43-28.43,158.73-40.35q17.19-3.79,34.39-7.66,15-3.37,30-6.7c25.63-5.66,51.33-11.06,77.21-15.58C1834.26,405.57,1837.71,401.28,1837.43,392.72Zm-24.83,7.5c-21.37,4.75-42.73,9.53-64.25,14.37q-15,3.35-30,6.73l-46.5,10.44c-51.64,12.8-105.36,24.62-157.84,41.21-13.19,4.17-26.6,7.84-38.34,15.42-4.33,2.8-7,1.6-9.16-2.14-1.74-3-3.31-6.14-4.72-9.27a104.34,104.34,0,0,1-8.89-52.07c.28-3.57,2-5.89,6.61-5.66l2.28.1c34.3,1.25,67.57-6.63,101-12.53,50.54-8.93,100.65-19.89,150.66-31.23,10.38-2.33,20.73-4.71,31.1-7.06q28.14-6.43,56.3-12.77c15.68-3.51,18.42-2.05,23.38,13.43a58.42,58.42,0,0,1,2.51,12.05C1828,394.93,1826,397.25,1812.6,400.22Zm-68.1-31.73c-.28-.63-.57-1.25-.88-1.86a1,1,0,0,0-.11-.2c-.14-.31-.31-.63-.47-.93s-.34-.61-.51-.91a10.76,10.76,0,0,0-.55-.95c-.19-.32-.37-.62-.58-.93s-.37-.58-.56-.86-.39-.58-.58-.87l-.07-.1q-22.89,5.43-45.82,10.79l-.07,0C1638.2,384.75,1582,396.94,1525,406c-20.94,3.34-42,7.49-63.24,5.1v8.24c34.3,1.25,67.57-6.63,101-12.53,50.54-8.93,100.65-19.89,150.66-31.23,10.38-2.33,20.73-4.71,31.1-7.06C1744.51,368.51,1744.5,368.51,1744.5,368.49Zm0,0c-.28-.63-.57-1.25-.88-1.86a1,1,0,0,0-.11-.2c-.14-.31-.31-.63-.47-.93s-.34-.61-.51-.91a10.76,10.76,0,0,0-.55-.95c-.19-.32-.37-.62-.58-.93s-.37-.58-.56-.86-.39-.58-.58-.87l-.07-.1q-22.89,5.43-45.82,10.79l-.07,0C1638.2,384.75,1582,396.94,1525,406c-20.94,3.34-42,7.49-63.24,5.1v8.24c34.3,1.25,67.57-6.63,101-12.53,50.54-8.93,100.65-19.89,150.66-31.23,10.38-2.33,20.73-4.71,31.1-7.06C1744.51,368.51,1744.5,368.51,1744.5,368.49Zm0,0c-.28-.63-.57-1.25-.88-1.86a1,1,0,0,0-.11-.2c-.14-.31-.31-.63-.47-.93s-.34-.61-.51-.91a10.76,10.76,0,0,0-.55-.95c-.19-.32-.37-.62-.58-.93s-.37-.58-.56-.86-.39-.58-.58-.87l-.07-.1q-22.89,5.43-45.82,10.79l-.07,0C1638.2,384.75,1582,396.94,1525,406c-20.94,3.34-42,7.49-63.24,5.1v8.24c34.3,1.25,67.57-6.63,101-12.53,50.54-8.93,100.65-19.89,150.66-31.23,10.38-2.33,20.73-4.71,31.1-7.06C1744.51,368.51,1744.5,368.51,1744.5,368.49Zm0,0c-.28-.63-.57-1.25-.88-1.86a1,1,0,0,0-.11-.2c-.14-.31-.31-.63-.47-.93s-.34-.61-.51-.91a10.76,10.76,0,0,0-.55-.95c-.19-.32-.37-.62-.58-.93s-.37-.58-.56-.86-.39-.58-.58-.87l-.07-.1q-22.89,5.43-45.82,10.79l-.07,0C1638.2,384.75,1582,396.94,1525,406c-20.94,3.34-42,7.49-63.24,5.1v8.24c34.3,1.25,67.57-6.63,101-12.53,50.54-8.93,100.65-19.89,150.66-31.23,10.38-2.33,20.73-4.71,31.1-7.06C1744.51,368.51,1744.5,368.51,1744.5,368.49Zm0,0c-.28-.63-.57-1.25-.88-1.86a1,1,0,0,0-.11-.2c-.14-.31-.31-.63-.47-.93s-.34-.61-.51-.91a10.76,10.76,0,0,0-.55-.95c-.19-.32-.37-.62-.58-.93s-.37-.58-.56-.86-.39-.58-.58-.87l-.07-.1q-22.89,5.43-45.82,10.79l-.07,0C1638.2,384.75,1582,396.94,1525,406c-20.94,3.34-42,7.49-63.24,5.1v8.24c34.3,1.25,67.57-6.63,101-12.53,50.54-8.93,100.65-19.89,150.66-31.23,10.38-2.33,20.73-4.71,31.1-7.06C1744.51,368.51,1744.5,368.51,1744.5,368.49Zm0,0c-.28-.63-.57-1.25-.88-1.86a1,1,0,0,0-.11-.2c-.14-.31-.31-.63-.47-.93s-.34-.61-.51-.91a10.76,10.76,0,0,0-.55-.95c-.19-.32-.37-.62-.58-.93s-.37-.58-.56-.86-.39-.58-.58-.87l-.07-.1q-22.89,5.43-45.82,10.79l-.07,0C1638.2,384.75,1582,396.94,1525,406c-20.94,3.34-42,7.49-63.24,5.1v8.24c34.3,1.25,67.57-6.63,101-12.53,50.54-8.93,100.65-19.89,150.66-31.23,10.38-2.33,20.73-4.71,31.1-7.06C1744.51,368.51,1744.5,368.51,1744.5,368.49Zm0,0c-.28-.63-.57-1.25-.88-1.86a1,1,0,0,0-.11-.2c-.14-.31-.31-.63-.47-.93s-.34-.61-.51-.91a10.76,10.76,0,0,0-.55-.95c-.19-.32-.37-.62-.58-.93s-.37-.58-.56-.86-.39-.58-.58-.87l-.07-.1q-22.89,5.43-45.82,10.79l-.07,0C1638.2,384.75,1582,396.94,1525,406c-20.94,3.34-42,7.49-63.24,5.1v8.24c34.3,1.25,67.57-6.63,101-12.53,50.54-8.93,100.65-19.89,150.66-31.23,10.38-2.33,20.73-4.71,31.1-7.06C1744.51,368.51,1744.5,368.51,1744.5,368.49Z"/><path class="cls-2" d="M1979.08,338.81a56.11,56.11,0,0,0-10.94-22.45c-12.57-15.68-33-23.87-53.44-19.44a57.47,57.47,0,0,0-32.28,19.37,54.25,54.25,0,0,0-11.13,47c6.73,29.66,36.29,48.91,65.22,42.48C1967.28,399,1986.21,369.19,1979.08,338.81Zm-45,58.18c-23.68,4.94-48.8-11.74-54.06-35.92a45,45,0,0,1,15.26-44.76,48.78,48.78,0,0,1,20.47-9.95,45,45,0,0,1,39.48,10,46.41,46.41,0,0,1,14.88,24.75C1975.91,366.19,1959.47,391.7,1934.12,397Z"/><path class="cls-2" d="M1918.38,320.05c17-3.75,34.48,7.42,38.21,24.39,3.68,16.71-7.56,34.64-24.24,38.67s-35.49-8.19-38.95-25.21S1901.07,323.88,1918.38,320.05Z"/><path class="cls-3" d="M1311.44,381.63l28.45,57.64a7.64,7.64,0,0,0,5.77,4.19l63.61,9.25a7.66,7.66,0,0,1,4.24,13.07l-46,44.87a7.66,7.66,0,0,0-2.21,6.78l10.87,63.35a7.66,7.66,0,0,1-11.12,8.08L1308.13,559a7.68,7.68,0,0,0-7.13,0l-56.89,29.91a7.66,7.66,0,0,1-11.12-8.08l10.86-63.35a7.63,7.63,0,0,0-2.2-6.78l-46-44.87a7.66,7.66,0,0,1,4.25-13.07l63.61-9.25a7.68,7.68,0,0,0,5.77-4.19l28.45-57.64A7.66,7.66,0,0,1,1311.44,381.63Z"/><path class="cls-1" d="M2455.48,897.92q-8.91-10.81-31.89-10.83h-39.17a1.65,1.65,0,0,0-1.66,1.65v139.1a1.65,1.65,0,0,0,1.66,1.65h27.07a1.65,1.65,0,0,0,1.65-1.65V985.77a1.66,1.66,0,0,1,1.66-1.66h8.79q23,0,31.89-10.81a36.83,36.83,0,0,0,6.77-12.73,52.51,52.51,0,0,0,2.16-15.57V926.2C2464.41,914.57,2461.44,905.12,2455.48,897.92Zm-40.68,62.65a1.65,1.65,0,0,1-1.66-1.65V912.47a1.65,1.65,0,0,1,1.66-1.65h8.59q5.33,0,8,2.37c1.78,1.59,2.66,4.28,2.66,8.07v28.87c0,3.8-.88,6.49-2.66,8.07s-4.43,2.37-8,2.37Z"/><path class="cls-1" d="M2545,960.57a21,21,0,0,0,4.75-6.36,45,45,0,0,0,4.85-20.6V926.2c0-11.63-3-21.08-8.93-28.28s-16.58-10.83-31.89-10.83h-39.17a1.65,1.65,0,0,0-1.66,1.65v139.1a1.65,1.65,0,0,0,1.66,1.65h27.07a1.65,1.65,0,0,0,1.65-1.65V974.37a1.65,1.65,0,0,1,1.66-1.65h6.5c3.43,0,6.05,1,7.89,3s2.75,4.94,2.75,8.74v43.34a1.65,1.65,0,0,0,1.65,1.65h27.07a1.65,1.65,0,0,0,1.66-1.65V994.36c0-1.28,0-2.55-.09-3.78a55.32,55.32,0,0,0-3.71-18.23,18,18,0,0,0-5.59-7.66,1.68,1.68,0,0,1,.1-2.73A15.78,15.78,0,0,0,2545,960.57Zm-20.78-21.83c0,3.8-.9,6.49-2.66,8.07s-4.43,2.37-8,2.37H2505a1.65,1.65,0,0,1-1.66-1.65V912.47a1.65,1.65,0,0,1,1.66-1.65h8.59q5.33,0,8,2.37c1.76,1.59,2.66,4.28,2.66,8.07Z"/><path class="cls-1" d="M2593.52,941.08a1.65,1.65,0,0,0,1.65,1.65h27.27a1.65,1.65,0,0,1,1.65,1.65v20.43a1.64,1.64,0,0,1-1.65,1.65h-27.27a1.65,1.65,0,0,0-1.65,1.66v27.39c0,3.79.88,6.48,2.66,8.07s4.43,2.37,8,2.37h23.78a1.65,1.65,0,0,1,1.66,1.65v20.24a1.65,1.65,0,0,1-1.66,1.65h-33.47c-9.76,0-16.89-1.74-21.46-5.22a21.06,21.06,0,0,1-8.36-12.71,109.11,109.11,0,0,1-1.51-20.41v-65.7a108.74,108.74,0,0,1,1.51-20.41,20.75,20.75,0,0,1,7-11.61c.44-.38.91-.75,1.39-1.12,4.57-3.48,11.7-5.22,21.46-5.22h33.47a1.65,1.65,0,0,1,1.66,1.65v20.43a1.65,1.65,0,0,1-1.66,1.65h-23.78q-5.32,0-8,2.37c-1.78,1.59-2.66,4.28-2.66,8.07Z"/></svg>