<svg id="Layer_1" data-name="Layer 1" xmlns="http://www.w3.org/2000/svg" viewBox="0 0 4295.47 563.45"><defs><style>.cls-1{fill:#1c3f3f;}.cls-2{fill:#697c69;}.cls-3{fill:#efeace;}</style></defs><path class="cls-1" d="M4273.33,172.26q-22.12-52.32-59.95-89.75t-90.17-60A274,274,0,0,0,4013.75,0H3871.27q-116.7,0-199.22,82.51t-82.5,199.22q0,116.72,82.5,199.22t199.22,82.5h142.48q76.44,0,141.27-37.82A281.35,281.35,0,0,0,4257.66,423q37.8-64.77,37.81-141.26A278,278,0,0,0,4273.33,172.26ZM4103.49,371.08q-37.39,37-89.74,37H3871.27q-52.32,0-89.33-37t-37.05-89.35q0-52.31,37.05-89.35t89.33-37h142.48q52.32,0,89.74,37t37.44,89.35Q4140.93,334.07,4103.49,371.08Z"/><path class="cls-1" d="M1883.51,190.77H1752.3a17.91,17.91,0,0,1-17.71-17.7,18.35,18.35,0,0,1,5.25-12.89,16.47,16.47,0,0,1,12.46-5.64h150.79V0H1752.3Q1680.66,0,1630,50.71t-50.71,122.36q0,71.64,50.71,122.34t122.34,50.71h131.21a31,31,0,0,1,22.14,8.85,31.09,31.09,0,0,1,0,44.27,30.87,30.87,0,0,1-22.14,8.87h-295.4V563.46h295.4q77.28,0,131.62-54.74t54.33-131.61q0-76.86-54.33-131.6T1883.51,190.77Z"/><path class="cls-1" d="M2290.81,0H1940.09V154.54h195.38a10.12,10.12,0,0,1,10.12,10.12v398.8h155.34V10.12A10.12,10.12,0,0,0,2290.81,0Z"/><path class="cls-1" d="M2644.62,332.44q0,31.38-22.13,53.93T2569,408.9q-31.41,0-53.53-22.53t-22.14-53.93V0H2337.94V332.44q0,95.81,67.6,163.41t163,67.61q95.37,0,163.4-67.61t68-163.41V192.37H2644.62Z"/><path class="cls-1" d="M3278.08,82.51q-37.85-37.43-90.15-60A274.28,274.28,0,0,0,3078.45,0H2644.62V155.37h433.83q52.31,0,89.75,37t37.42,89.34q0,52.33-37.42,89.35t-89.75,37h-86.13V192.37H2837V563.46h241.48q76.47,0,141.27-37.82A281.1,281.1,0,0,0,3322.35,423q37.83-64.78,37.84-141.27a278.34,278.34,0,0,0-22.14-109.47Q3315.9,119.94,3278.08,82.51Z"/><rect class="cls-1" x="3397.2" y="0.01" width="155.35" height="563.46"/><path class="cls-1" d="M17.6,193.42q-.53-6.79-.52-13.8Z"/><path class="cls-1" d="M17.08,179.62q0,7,.52,13.8ZM751,563.46h0Z"/><path class="cls-1" d="M807.67,455.78q0,15.47,0,30.94a6.61,6.61,0,0,1-.21,1.65,6.47,6.47,0,0,1-6.33,4.85H703.2a7.2,7.2,0,0,1-1.39-.14,6.43,6.43,0,0,1-5.24-6.33q0-15.51,0-31a6.29,6.29,0,0,1,.16-1.44,6.47,6.47,0,0,1,5.15-4.91,4.75,4.75,0,0,0,.74-.12h99a4.76,4.76,0,0,0,.77.12A6.47,6.47,0,0,1,807.67,455.78Z"/><path class="cls-1" d="M1324,214.81a33.88,33.88,0,0,1-10.25,25.09l-.08.07a31.88,31.88,0,0,1-17.25,9.64c-15.73,3.1-32.51,7.26-51.29,12.72l-96,27.88-140.9,41a25.53,25.53,0,0,0-13.77,9.88V220a25.64,25.64,0,0,0-25.62-25.61H840A25.64,25.64,0,0,0,814.38,220V369A14.37,14.37,0,0,1,800,383.38H752c-28.29,0-51.78-9.74-71.83-29.78s-29.82-43.52-29.82-71.87,9.76-51.85,29.85-71.88,43.51-29.76,71.84-29.76l216.84-.48a25.64,25.64,0,0,0,23.15-14.8,25.69,25.69,0,0,0,23.31,15.07l273.52.21c10.17,0,18.09,3.2,25,10.11A32.83,32.83,0,0,1,1324,214.81Z"/><path class="cls-1" d="M315.32,371.34c0,3.68-1,6.12-3.38,8.4l-.05.05-.46.43a11.14,11.14,0,0,1-7.49,2.73,12.22,12.22,0,0,1-2.62-.28L190.74,359.3H302.86a12.08,12.08,0,0,1,9,3.57l.07.06C314.35,365.22,315.32,367.66,315.32,371.34Z"/><path class="cls-1" d="M1457.69,347.87a218.56,218.56,0,0,0,34-61.47,208.78,208.78,0,0,0,12.4-71.24V25.62A25.64,25.64,0,0,0,1478.51,0H180.41a181.06,181.06,0,0,0-68.89,13.51A178,178,0,0,0,53,52.33C17.82,87.31,0,130.13,0,179.62v.43c0,4.71.18,9.39.52,14A164.46,164.46,0,0,0,48.88,310.68a167,167,0,0,0,32.78,25.57L27.4,324.78H25.61A25.64,25.64,0,0,0,0,350.4L.19,537.85A25.64,25.64,0,0,0,25.8,563.46H1468.43a25.61,25.61,0,0,0,22.78-37.35l-72.27-140A222.78,222.78,0,0,0,1457.69,347.87ZM426.53,494.94q-51.09,51.42-123.67,51.45H25.8a8.53,8.53,0,0,1-8.53-8.54l-.19-187.46a8.53,8.53,0,0,1,8.53-8.54l272.18,57.54a28.62,28.62,0,0,0,25-6.45l.88-.82a29.18,29.18,0,0,0,0-41.55,29.05,29.05,0,0,0-20.85-8.34H166.08A148.48,148.48,0,0,1,17.6,193.42q-.53-6.79-.52-13.8,0-67.41,47.92-115.19A163.48,163.48,0,0,1,180.41,17.08H462a10.24,10.24,0,0,1,10.24,10.25V153.7a8.53,8.53,0,0,1-8.53,8.54H179.62a15.52,15.52,0,0,0-11.73,5.3A17.28,17.28,0,0,0,163,180.13,16.5,16.5,0,0,0,168,191.42a16,16,0,0,0,11.67,4.88H302.86q72.61,0,123.67,51.37,51,51.53,51,123.67T426.53,494.94ZM190.74,359.3H302.86a12.08,12.08,0,0,1,9,3.57l.07.06c2.41,2.29,3.38,4.73,3.38,8.41s-1,6.12-3.38,8.4l-.05.05-.46.43a11.14,11.14,0,0,1-7.49,2.73,12.22,12.22,0,0,1-2.62-.28ZM977.39,537.85a8.54,8.54,0,0,1-8.54,8.53H752q-71.88,0-132.71-35.54a263.9,263.9,0,0,1-96.4-96.39q-35.5-60.85-35.54-132.72a256.49,256.49,0,0,1,21.2-102.82q21.09-49.18,56.32-84.31t84.31-56.39A258.11,258.11,0,0,1,752,17.08H968.85a8.54,8.54,0,0,1,8.54,8.53V154a8.54,8.54,0,0,1-8.52,8.53L752,163q-49.18,0-83.88,34.77-34.87,34.77-34.84,84t34.84,84q34.76,34.76,83.88,34.76h48A31.44,31.44,0,0,0,831.46,369V220a8.54,8.54,0,0,1,8.54-8.54H968.85a8.54,8.54,0,0,1,8.54,8.54Zm17.08-196.72V220a25.64,25.64,0,0,0-25.62-25.61H840A25.64,25.64,0,0,0,814.38,220V369A14.37,14.37,0,0,1,800,383.38H752c-28.29,0-51.78-9.74-71.83-29.78s-29.82-43.52-29.82-71.87,9.76-51.85,29.85-71.88,43.51-29.76,71.84-29.76l216.84-.48a25.64,25.64,0,0,0,23.15-14.8,25.69,25.69,0,0,0,23.31,15.07l273.52.21c10.17,0,18.09,3.2,25,10.11A32.83,32.83,0,0,1,1324,214.81a33.88,33.88,0,0,1-10.25,25.09l-.08.07a31.88,31.88,0,0,1-17.25,9.64c-15.73,3.1-32.51,7.26-51.29,12.72l-96,27.88-140.9,41A25.53,25.53,0,0,0,994.47,341.13Zm408.6,35.48a8.54,8.54,0,0,0-2.63,10.85L1476,533.93a8.53,8.53,0,0,1-7.59,12.45H1323.57a8.55,8.55,0,0,1-7.6-4.64l-22.14-43.09a158.6,158.6,0,0,0-132-85.86,8.54,8.54,0,0,0-9,8.53V537.85a8.53,8.53,0,0,1-8.53,8.53H1015.39a8.54,8.54,0,0,1-8.54-8.53v-182a8.54,8.54,0,0,1,6.15-8.2l140.91-41,95.95-27.88c16.43-4.78,33-9.06,49.82-12.36a49,49,0,0,0,26.24-14.53,51.1,51.1,0,0,0,15.12-37,50,50,0,0,0-15.12-36.68q-15.06-15.15-37-15.12l-273.51-.21a8.53,8.53,0,0,1-8.53-8.53V25.61a8.53,8.53,0,0,1,8.54-8.53h463.12a8.53,8.53,0,0,1,8.53,8.54V215.16a191.17,191.17,0,0,1-11.38,65.44,200.79,200.79,0,0,1-31.37,56.68A204.83,204.83,0,0,1,1403.07,376.61Z"/><path class="cls-1" d="M1448.84,213.47a8,8,0,0,1,8,8v2a7.72,7.72,0,0,1-1.7,5,8.17,8.17,0,0,1-4.32,2.79l-1.53-5.18a2.67,2.67,0,0,0,1.57-.93,2.51,2.51,0,0,0,.59-1.63v-2a2.58,2.58,0,0,0-.76-1.83,2.53,2.53,0,0,0-1.83-.76,2.31,2.31,0,0,0-1.82.76,7.94,7.94,0,0,0-1.27,2.26l-1.26,3.29a10.31,10.31,0,0,1-3.32,4.58,8.43,8.43,0,0,1-5.09,1.63,7.77,7.77,0,0,1-5.65-2.29,7.62,7.62,0,0,1-2.32-5.68v-1.8a7.56,7.56,0,0,1,1.66-4.91,7.75,7.75,0,0,1,4.32-2.83l1.56,5.15a2.87,2.87,0,0,0-1.56.9,2.63,2.63,0,0,0-.6,1.69v1.8a2.5,2.5,0,0,0,.73,1.83,2.54,2.54,0,0,0,1.86.76c1.56,0,2.73-1,3.46-2.92l1.23-3.23Q1443.26,213.48,1448.84,213.47Z"/><path class="cls-1" d="M1433.89,197.33h-5.38v14.15h5.38v-4.39H1451v4.39h5.38V197.33H1451v4.38h-17.15Z"/><path class="cls-1" d="M1428.51,180.78h17c.1,0,.16.07.2.2a.14.14,0,0,1-.1.2l-17.11,6.64v6.75h27.91v-5.38h-17.05c-.1,0-.16,0-.2-.17a.25.25,0,0,1,.14-.23l17.11-6.65V175.4h-27.91Z"/><path class="cls-1" d="M1450.77,160.78a2.63,2.63,0,0,1,.66,1.76v1.69a2.71,2.71,0,0,1-2.72,2.73h-12.53a2.6,2.6,0,0,1-1.92-.8,2.65,2.65,0,0,1-.77-1.93v-1.69a2.46,2.46,0,0,1,.67-1.76,2.94,2.94,0,0,1,1.59-.93l-1.59-5.15a7.77,7.77,0,0,0-4.36,2.82,8,8,0,0,0-1.69,5v1.69a8.11,8.11,0,0,0,8.07,8.11h12.53a8.18,8.18,0,0,0,8.11-8.11v-1.69a7.81,7.81,0,0,0-1.73-5,7.62,7.62,0,0,0-4.39-2.82l-1.56,5.15A2.91,2.91,0,0,1,1450.77,160.78Z"/><path class="cls-1" d="M1433.89,134.5h-5.38v17.37h27.91V134.5H1451v12h-5.92v-8h-5.38v8h-5.85Z"/><path class="cls-1" d="M1448.58,116.79a33.3,33.3,0,0,1-3.09-4.46,26.53,26.53,0,0,0-1.63-2.39,19.87,19.87,0,0,0-1.83-2,7.28,7.28,0,0,0-2.56-1.53,9.85,9.85,0,0,0-3.22-.5,7.54,7.54,0,0,0-5.68,2.36,7.77,7.77,0,0,0-2.36,5.69v1.19a8.11,8.11,0,0,0,8.11,8.08v-5.36a2.65,2.65,0,0,1-1.93-.79,2.61,2.61,0,0,1-.8-1.93V114a2.7,2.7,0,0,1,.77-1.93,2.55,2.55,0,0,1,1.89-.76,3.94,3.94,0,0,1,1.53.3,3.49,3.49,0,0,1,1.36,1.06,12,12,0,0,1,1.1,1.36c.3.4.66,1,1.19,1.86.6,1,1.17,1.83,1.66,2.49a26,26,0,0,0,2,2.26,8.63,8.63,0,0,0,2.76,1.93,8,8,0,0,0,3.23.67h5.38V106H1451v11.93A3.39,3.39,0,0,1,1448.58,116.79Z"/><path class="cls-1" d="M1430.47,87.81a7.92,7.92,0,0,0-2.36,5.75v1.66a8.11,8.11,0,0,0,8.07,8.11h12.53a8.18,8.18,0,0,0,8.11-8.11V93.56a8.13,8.13,0,0,0-8.11-8.11h-12.53A7.88,7.88,0,0,0,1430.47,87.81Zm18.24,3a2.66,2.66,0,0,1,1.93.76,2.62,2.62,0,0,1,.79,2v1.66a2.71,2.71,0,0,1-2.72,2.73h-12.53a2.6,2.6,0,0,1-1.92-.8,2.65,2.65,0,0,1-.77-1.93V93.56a2.72,2.72,0,0,1,.77-2,2.69,2.69,0,0,1,1.92-.76Z"/><path class="cls-1" d="M1448.58,76.52a33.3,33.3,0,0,1-3.09-4.46,26.53,26.53,0,0,0-1.63-2.39,19.87,19.87,0,0,0-1.83-2,7.28,7.28,0,0,0-2.56-1.53,9.85,9.85,0,0,0-3.22-.5,7.54,7.54,0,0,0-5.68,2.36,7.76,7.76,0,0,0-2.36,5.68v1.2a8.11,8.11,0,0,0,8.11,8.08V77.65a2.66,2.66,0,0,1-1.93-.8,2.63,2.63,0,0,1-.8-1.93V73.76a2.7,2.7,0,0,1,.77-1.93,2.55,2.55,0,0,1,1.89-.76,3.94,3.94,0,0,1,1.53.3,3.59,3.59,0,0,1,1.36,1.06,12,12,0,0,1,1.1,1.36c.3.4.66,1,1.19,1.86.6,1,1.17,1.83,1.66,2.49a26,26,0,0,0,2,2.26,8.63,8.63,0,0,0,2.76,1.93A8,8,0,0,0,1451,83h5.38V65.68H1451V77.61A3.39,3.39,0,0,1,1448.58,76.52Z"/><path class="cls-1" d="M1428.51,56.38l16.31,7.94h5.38v-12h6.22V47h-27.91Zm16.31-4v5.75c0,.2-.1.26-.3.17l-11.16-5.52c-.13-.07-.17-.13-.17-.23a.3.3,0,0,1,.3-.17Z"/><path class="cls-2" d="M799.77,269.08q-.22-1.31-.51-2.61a60.59,60.59,0,0,0-3-9.74A56.8,56.8,0,0,0,748,221.28l7.12,14.44a45.8,45.8,0,0,1,25.16,18.69,44,44,0,0,1,6.34,15.17,43.07,43.07,0,0,1,.84,11.46,46.69,46.69,0,0,1-8.94,24.77l2.79,16.26A57.77,57.77,0,0,0,799.77,269.08Zm0,0q-.22-1.31-.51-2.61a60.59,60.59,0,0,0-3-9.74A56.8,56.8,0,0,0,748,221.28l7.12,14.44a45.8,45.8,0,0,1,25.16,18.69,44,44,0,0,1,6.34,15.17,43.07,43.07,0,0,1,.84,11.46,46.69,46.69,0,0,1-8.94,24.77l2.79,16.26A57.77,57.77,0,0,0,799.77,269.08Zm0,0q-.22-1.31-.51-2.61a60.59,60.59,0,0,0-3-9.74A56.8,56.8,0,0,0,748,221.28l7.12,14.44a45.8,45.8,0,0,1,25.16,18.69,44,44,0,0,1,6.34,15.17,43.07,43.07,0,0,1,.84,11.46,46.69,46.69,0,0,1-8.94,24.77l2.79,16.26A57.77,57.77,0,0,0,799.77,269.08Zm0,0q-.22-1.31-.51-2.61a60.59,60.59,0,0,0-3-9.74A56.8,56.8,0,0,0,748,221.28l7.12,14.44a45.8,45.8,0,0,1,25.16,18.69,44,44,0,0,1,6.34,15.17,43.07,43.07,0,0,1,.84,11.46,46.69,46.69,0,0,1-8.94,24.77l2.79,16.26A57.77,57.77,0,0,0,799.77,269.08Zm0,0q-.22-1.31-.51-2.61a60.59,60.59,0,0,0-3-9.74A56.8,56.8,0,0,0,748,221.28l7.12,14.44a45.8,45.8,0,0,1,25.16,18.69,44,44,0,0,1,6.34,15.17,43.07,43.07,0,0,1,.84,11.46,46.69,46.69,0,0,1-8.94,24.77l2.79,16.26A57.77,57.77,0,0,0,799.77,269.08Zm0,0q-.22-1.31-.51-2.61a60.59,60.59,0,0,0-3-9.74A56.8,56.8,0,0,0,748,221.28l7.12,14.44a45.8,45.8,0,0,1,25.16,18.69,44,44,0,0,1,6.34,15.17,43.07,43.07,0,0,1,.84,11.46,46.69,46.69,0,0,1-8.94,24.77l2.79,16.26A57.77,57.77,0,0,0,799.77,269.08Zm0,0q-.22-1.31-.51-2.61a60.59,60.59,0,0,0-3-9.74A56.8,56.8,0,0,0,748,221.28l7.12,14.44a45.8,45.8,0,0,1,25.16,18.69,44,44,0,0,1,6.34,15.17,43.07,43.07,0,0,1,.84,11.46,46.69,46.69,0,0,1-8.94,24.77l2.79,16.26A57.77,57.77,0,0,0,799.77,269.08Zm440.62-40.49c-2.93-20.64-5.34-41.44-9.84-61.75-.29-1.3-.58-2.59-.88-3.88-4.2-17.71-10.09-35.06-15.63-52.44-4.25-13.35-9.1-26.51-16.5-38.6-3.2-5.22-6.72-6.9-13.11-5.43-59.14,13.53-118.37,26.71-177.58,40h0C991.2,110,991.2,110,994.73,125.92c3.08,13.92,4.74,18.81,12.12,19.32,3.41.23,8-.47,14.57-1.64,4.84-.87,7.23.69,8.18,5.38s1.89,9.25,3,13.83c.43,1.84.89,3.66,1.38,5.48,1.35,5.06-.47,7.56-5.31,8.83-8.64,2.27-17.19,4.94-25.83,7.21-42.19,11.06-84.45,21.81-127.79,27.09q-7.68.93-15.41,1.63a174.73,174.73,0,0,1-25.56.77,95.37,95.37,0,0,1-15-2c-9.13-2-15.24-6.64-16.63-16.71-.93-6.69-2.28-13.45-5.42-19.62-3.31-6.49-8.07-9.34-14.33-8q-54.07,12-108.1,24.25l-12.8,2.9c-5.85,1.33-9.81,4.86-10.16,11.44-.1,1.7.59,4.34-2.24,4.52-8.34.52-7.35,5.48-5.65,11.1a66.47,66.47,0,0,1,1.75,6.94c.19,1,.35,2,.46,3,.7,6.32,2.71,10.56,10.77,7.36-19.72,29.36-4.8,94.69,25.79,113-8.39.36-9.35,4-7.39,9.81a84.29,84.29,0,0,1,3,12.7c.09.54.17,1.08.26,1.62.68,4.32,2.51,6,6.86,4.57.27-.09.53-.18.79-.25,2-.57,3.79-.58,5,2.06a16.89,16.89,0,0,0,.93,1.75c2.59,4.26,6.37,5.68,10.65,5.64a27.45,27.45,0,0,0,5.76-.73q58-12.92,115.91-26a17.12,17.12,0,0,0,7.27-3.24c3.09-2.55,4.42-6.36,4.46-11.78,0-6.27-1.86-12.18-3.17-18.2-2.77-12.7-1.07-17.48,9.49-25,11-7.83,23.39-13.05,36-17.43,32.46-11.23,65.6-19.63,99.1-26.53,19.21-4,38.53-7.42,57.92-10.64,17.73-2.95,15.78-6.06,20.14,14.09,3.36,15.52,6.56,16.2-11.53,19.91-8,1.64-11.63,7.86-10,15.74,1.38,6.89,3.23,13.69,4.48,20.59.77,4.28,2.71,4.76,6.6,3.88q94.38-21.33,188.84-42.35c4.4-1,6.78-3.38,7.63-7.43a59,59,0,0,0,1.24-10.08A207.14,207.14,0,0,0,1240.39,228.59ZM726.3,217.09c3.86,6.84-2.35,7-6,8.65-14.91,6.71-25.4,17-30.85,30.75a61.45,61.45,0,0,0-3.63,14.08h0l-.09.7c-2.51,19.67,3.43,36.35,17.25,49.27a71.75,71.75,0,0,0,6.32,5.24,60.14,60.14,0,0,0,7.12,4.54,51.08,51.08,0,0,0,31.35,6c8.78-1.11,6.22,5.75,7.34,9.5,1.64,5.43-3.48,3.63-5.72,3.83-37.58,3.35-68.53-17.08-77.91-53.38-8.66-33.53,8.19-66.45,39.76-81.29,2.3-1.09,4.75-1.85,7.07-2.91C723.56,209.67,726.38,211.06,726.3,217.09Zm5.64,24.07c2.71,12.9,5.7,25.74,8.59,38.61s5.68,25.74,8.71,38.57a9.73,9.73,0,0,1,.35,2.5c-.05,1.69-1.05,2.54-3.85,2.79a40.13,40.13,0,0,1-14-1.32h0a46.52,46.52,0,0,1-25.79-18.66,43.5,43.5,0,0,1-7.46-20.8,45.4,45.4,0,0,1,7.26-28.72,42.68,42.68,0,0,1,20.1-16.54,10,10,0,0,1,2.55-.7C730.64,236.65,731.32,238.17,731.94,241.16Zm54.71,28.42a43.07,43.07,0,0,1,.84,11.46,46.69,46.69,0,0,1-8.94,24.77,41.57,41.57,0,0,1-19.62,14.85c-3.86,1.35-4.18-.7-4.77-3.38-2.84-12.89-5.76-25.76-8.65-38.64-2.93-13.09-5.81-26.19-8.84-39.25-.73-3.12-1-4.85,3.35-5.22a40.94,40.94,0,0,1,15.13,1.55,45.8,45.8,0,0,1,25.16,18.69A44,44,0,0,1,786.65,269.58Zm-35,99c-6.61,1.63-13.29,3-19.93,4.5v0c-7.26,1.63-14.63,2.94-21.77,5-5.35,1.53-7.59-.3-8.1-5.4-.08-.84-.4-1.65-.53-2.49-1.89-12.34-6.54-22.27-16.22-31.6C659.76,314.19,654.22,272.3,670,241a9.92,9.92,0,0,0,.71-7.32c-1.62-6.84-3.08-13.71-4.73-20.53-1-4.07,0-6.31,4.51-7.25,15.4-3.26,30.76-6.77,46.11-10.31,3.1-.72,5.41-.94,5.84,3.13.34,3.12,2.55,6-2.82,7.87-30.19,10.32-47.92,31.72-52.23,63.11C660.86,316.94,701,358.49,748.56,355c3.09-.23,8.15-4.05,9.55,3C760.28,368.87,760.78,366.31,751.6,368.57Zm7.78-28.12c-2.18-4.27-.21-6.16,4.66-8q2.18-.81,4.26-1.8a55.12,55.12,0,0,0,13-8.6,57.77,57.77,0,0,0,18.43-53q-.22-1.31-.51-2.61a60.59,60.59,0,0,0-3-9.74A56.8,56.8,0,0,0,748,221.28a61.78,61.78,0,0,0-10.27,0,14.87,14.87,0,0,1-1.72.05c-6.46-.23-4.19-5.8-5.2-9-1.66-5.3,3.53-3.83,5.72-4.05,35.33-3.52,69.53,22,76.29,56.67,6.8,34.88-14.45,70.64-48.29,81.23C760.91,347.3,760.91,347.3,759.38,340.45Zm289.92-103.9c-24.06,4.32-48.06,8.91-71.91,14.14-20.63,4.53-41.15,9.55-61.49,15.32-28,7.95-56.06,16.06-81.33,31.24-1.06.63-2.09,1.29-3.11,2-1.28.85-2.52,1.75-3.73,2.68-8.42,6.49-13.12,14.12-9.25,25.38,2.21,6.4,2.9,13.31,4.65,19.88,1.11,4.13-.27,5.6-4.25,6.45-16.25,3.45-32.42,7.2-48.63,10.83-2.66.59-5.85,1.88-6-2.67-.13-3.68-5-8.22,2.46-10.69,19.65-6.5,34.83-18.87,44-37.45,13.24-26.79,11.87-53.41-5.14-78-17.16-24.84-41.7-35.4-71.74-32.2-4.94.53-5.53-1.54-6.48-5.21-1-3.93.23-5.16,3.95-5.95,16.44-3.5,32.87-7.14,49.22-11.07,4.33-1,5.62.41,6.34,4.3,1.25,6.69,3.23,13.26,4.33,20,1.17,7.17,5.41,11.36,11.78,13.8,9.24,3.53,18.83,4.51,28.48,4.58,3.29,0,6.58,0,9.88-.16,31.22-1.11,61.84-6.26,91.83-12.27,10.45-2.1,20.83-4.3,31.13-6.47,24.91-6.27,48.87-11.4,72.34-18.39,4.56-1.36,6.69-.94,7.71,4.38,2.58,13.37,5.69,26.65,8.89,39.89C1054.19,234.77,1053.16,235.86,1049.3,236.55Zm7.16-27.94h0c-3.43-15.27-6.73-30.56-10.32-45.79-.22-.91-.44-1.82-.65-2.73-1-4.31,0-5.85,4.36-6.77q30.57-6.51,61-13.65c6-1.42,8.52.68,9.78,6.43q1.83,8.4,3.7,16.78c5.53,24.92,11.17,49.8,16.72,74.71,1.56,7,.51,8.65-6.48,10.24-20.11,4.55-40.28,8.83-60.34,13.61-5,1.17-6.2-.52-7.12-4.89C1063.75,240.53,1060,224.58,1056.46,208.61ZM1160.25,288c-18.73,4-37.4,8.31-56.09,12.51-16.82,3.77-33.67,7.44-50.45,11.38-4.24,1-6.41.75-7.46-4.32-2.58-12.51-2.86-12.46,9.47-15.27,11.54-2.63,15.62-7.29,15.2-18.92-.15-4.35,2.63-3.72,4.78-4.21,21-4.78,41.94-9.44,62.91-14.15,12.53-2.81,13.67-4.55,10.88-17q-8.38-37.57-16.83-75.12-2.42-10.72-4.83-21.45c-2.6-11.54-4.28-12.56-15.77-10-21.19,4.74-42.39,9.42-63.54,14.32-4,.92-6,.7-7.18-4-2-8.18-7.49-11.31-15.79-10.05-1.89.28-3.74.82-5.61,1.24-7.27,1.64-11,1.78-13.09-.92-1.53-2-2.1-5.65-2.45-11.46-.16-2.65,1-3.26,2.45-3.52.67-.12,1.4-.16,2-.3,18.05-4.14,36.13-8.16,54.2-12.21,17.86-4,35.75-7.88,53.56-12.1,4.17-1,5.81-.08,7.35,4a693.57,693.57,0,0,1,21.43,66.41,621.9,621.9,0,0,1,17.31,91.23c1,8.87,1.28,17.83,2.61,26.65C1166.06,285.53,1164.65,287.09,1160.25,288Zm18.89-4.31c-4,.72-3.33-2.05-3.5-4.33a664.42,664.42,0,0,0-19.24-116.48q-6-23-13.87-45.66-4.2-12-8.76-24c-1.11-2.92-1.65-5.14,2.29-4.93,4.43-2,5.09,1.47,6,3.86,3.85,10.59,7.72,21.19,11.17,31.92,4.12,12.83,8,25.74,11.4,38.76s6.41,25.89,8.88,39c4.76,25.32,7.4,50.93,10.38,76.48C1184.3,282.24,1182.16,283.17,1179.14,283.72Zm21.31-5.36a8.89,8.89,0,0,1-4.77,1.32c-1.33.05-1.34-.29-2.2-6.95-2.67-30.88-7-63.78-14.6-96.16q-1.62-6.84-3.38-13.65a703.12,703.12,0,0,0-21.79-68.7,25,25,0,0,1-1.38-4.24c-.34-1.93-3.07-4.28,1-5.62,3.23-1.09,5.1-.37,6.23,3,5.08,15.35,10.53,30.57,15.48,46q4.73,14.7,8.48,29.57c9.16,36.06,14.4,72.88,17.7,110C1201.34,274.82,1202.2,277.07,1200.45,278.36Zm22.94-4.45c-11.34,2.08-11.28,2.45-12.39-8.91a813.88,813.88,0,0,0-13.31-88.89q-1.61-6.59-3.33-13.18a783.06,783.06,0,0,0-23.6-74.72c-2.66-7.17-2.71-7.15,4.8-8.84,12.06-2.72,12.29-2.82,17.11,9,9.93,24.39,19.4,49.09,25.83,74.55.8,3.14,1.54,6.3,2.24,9.46,6.61,30.08,9,61,10.44,91.8C1231.47,270.36,1229.41,272.81,1223.39,273.91Zm-423.62-4.83q-.22-1.31-.51-2.61a60.59,60.59,0,0,0-3-9.74A56.8,56.8,0,0,0,748,221.28l7.12,14.44a45.8,45.8,0,0,1,25.16,18.69,44,44,0,0,1,6.34,15.17,43.07,43.07,0,0,1,.84,11.46,46.69,46.69,0,0,1-8.94,24.77l2.79,16.26A57.77,57.77,0,0,0,799.77,269.08Zm0,0q-.22-1.31-.51-2.61a60.59,60.59,0,0,0-3-9.74A56.8,56.8,0,0,0,748,221.28l7.12,14.44a45.8,45.8,0,0,1,25.16,18.69,44,44,0,0,1,6.34,15.17,43.07,43.07,0,0,1,.84,11.46,46.69,46.69,0,0,1-8.94,24.77l2.79,16.26A57.77,57.77,0,0,0,799.77,269.08Zm0,0q-.22-1.31-.51-2.61a60.59,60.59,0,0,0-3-9.74A56.8,56.8,0,0,0,748,221.28l7.12,14.44a45.8,45.8,0,0,1,25.16,18.69,44,44,0,0,1,6.34,15.17,43.07,43.07,0,0,1,.84,11.46,46.69,46.69,0,0,1-8.94,24.77l2.79,16.26A57.77,57.77,0,0,0,799.77,269.08Zm0,0q-.22-1.31-.51-2.61a60.59,60.59,0,0,0-3-9.74A56.8,56.8,0,0,0,748,221.28l7.12,14.44a45.8,45.8,0,0,1,25.16,18.69,44,44,0,0,1,6.34,15.17,43.07,43.07,0,0,1,.84,11.46,46.69,46.69,0,0,1-8.94,24.77l2.79,16.26A57.77,57.77,0,0,0,799.77,269.08Zm0,0q-.22-1.31-.51-2.61a60.59,60.59,0,0,0-3-9.74A56.8,56.8,0,0,0,748,221.28l7.12,14.44a45.8,45.8,0,0,1,25.16,18.69,44,44,0,0,1,6.34,15.17,43.07,43.07,0,0,1,.84,11.46,46.69,46.69,0,0,1-8.94,24.77l2.79,16.26A57.77,57.77,0,0,0,799.77,269.08Zm0,0q-.22-1.31-.51-2.61a60.59,60.59,0,0,0-3-9.74A56.8,56.8,0,0,0,748,221.28l7.12,14.44a45.8,45.8,0,0,1,25.16,18.69,44,44,0,0,1,6.34,15.17,43.07,43.07,0,0,1,.84,11.46,46.69,46.69,0,0,1-8.94,24.77l2.79,16.26A57.77,57.77,0,0,0,799.77,269.08Z"/><path class="cls-2" d="M1045.14,223.38a63,63,0,0,0-5.38-23.48c-1.79-4.08-4.2-5.81-9-4.42-6.93,2-14.07,3.38-21.11,5.05-15.3,3.65-30.61,7.32-45.94,10.89-31.91,7.42-63.93,14.36-96.33,19.52-11.91,1.9-23.9,4.26-36,2.9l-.77-.09c-4.79-.6-6.75,1.26-8.32,4.76-4.12,9.21,1.4,35.11,9.09,42.34l.33.31c2,1.73,4.34,4.72,7.72,2.19,8.39-6.24,18.34-8.78,28-11.81,29.68-9.3,60-16.18,90.29-23,6.52-1.43,13-2.9,19.56-4.36,20.26-4.55,40.53-9.1,61-12.67C1043.34,230.69,1045.3,228.26,1045.14,223.38ZM1031,227.65c-17.79,3.95-35.56,7.94-53.63,12l-26.45,5.94c-29.38,7.29-59.93,14-89.78,23.44-7.5,2.37-15.13,4.47-21.81,8.77-2.47,1.59-4,.92-5.22-1.21q-1.47-2.61-2.67-5.27a59.52,59.52,0,0,1-5.07-29.63c.16-2,1.15-3.35,3.77-3.22.43,0,.87,0,1.3.06,19.5.72,38.42-3.77,57.44-7.13,28.74-5.07,57.24-11.31,85.7-17.76,16.57-3.75,33.13-7.57,49.71-11.28,8.92-2,10.48-1.17,13.3,7.64a32.8,32.8,0,0,1,1.42,6.86C1039.78,224.64,1038.61,226,1031,227.65Z"/><path class="cls-2" d="M1125.71,192.72c-3.93-16.73-20.28-27.37-36.62-23.83-17.71,3.84-28.62,20.53-24.7,37.79,3.84,16.87,20.65,27.81,37.11,24.16A31.54,31.54,0,0,0,1125.71,192.72Zm-25.58,33.09c-13.46,2.82-27.75-6.67-30.75-20.43-3.12-14.29,5.71-27.82,20.32-31.12A26,26,0,0,1,1120.63,194,26.66,26.66,0,0,1,1100.13,225.81Z"/><path class="cls-2" d="M1091.18,182.05a18.48,18.48,0,0,1,21.74,13.87,19,19,0,0,1-13.79,22c-9.46,2.28-20.19-4.66-22.15-14.34A18.43,18.43,0,0,1,1091.18,182.05Z"/><path class="cls-3" d="M746,217.08l16.18,32.78a4.39,4.39,0,0,0,3.29,2.39l36.18,5.26a4.35,4.35,0,0,1,2.41,7.43l-26.18,25.52a4.36,4.36,0,0,0-1.25,3.86l6.18,36a4.36,4.36,0,0,1-6.33,4.59l-32.36-17a4.33,4.33,0,0,0-4.05,0l-32.37,17a4.35,4.35,0,0,1-6.32-4.59l6.18-36a4.39,4.39,0,0,0-1.25-3.86l-26.19-25.52a4.36,4.36,0,0,1,2.42-7.43l36.18-5.26a4.35,4.35,0,0,0,3.28-2.39l16.18-32.78A4.36,4.36,0,0,1,746,217.08Z"/></svg>