<svg id="Layer_1" data-name="Layer 1" xmlns="http://www.w3.org/2000/svg" viewBox="0 0 4387.74 1821.77"><defs><style>.cls-1{fill:#1c3f3f;}</style></defs><path class="cls-1" d="M373.19,1564.83c69.88,0,105.87-35.95,105.87-105.88v-72c0-47.67-5.27-94.23-15.86-145-25.43-116.49-68.85-217.1-97.42-333.57-15.89-63.54-15.89-98.47-15.89-127.09V722.06c0-18,9.52-27.59,23.3-27.59,16.94,0,24.35,11.64,24.35,33.88V910.54h81.52V734.73c0-69.91-36-105.87-105.87-105.87s-105.9,36-105.9,105.87v42.34c0,41.3,3.19,86.82,22.24,163,26.47,111.23,66.72,206.49,93.19,320.9,13.76,57.16,14.82,90,14.82,123.9v77.24c0,22.24-7.41,33.89-24.35,33.89-15.89,0-23.3-11.65-23.3-33.89V1267.3h-82.6V1459C267.29,1528.88,303.31,1564.83,373.19,1564.83Z"/><path class="cls-1" d="M656,1564.83c45.54,0,99.54-23.28,99.54-84.67V642.57H675.12l-3.19,41.3c-9.53-32.77-32.83-47.59-73.07-47.59-37.05,0-56.1,25.35-56.1,77.24v378.07c0,54,19,80.43,57.18,80.43,37,0,60.35-11.63,74.1-37.06v347.28c0,17-8.48,24.4-26.46,24.4s-26.48-7.42-26.48-24.4V1211.17H542.76v269C542.76,1536.29,574.52,1564.83,656,1564.83Zm-8.46-460.58c-18,0-26.48-8.44-26.48-25.43V722.06c0-15.95,8.47-25.43,26.48-25.43,18,6.29,26.46,16.89,26.46,33.88v348.31C674,1095.81,665.56,1104.25,647.58,1104.25Z"/><path class="cls-1" d="M904,1111.68c31.75,0,47.64,10.61,47.64,33.88v303.91c0,52.94,3.19,85.79,11.64,102.68h75.53a6.35,6.35,0,0,0,6-8.32c-6.35-19.72-9.54-49.9-9.54-91.17v-296.5c0-45.88-23.48-71.1-72.21-77.41a1.52,1.52,0,0,1-.18-3c48.85-12.27,72.39-43.28,72.39-92.21V742.16c0-66.73-39.19-99.59-111.18-99.59H822.44v909.58H904Zm0-405.57h18c20.12,0,29.64,11.64,29.64,35v265.72c0,24.4-9.52,37.09-29.64,37.09H904Z"/><path class="cls-1" d="M1307.56,1564.83c69.88,0,104.83-35.95,104.83-105.88V1145.56h-81.53v316.58c0,22.24-7.41,33.89-23.3,33.89s-23.28-11.65-23.28-33.89V728.35c0-21.11,7.39-32.84,23.28-32.84s23.3,11.73,23.3,32.84v283.83h81.53V734.73c0-69.91-35-105.87-104.83-105.87s-105.88,36-105.88,105.87V1459C1201.68,1528.88,1237.68,1564.83,1307.56,1564.83Z"/><path class="cls-1" d="M1583,1564.83c71,0,107-35.95,107-105.88V734.73c0-69.91-36-105.87-107-105.87-69.88,0-105.87,36-105.87,105.87V1459C1477.12,1528.88,1513.11,1564.83,1583,1564.83ZM1559.7,725.18c0-20.1,7.41-30.71,23.29-30.71,17,0,24.37,10.61,24.37,30.71v738c0,21.21-7.42,32.86-24.37,32.86-15.88,0-23.29-10.6-23.29-31.73Z"/><polygon class="cls-1" points="1934.66 1478 1836.2 1478 1836.2 642.57 1754.67 642.57 1754.67 1552.15 1934.66 1552.15 1934.66 1478"/><polygon class="cls-1" points="2152.9 1478 2054.45 1478 2054.45 642.57 1972.9 642.57 1972.9 1552.15 2152.9 1552.15 2152.9 1478"/><path class="cls-1" d="M2299.15,1564.83c64.58,0,106.93-30.7,106.93-84.67V1165.64h-82.6v314.52c0,15.87-7.39,22.25-24.33,22.25-18,0-26.49-6.38-26.49-22.25V1126.51h110.7a22.72,22.72,0,0,0,22.72-22.72V710.33c0-48.7-40.23-81.47-108-81.47-72,0-108,32.77-108,90v749.65C2190.09,1532.07,2227.14,1564.83,2299.15,1564.83Zm-26.49-853.37c0-16,8.49-23.37,26.49-23.37,16.94,0,24.33,7.42,24.33,23.37v358.92h-50.82Z"/><path class="cls-1" d="M2576.71,1564.83c69.88,0,104.83-35.95,104.83-105.88V1145.56H2600v316.58c0,22.24-7.42,33.89-23.29,33.89s-23.29-11.65-23.29-33.89V728.35c0-21.11,7.4-32.84,23.29-32.84S2600,707.24,2600,728.35v283.83h81.54V734.73c0-69.91-34.95-105.87-104.83-105.87s-105.88,36-105.88,105.87V1459C2470.83,1528.88,2506.83,1564.83,2576.71,1564.83Z"/><polygon class="cls-1" points="2797.09 1552.15 2878.62 1552.15 2878.62 713.52 2949.56 713.52 2949.56 642.57 2725.08 642.57 2725.08 713.52 2797.09 713.52 2797.09 1552.15"/><rect class="cls-1" x="2994.16" y="642.57" width="81.52" height="909.58"/><path class="cls-1" d="M3358.46,1452.66v-270c0-45.06-25.93-70.44-79.89-77.13a1.87,1.87,0,0,1-1.64-1.84h0a1.86,1.86,0,0,1,1.54-1.83c54-9.73,80-37.13,80-82.23V742.16c0-66.73-39.18-99.59-115.42-99.59h-95.53a1.86,1.86,0,0,0-1.86,1.86v905.86a1.86,1.86,0,0,0,1.86,1.86H3243C3319.28,1552.15,3358.46,1519.31,3358.46,1452.66ZM3227.17,706.94a1.86,1.86,0,0,1,1.86-1.86h16.15c20.11,0,29.64,11.63,29.64,36v293.24c0,23.36-9.53,36-29.64,36H3229a1.86,1.86,0,0,1-1.86-1.86Zm0,432a1.87,1.87,0,0,1,1.86-1.87h16.15c20.11,0,29.64,11.64,29.64,34.91v276.33c0,23.36-9.53,36-29.64,36H3229a1.86,1.86,0,0,1-1.86-1.86Z"/><polygon class="cls-1" points="3604.26 1478 3505.77 1478 3505.77 642.57 3424.26 642.57 3424.26 1552.15 3604.26 1552.15 3604.26 1478"/><path class="cls-1" d="M3750.49,1564.83c64.57,0,106.93-30.7,106.93-84.67V1165.64h-82.57v314.52c0,15.87-7.41,22.25-24.36,22.25-18,0-26.47-6.38-26.47-22.25V1126.51h111.65a21.75,21.75,0,0,0,21.75-21.75V710.33c0-48.7-40.24-81.47-108-81.47-72,0-108,32.77-108,90v749.65C3641.43,1532.07,3678.48,1564.83,3750.49,1564.83ZM3724,711.46c0-16,8.45-23.37,26.47-23.37,17,0,24.36,7.42,24.36,23.37v358.92H3724Z"/><path class="cls-1" d="M4024.87,1564.83c69.88,0,105.88-35.95,105.88-105.88v-72c0-47.67-5.28-94.23-15.86-145-25.44-116.49-68.84-217.1-97.43-333.57-15.88-63.54-15.88-98.47-15.88-127.09V722.06c0-18,9.53-27.59,23.29-27.59,17,0,24.37,11.64,24.37,33.88V910.54h81.51V734.73c0-69.91-36-105.87-105.88-105.87s-105.9,36-105.9,105.87v42.34c0,41.3,3.21,86.82,22.26,163,26.46,111.23,66.7,206.49,93.18,320.9,13.76,57.16,14.83,90,14.83,123.9v77.24c0,22.24-7.42,33.89-24.37,33.89-15.87,0-23.29-11.65-23.29-33.89V1267.3H3919V1459C3919,1528.88,3955,1564.83,4024.87,1564.83Z"/><circle class="cls-1" cx="321.34" cy="257.06" r="64.27"/><path class="cls-1" d="M37.5,0A37.5,37.5,0,0,0,0,37.5V1784.27a37.5,37.5,0,0,0,37.5,37.5H4350.24a37.5,37.5,0,0,0,37.5-37.5V37.5A37.5,37.5,0,0,0,4350.24,0ZM4221.78,1693.31H166a37.5,37.5,0,0,1-37.5-37.5V551.57a37.5,37.5,0,0,1,37.5-37.5H4221.78a37.5,37.5,0,0,1,37.5,37.5V1655.81A37.5,37.5,0,0,1,4221.78,1693.31ZM4259.2,257.06v91a37.5,37.5,0,0,1-37.5,37.5H166a37.5,37.5,0,0,1-37.49-37.5V166A37.5,37.5,0,0,1,166,128.52H4221.7a37.5,37.5,0,0,1,37.5,37.5Z"/><circle class="cls-1" cx="4066.48" cy="257.06" r="64.27"/></svg>