<svg id="Layer_1" data-name="Layer 1" xmlns="http://www.w3.org/2000/svg" viewBox="0 0 6467.72 4120.07"><defs><style>.cls-1{fill:#f2f2f2;}.cls-2{fill:#050605;}.cls-3{fill:#424241;}.cls-4{fill:#c2c2c1;}.cls-5{fill:#5c5e5d;}.cls-6{fill:#030909;}.cls-7{fill:#333;}.cls-8{fill:#1f4041;}.cls-9{fill:#1e4041;}.cls-10{fill:#515151;}.cls-11{fill:#474747;}.cls-12{fill:#525252;}.cls-13{fill:#484848;}.cls-14{fill:#484847;}.cls-15{fill:#1f1f1f;}.cls-16{fill:#474848;}.cls-17{fill:#7b7b7e;}.cls-18{fill:#202020;}.cls-19{fill:#454646;}.cls-20{fill:#1f1f1d;}.cls-21{fill:#c8c8c8;}.cls-22{fill:#20403f;}.cls-23{fill:#203f41;}.cls-24{fill:#203f40;}.cls-25{fill:#214042;}.cls-26{fill:#1f201f;}.cls-27{fill:#214140;}.cls-28{fill:#213e3f;}.cls-29{fill:#233e3f;}.cls-30{fill:#213f3f;}.cls-31{fill:#2c3a3a;}.cls-32{fill:#2f3e3f;}.cls-33{fill:#283031;}.cls-34{fill:#4d4d4d;}.cls-35{fill:#eee;}.cls-36{fill:#ededed;}.cls-37{fill:#242c2d;}.cls-38{fill:#04090a;}.cls-39{fill:#03090a;}.cls-40{fill:#040a0b;}.cls-41{fill:#030e0f;}.cls-42{fill:#060706;}.cls-43{fill:#040404;}.cls-44{fill:#070707;}.cls-45{fill:#030303;}.cls-46{fill:#050505;}.cls-47{fill:#060606;}.cls-48{fill:#070808;}.cls-49{fill:#080808;}.cls-50{fill:#090909;}.cls-51{fill:#060605;}.cls-52{fill:#040504;}.cls-53{fill:#080909;}.cls-54{fill:#0a0a0a;}.cls-55{fill:#f0f0f0;}.cls-56{fill:#204041;}.cls-57{fill:#233d3e;}.cls-58{fill:#253e3e;}.cls-59{fill:#949494;}.cls-60{fill:#464646;}.cls-61{fill:#ececec;}.cls-62{fill:#adadab;}</style></defs><path class="cls-1" d="M6096.1,2474.79c-10.91,33.42-8.86,70.72-6.46,113.94l.34,6.07c13.09,239.22-24.22,441.26-114.15,617.8-18,35.21-41,68.92-72.7,106.06-62.3,73.21-145.47,113-240.54,115-6.76.13-13.57.21-20.33.21-57.41,0-116.33-5-180.13-15.32-104.61-16.85-185.64-72.86-240.92-166.52a642.13,642.13,0,0,1-42.45-86,732.32,732.32,0,0,1-31-95.28l-8.21-15.07c-26.83,4.88-54,10.79-82.15,16.82-14.51,3.12-29.05,6.25-43.6,9.28-213.2,44.07-441.64,91.57-667.55,139.92-16.69,3.59-33.33,6.8-49.38,9.92-37.09,7.15-72.56,14-105.42,24.52-16,112.48-46.72,218.55-91.48,315.68-36.24,78.76-97.85,192.53-213.59,270.92a381.56,381.56,0,0,1-86.34,44.15,342.74,342.74,0,0,1-95.15,19.43c-20.16,1.45-40.91,2.18-61.7,2.18-19.86,0-40.31-.68-60.8-2-33.08-1.24-68.46-3.46-105.13-8.64-55.79-7.83-114.49-22.42-172.38-50.53-119.63-58.11-182.7-162.72-219.71-236.35a811.1,811.1,0,0,1-61.66-166.18c-61.05-4-122.45-7.92-182.22-11.73-170.89-10.87-347.55-22.08-521.52-36.32-108.42-8.86-218.85-17.25-325.65-25.38-73.21-5.52-148.94-11.29-223.47-17.15-58.06-4.58-110.82-9.2-159.89-14-40.09,80.74-89.77,148.6-151,206.49-90.15,85.23-195.48,128.4-313.06,128.4-10,0-20.15-.3-30.25-.94-56.91-3.51-124.17-8.94-191.73-22.55-140.51-28.32-249.18-111.84-332.19-255.39q-13.41-23.24-25.11-47.58A759.36,759.36,0,0,1,519,3218.07v0q-10.45-38.13-17.79-79v0c-3.34-18.53-6.25-37.57-8.6-57v0q-1.87-14.38-3.26-29.06c-17.88-28.88-40.64-66.14-62.93-104.82-32.74-56.87-50.06-120.4-53.06-194.34-1.2-30.29-2.27-61-3.21-90.92v0l-5.86-1.41V2394.78l1.24-7.19c32.05-187.06,128.36-339.46,219.49-468.29-2.61-13.74-2.56-25.63-2.52-34v-2.43c0-12.41-.13-24.82-.17-37.23-.22-46.16-.43-94,.55-141.45C584,1653,603.21,1607.56,638,1572.39a214,214,0,0,1,37.61-30.21,1.94,1.94,0,0,1,.6-.39l5.56-3.42c.56-.38,1.16-.73,1.76-1.07,20.11-12.45,39.83-25.29,60.71-38.85,86.43-56.13,175.81-114.15,285.56-142.22C1139,1328.29,1257,1306.64,1401,1288.16l24-3.13c19.12-2.48,38.64-5,58.32-7.4-3.47-64.13.38-126.69,4.15-187.62l.55-8.9c4.54-73.84,47.45-121.59,120.79-134.39a529.84,529.84,0,0,1,91.82-7.57c22.38,0,45.74,1.2,71.41,3.59,3.08.3,6.07.65,9,1,73.47-129,155-266.94,248.38-420,64.52-105.85,161.13-168.06,287.18-185,170.16-22.81,336.73-36.76,491.35-48.35,338.79-25.5,694.6-38.42,1057.51-38.42,96.23,0,194.89.9,293.26,2.69,109.66,2,220,9,326.75,15.83q53.79,3.46,107.61,6.72c107.31,6.29,221.72,13.56,336.9,27.13,219.49,25.88,392.95,70.51,545.87,140.55,8.72,4,16.6,8.17,23.57,11.85,5.31,2.82,10.36,5.48,14.59,7.45,78.73,36.19,126.65,102.73,138.59,192.49,2.22,16.94,4.75,33.67,7.35,51.39,2.53,16.94,5.1,34.44,7.45,52,3.08,23,.77,44.8-6.55,64.52,19.86,31.41,29.61,64,37.36,90,1.71,5.69,3.42,11.38,5.22,17,18.91,59.26,36,119.42,52.54,177.65,4.15,14.55,8.26,29.1,12.45,43.69,4.41,15.44,11.17,25.62,22.55,34,9.11,6.67,18.14,13.48,27.21,20.28,16.94,12.79,33,24.86,49.16,35.77,57.72,38.85,91.05,97,96.44,168,4.06,53.7,2.61,106.07,1.2,156.68-.34,12.71-.73,25.12-1,37.31-.12,6-.21,12-.3,18-.08,4.88-.12,9.72-.12,14.59a128.62,128.62,0,0,1-2.87,26.1c51,41.76,70.38,99.1,85.23,143l2.82,8.3c52.07,152.36,77.62,296,78.17,439.24C6127.2,2338,6117.15,2410.14,6096.1,2474.79Z"/><path class="cls-2" d="M3586.7,3821c-84.34-3-167.19-13.15-244.41-50.66-86.5-42-139.06-115.11-180.66-197.82a729.51,729.51,0,0,1-64.19-189.22c-3-15.56-9.3-19.95-24.9-21-248.61-16.67-497.41-30.53-745.78-50.85-183.06-15-366.26-28.14-549.36-42.54-66.68-5.25-133.32-11.11-199.82-18.16-14.82-1.57-20.91,2.11-26.72,15.42-35.93,82.28-84.13,156.16-149.88,218.31-78.61,74.31-170.7,110.94-279.26,104.24-60.4-3.72-120.53-9-180.05-21C814,3542,729.59,3462.2,666.63,3353.34c-56.44-97.57-82.33-203.63-92.59-314.48-.95-10.26-4.29-18.77-9.69-27.5-21.71-35.05-43.16-70.29-63.73-106-27.57-47.88-39.5-100.29-41.7-155.06-2.08-51.92-3.59-103.86-5.35-155.78-3.05-15.16-.69-30.48-1.45-45.69-1.23-14.72,2.61-29.69-2.2-44.24V2402c29.27-170.92,118.84-312.79,217.19-450.43,6,2.49,10.1,6.51,10.83,13.3-15.69,33.64-39.1,62.54-58.15,94.13-50,83-98.21,166.78-127.92,259.78-23.82,74.56-25.85,150.62-20.68,228,3.79,56.64,7.3,113.41,6.56,170.36-.47,36.27,3.6,72.52,13.57,107.61,15.16,53.35,46.66,98.55,72.93,146.55,22.12,40.4,55.06,57.1,97.53,66.43q81.33,17.86,162.58,36.36c28.38,6.47,33.06,2.57,34-26.07.71-22.19,3.68-44,10.62-65.07,15.43-46.84,47-71.4,96.21-74,52.71-2.77,105.2,2.24,157.68,6.3,61,4.72,121.89,10.11,182.87,14.57,70.2,5.14,140.37,10.7,210.58,15.63,61.72,4.33,123.38,9.27,185,14.3,71.57,5.83,143.16,11.46,214.81,16,75.26,4.76,150.29,11.92,225.37,18.49,64.48,5.65,129.08,10.53,193.26,18.66a320.53,320.53,0,0,1,131.74,46.79c61.18,38.42,120.31,78.67,165.64,136.23,13.49,17.12,32,23.2,54.19,25,74,6.07,148,4.26,222,3.12,37.44-.58,75.33-.72,112.45-8.18a16.53,16.53,0,0,1,13.64,2.38c30.66,12.45,42,9.21,59.57-16.23,36.75-53.33,73.17-106.9,99.65-166.3,27.24-61.11,40-125.79,46.19-192.08,8.24-87.71,14.49-175.76,42-260.4,24.86-76.38,61.93-146.67,105.82-213.57,29.31-44.69,61.47-87.29,97.65-126.63,32.51-35.34,74.51-55.14,120.6-64.29,88-17.47,176.87-28.6,266.41-35.35,30.44-2.29,61-2.55,91.44-6.67,22.48-3.05,45.65-3,65.21,12.46a10,10,0,0,1-.58,10c-12.51,5.43-25.26.27-37.91.67-78.26,2.45-156.11,9.61-233.79,19.1-51.58,6.3-103.09,12.81-153.61,25.49-49.25,12.36-89.67,37.39-121.76,77.57-76.05,95.22-141.81,196.18-179.11,313.25-19.06,59.85-28,121.94-33.61,184.32-8.78,97.92-16.09,195.84-63.12,285.42-24.21,46.11-51.49,90.2-80.6,133.27-4.5,6.66-11.63,12.45-10.67,23.78,17.25-7.39,27.85-20.75,37.22-34.4,35-51.06,71.17-101.54,97.79-157.72,17.74-37.44,28.46-77.38,37.47-117.75,12.39-55.6,21.23-111.88,30.06-168.06,21.56-137.16,83.57-254.82,172-359.33,33.54-39.62,75.95-67.32,129.07-78.09,111.81-22.66,224.28-38,338.35-43.55,59.74-2.93,98.4,26.41,129,71.85,36.94,54.94,55.92,116.91,63.17,181.91,10.12,90.76,5.82,181.65-2,272.53a1033.83,1033.83,0,0,1-20.59,134.83c-4.8,21.68-1.57,43.79-2.41,69.11,15.42-9.15,20.46-21.61,25.43-34.53,4.24-11,3.9-24.31,15-32.16,5.56-1.2,9.09,1.47,11.61,6.08,2.28,26.16-5.86,48.92-23.84,70.32,386.7-76.23,772-151.65,1161.64-228.34-40.8-22.34-76.62-46-116.14-63.15-8.2-3.56-16.72-2.57-25.22-1-86.74,16.31-173.25,33.73-259.89,50.54-166.29,32.27-332.44,65.27-498.88,96.84-65,12.33-130.36,22.79-194.9,37.56-13.45,3.08-25.86,7.49-36.44,16.49-5.77,1.43-9.69-.81-12.11-6.05-.26-30.08-1.07-60.24,10.23-89,10.65-6.22,13.18,1.34,15.28,9.19,1.92,7.22-.6,15.33,4.45,21.86,9.57,8.59,19.79,2.46,29.69,1.25,8.87-1.08,17.47-4.54,26.67-3,6.51,1.81,10.4,5.4,8.76,12.78-17.05,15.72-40.12,10.29-59.77,16.93-2.41.82-5.31-.32-7.59,1.4,57.88-9,114.34-24.83,172-35.21,107-19.29,213.61-41,320.29-62,96.22-19,192.68-36.71,288.76-56.35q84.58-17.3,169.58-32.41c20.24-3.58,32-12.58,36.82-32.43,15.89-65.73,30.4-131.68,42.45-198.27,12.31-68,18.45-136.73,29-204.91,12.31-79.5,37.63-154.83,70.28-227.78,27.07-60.47,61.85-117,93.88-174.89,30.83-55.74,78.54-88.43,139.55-103.77,57.32-14.41,115.17-25.2,174.31-28.31,10.42,1.11,22.11-2.93,30.27,7.36,1,12.06-8.43,11.59-15.76,12.33-56,5.68-111.22,15.77-166.4,26.75-66.32,13.2-115.95,47.47-148.68,107.15-45.87,83.63-93.73,166.2-123.56,257.49-23.09,70.67-34.28,143.52-43.26,217.12a2448.44,2448.44,0,0,1-57.65,308.17c-7.62,29.9-6,29.55,20.8,43.49,27.76,14.45,55,30,82,45.85,23.17,13.61,25.23,13.14,29.89-14.27,16-94,34-187.62,49.12-281.76,12.17-75.85,23.8-151.78,51-224.39a843.1,843.1,0,0,1,51.39-112.49c23-41.68,47.12-82.85,76.65-120.57,20-25.58,44.4-44,76.22-51.62,57.5-13.82,115.45-24.86,174.65-28.22,26.17-1.49,51.9-5.27,78.63-1.64,38.78,5.27,68.65,20.57,83,54.05-7.64-24.23-13.94-52.63-22.76-80.29-10-31.23-21.9-61.64-34.53-91.85-10.61-25.37-27.17-44.82-51.88-57.1-8.31-6.87-21.53-1.08-30.41-12.46,13.09-3.3,14.51-22.93,31.9-18.67,3.46,3.53,6.31,8.23,10.48,10.41,51.2,26.85,66.05,78.54,82.51,126.73,45.54,133.3,73,270.24,73.57,411.89.25,66-6.32,131.43-26.61,193.7-16.51,50.69-13,100.09-10.17,151.22,10.94,199.6-12.78,393.31-105,574.24-16.54,32.47-37.95,61.72-61.58,89.46-46.54,54.64-105.64,83.35-177.22,84.88-62.05,1.32-123.68-4.11-185-14-80.72-13-139.65-55.76-180.88-125.59-41.46-70.23-65-146.48-78.07-226.23-2.76-16.89-7.61-22.58-25.33-20.67-66,7.09-130.27,23-195,36.37q-334.24,69.12-668.11,140.06c-66.55,14.25-134.59,22.9-198.3,49.56-13.45,5.63-17.76,11.85-19.29,25.1-12.9,112.27-41.18,220.58-88.49,323.31-42.73,92.78-97.21,177.17-183.88,235.9-41.92,28.41-88,46-139.06,49A823.92,823.92,0,0,1,3586.7,3821Z"/><path class="cls-3" d="M3586.7,3821l112.65-.1a4.87,4.87,0,0,0-.69,3.82H3587.52A3.76,3.76,0,0,0,3586.7,3821Z"/><path class="cls-4" d="M453.34,2548l.23,46.51-1.85.24-1.8-.45v-47C451.53,2545.22,452.65,2545.55,453.34,2548Z"/><path class="cls-5" d="M453.34,2548l-1.82.22-1.6-.91v-42.73C457.21,2518.56,454,2533.37,453.34,2548Z"/><path class="cls-6" d="M4262.94,2859.53c-.11-5.86-3.2-8.77-8.95-9.08,1.24-10,9.86-8.84,16.27-10.35,70-16.49,141-28.17,211.61-41.88,143.3-27.84,286.46-56.37,429.83-83.81q99.66-19.08,199.22-38.61c27.62-5.4,42.8-18.14,47.37-45.89,2.85-17.28,2.67-19.06-14.89-16.19-39.39,6.43-78.08,16.22-117.07,24.61-229.75,49.44-459.09,100.74-688.49,151.76-25.71,5.71-51.9,9.12-77.42,15.87-9.66,2.56-20.54,5-27.17-5.46-6.46-10.15,2.37-17.18,7.55-24.44a172.06,172.06,0,0,1,19.28-22.82c136.14-133.72,265.73-273.93,402.85-406.66,93.55-90.56,186.73-181.58,282.83-269.43,99.26-90.73,197.17-183.22,305.69-263.22,36.65-27,73.05-54.63,113.61-75.75,16.73-8.71,26-21.17,27.23-40.06,5.81-90.39.25-179.56-34-264.51-15.57-38.64-47.67-65.17-78.78-91.29-11.61-9.75-27.24-7.38-41.34-6.06-56,5.26-111.64,13.42-167.61,18.7-110.51,10.42-220.54,25.1-330.95,36.35-45.31,4.61-90.69,8.44-136,13.56-18.35,2.08-26.87,8.81-28.11,29.08-2.75,44.91-14.67,55.86-59.47,62.62-10.63,1.6-21.31,1.41-32,1.42-93.31,0-186.62.17-279.93-.11-21.47-.06-24.62.93-16.94,22,9,24.79,10,51.75,12,77.86,8.35,110.69,13.44,221.63,9,332.59-3.14,78.8-4.57,157.89-13.05,236.26-6.25,57.69.91,113.47,9.64,169.71,7.24,46.73,3.19,93.79,4.16,140.71,1.9,92.51-6.25,184.84-5,277.4.38,27.5-4.06,55.24-3.82,83,.05,6.35-.36,12.94-6.12,17.45-6.38-6.44-3-14.59-3.82-22-.69-6.56,2.22-14.81-8.22-16.46-11.9-16.72-7.52-36.06-5.84-53.6,6.92-72.36.33-144.87,4-217.13,4.77-94.48-17.2-183.1-52.84-269.35-19.08-46.17-42-89-92.69-108.14-3.92-1.48-7.46-4.31-6.87-9.55l0-8.1c8.75-8.19,17.41-2.84,25.69.63,33.59,14.07,58.35,37.93,74.21,70.44,27.18,55.72,51.83,112.39,59.5,174.79a2.64,2.64,0,0,0,1.77,2.28,355.87,355.87,0,0,1-8.21-51.74c-9.51-107.33-38.13-209.56-79-308.9-18.83-45.75-51.64-70.28-100.07-79.22-63.89-11.8-127.65-8.51-191.43-3.1-93.65,7.94-186.62,21.28-278.42,41.83-79.69,17.83-145.08,54.69-186.46,129.54q-39.21,70.92-79,141.63c-42.88,76.24-86.9,151.93-116.79,234.73-15.89,44-20.72,89.83-26.41,135.69-8.24,66.33-12.16,133-17.48,199.58-9.11,114.18-23.45,227.72-50.72,339.18-3.94,16.1-2.89,36.33-22.77,45-1.74-3.81-5.06-4.8-8.85-4.95-2.42-20.37,6.53-38.83,11-57.78,26-111,39-223.68,48.07-337.19,7.52-94,11.38-188.53,31.62-281.38,14.63-67.14,45-127.27,77-186.64,44.51-82.59,89.78-164.79,136.76-246,20.38-35.25,47.61-63.41,78.85-88.52,56-35.92,120-46.65,183.64-57.94,59.34-10.54,119.13-18.83,179.18-24.23,77.87-7,155.86-11.7,233.74.24-20.52-2.65-40.78-7.3-61.88-6.66-22.06.67-44.16.14-66.24.15s-44,2-65.95,3.34c-80.23,4.86-159.28,17.68-238.4,30.67-58.56,9.62-114.85,26.23-168.44,51.79-69.31,37.56-127.52,90.41-189.65,137.8-99,75.53-190.14,160.8-290.59,234.77-59.55,43.85-117.32,90.28-176.31,135-55.57,42.1-118.8,65.11-189.07,71.55-77.78,7.12-154.81-1.11-232.17-4.24-39.79-1.61-79.59-3.29-119.36-4.64-77.48-2.64-154.72-9.09-232.12-12.29-39.78-1.64-79.55-3.87-119.34-5.1-64.7-2-129.08-9-193.69-11.81q-77.82-3.42-155.4-9.79c-77.94-6.42-156-11-234.06-15.66-71.69-4.31-143.23-10.48-214.92-14.8-62.42-3.77-124.83-8.91-187.14-14.51-27.52-2.47-55.23-1.64-82.54-9.23-48-13.34-80.44-42.41-94.89-89.46-16.52-53.78-25.5-108.89-29.93-165.32-6.38-81.27,5-160.18,21.46-239,1.89-9,3-18.35,9.06-25.93,13.67-6.47,21.21-.59,25.22,12.47-.84,18.51,8.14,34.45,14.41,50.82,27.48,71.81,66.15,137.42,117.7,194.37,41.36,45.71,93.88,73.31,155.79,81.37,54.36,7.08,109.26,7.54,163.72,13.32,22.07,2.35,39-4.14,54.16-22.11,21.65-25.61,51.83-36.33,85.45-37.64,42.09-1.64,83.94,3.12,125.74,5.88,39.72,2.62,79.54,3.88,119.26,6.29,110,6.67,220.13,11.3,330.2,16.67,41.17,2,82.3,6.27,123.65,5.46,61.35-1.2,115.58,15.19,154.82,66,11.7,15.17,28.24,18.66,45.65,18.91,91.77,1.31,183.34,7.9,275.12,10,77.44,1.74,154.8,8,232.44,7.94,52.54-.06,101.18-12.06,148.41-34.15,57.27-26.8,107.33-64.59,157.68-101.69,92.84-68.41,182.41-141.1,273.27-212.1,72.83-56.91,154.59-92.38,245.31-109.12,97.41-18,195.47-31.09,294.19-37.81,48.14-3.28,96.72-3.54,145.07,1.74,59.66,6.51,101,39.58,130.53,89.17,30.11,50.64,45.05,107.32,61.14,159.86,6-66.31,9.4-136.09,12.1-205.85,2.86-73.9,3.51-147.9-.92-221.87-3-49.67-3.89-99.44-9.92-148.92-3.07-25.14-3.08-26.34-29-22.45-100,15-200.06,29.31-300.44,41.21-126.54,15-252.68,33.06-379.1,49-125,15.75-249.55,34.46-374.83,47.73-4.35.46-8.2,2.29-12.29,3.48-17.24-3.35-35.25-4.58-49.18-17.35,4.45-7.12,11.85-7.24,18.9-7.61,75.49-4,150-16.26,224.85-25.79,208.38-26.55,416.47-55.29,624.89-81.57,79.82-10.07,159.39-22.36,239.08-33.53,9.75-1.36,25.65,3.21,25.34-14.86-.26-14.79-14.53-23.59-33-21.71-47.5,4.84-94.14,15.59-141.62,20.74-11.48,1.25-22.65,1.63-33.86-1.5-21.32-6-36.63-23.09-38.64-43.5-1.83-18.68,10.67-37,31.51-46.23,13.07-5.79,27.23-7.76,41-11.27-61.61-8.27-119.31,13.13-178.31,23-162.26,27.25-324.31,56-487.68,75.72-75.51,9.1-151.74,11.66-227.82,15.33-268.35,12.92-536.84,7.72-805.27,7.56-131.63-.08-263.28-5.46-394.9-8.85-91.74-2.37-183.58-4.49-275.21-8.65-114.4-5.2-229-6.26-343.23-15.37-75.88-6-152.69-4.81-227.43-19.06-44.86-8.56-79.65,3.14-116.26,25.53-63.14,38.62-127.86,74.68-190.3,114.51-14.66,1.53-11.6-9.29-12.22-17.54,104.33-64.52,203.14-141.06,324.24-172.05,118.51-30.32,239.42-50.5,360.89-66.11,45.89-5.89,91.76-12.21,137.81-16.53,20.06-1.89,26.47-11.65,24.07-29.32-10.9-80.27-5.32-160.54-.38-240.81,2.17-35.28,15.75-49.32,50.1-55.31,46.73-8.15,93.6-7.49,140.52-3.08,28.63,2.69,32.27,5.49,47.1,30.67,9.6-7,13.33-17.94,18.73-27.52,88-156,179.35-309.9,272.57-462.8C2154.79,482.46,2228.23,437,2328,423.62c161.67-21.68,323.91-35.61,486.42-47.84,447-33.61,894.69-43.6,1342.77-35.48,143.79,2.61,287.3,14,430.88,22.4,110.86,6.5,221.62,13.72,331.93,26.71,179.39,21.13,354.89,57.64,520.27,133.38,12.9,5.91,25.12,13.28,38,19.21,54.11,24.88,81.82,68.17,89.51,126,4.59,34.54,10.22,69,14.85,103.49,2.07,15.45-1.16,29-14.13,40.19-11.94,10.28-8.42,26.43-.12,34.16,32.84,30.64,41,72.56,53.55,111.86,23.13,72.39,43.31,145.72,64.22,218.8,9.36,32.68,26.8,59.35,54.26,79.47,26.4,19.33,52.05,39.74,79.17,58,37.14,25,55.57,59.83,58.88,103.53,5.55,73.28-.19,146.56-.43,219.84,0,9-3.93,18-5.92,27-3.1,14-5.21,27.92,2.69,41.2-14.43-1.11-7.82,25.45-27.15,18,9.15,6.53,19.71-.57,26.87,7.37-3.89,4.81-9.44,6.27-15.11,6.5-27.53,1.09-55.06,1.31-82.58-.13-5-.26-9.73-1.76-13.36-5.6-9-9-20.38-2.73-30.45-4.89-.34-3.26.88-5.38,4.31-5.89-.36-.49-.8-.11-1.15,0-39.58,7.74-80,9.93-119.55,17.78-52.94,10.51-105.75,21-150.82,53.59-4,2.9-8.68,4.89-14,4.4-4.82-2.23-7.17-6-7.15-11.29,2.27-10.82,10.6-16.43,19.06-21.82,21.23-13.52,44.46-22.59,68.69-28.72,65-16.43,131.13-25.81,198-31.38,31.26-2.6,62.43-3.89,93.75-4,18.58,0,30.69-17.62,24.64-34.57-3.17-8.87-10.52-5.79-16.3-5.12-45.94,5.36-92,9.92-137.89,15.33-33.91,4-67.9,7.09-101.79,11.38-53.45,6.76-104.25,22-154.12,41.73-18.23,7.22-29.39,18-33.73,37.47-6.22,27.75-13.53,55.28-19.66,83.07-1.53,7-2.36,14.07-7.15,19.82-4.27,4.46-9.11,7.32-15.58,5.39-7.62-6.35-3.87-14.36-3-21.83,3.64-30.34,15.22-59,20.35-88.76-6.49-4.32-10.13.56-13.85,3-94.75,61-182.19,131.16-266.52,205.83-116.66,103.31-229.45,210.56-341.18,319.14-59.7,58-119.46,116-177.75,175.34-98.15,100-196,200.21-295.35,299-2.83,2.82-6.85,5-7.4,10.8,56.58-12.14,113.18-22.5,169-35.84,84.45-20.17,169.46-37.74,254.13-56.81,127-28.61,254.49-55,381.39-84.06,23.56-5.39,47.58-8.48,70.88-15.4,13.3-4,20.33-11.29,23-24.72,2.87-14.68,3.83-29.66,7.18-44.2,1.78-7.74.42-17.88,11.47-20.82,4.92.78,8.91,3,11.35,7.48a27.13,27.13,0,0,1,1.49,16.76c-9.65,46.69-17.3,93.8-30.31,139.77-5.76,20.33-16.72,30.69-39.42,35.24-85.38,17.12-170.76,34.28-256.31,50.56-96.06,18.29-192.13,36.57-288,55.87-81.91,16.5-164.16,31.21-246,48-22.18,4.53-44.11,10.48-66.65,13.41C4274.63,2862.44,4268.51,2864.56,4262.94,2859.53Z"/><path class="cls-7" d="M3027.27,1688.4c17.8-2.72,32.74,5.35,47.85,12.74,23-.18,36.69,14,39.58,39.88,3.64,32.61,2.55,65.08.81,97.8-2.18,41.14.27,82.42-4.35,123.63-3.72,33.12-14,62.15-38.69,85.36-49.93,47-104,88.58-161.45,125.86-25.66,16.65-50.91,33.89-77.88,48.59-41.76,22.77-86.27,31.47-133.4,32.53-82.63,1.86-165.16-2-247.58-5.44-78.19-3.31-156.53-2-234.57-8s-156.43-4-234.58-8.19c-98-5.31-196.13-8.26-294.08-13.71-119.27-6.64-238.58-13.13-357.73-21.39-118.47-8.2-236.93-16.87-355.41-24.94-116-7.91-194.36-72.14-254.41-165.18-3.72-5.76-8.26-11.84-6.73-19.67-3.78-9.66-12.31-11.85-21.2-13.47-6.87-2.63-10.83-9.08-16.86-12.81-6.6-.34-8.73-4.76-9.48-10.41,8.5-13.23,10.36-26.48,4-41.75-3.38-8.09-3-18.08-3-27.22-.16-58.89-.83-117.79.38-176.65.88-42.24,22-73.57,58.33-94.82,7.86,3.06,2.32,14.15,10.29,17.14,20.77-11.4,43.6-8,64.85-5.42,44,5.24,88.18,4.3,132.13,6.15,58.92,2.48,118,5,177,6.32q163.17,3.71,326.35,8.7c95.26,2.75,190.51,5.68,285.77,8.26,122.32,3.31,244.65,5.78,366.94,9.2,56.91,1.6,113.83,1.16,170.69,3.2,149.33,5.37,298.72,6.83,448.11,9.33,96.68,1.62,193.34,6.28,290.07,7.74C3008.79,1681.94,3019.18,1680.54,3027.27,1688.4Z"/><path class="cls-8" d="M676.59,1962c14.09-6.87,12,7.49,16.86,12.81-13.77,65.89-26.51,132-28.9,199.45-1.55,43.94,1.13,88.16,9.77,131.25,5.8,29,10.59,58.23,18.35,87,18.78,69.75,66.58,97.32,132.49,103,94.65,8.22,189.46,14.66,284.23,21.36,51,3.6,102.1,5.05,153,9.43,92.54,8,185.42,10.59,277.87,20.15,50.76,5.26,101.93,6.9,153,9.11,93.62,4.06,187,11.26,280.78,14,84.37,2.48,168.63,9.34,253.06,12.8,90.07,3.69,180.07,9.31,270.21,11.7,108.52,2.88,201.93-34.12,285.37-102.86,69.52-57.27,143-109.77,213.5-165.83,51.09-40.59,99.6-84.43,150.53-125.23,52.56-42.09,105.24-84.06,159.35-124.25,30.25-22.46,59.54-45.79,93.27-62.88,9.42-.29,12.95,3.42,8.56,12.55-46.57,34.31-74.68,83-101.81,132.13q-69.39,125.55-136.89,252.13c-39.33,73.64-56.57,153.17-65.59,235.86-9.6,88-15.34,176.28-23,264.36-8.14,93.5-27.86,184.48-45.17,276.13-2.07,11-7.94,21.19-12,31.76-3.94,7.09-10.27,8.66-18,9-91.7,4.56-183.46,4.16-275.2,2.94-19.7-.27-39.58-2.65-59.43-3.63-21.89-1.07-36.27-16.29-48.42-31.93-40.91-52.62-95.53-88-150-124.32-61.54-41-130.4-52.18-201.88-57.66-69.18-5.3-138-14.71-207.23-19.83-38.89-2.87-77.68-7-116.58-9.43-92.67-5.88-185.32-11.6-277.75-20.82-45.83-4.57-92-6-137.93-9.5-67.83-5.15-135.57-11.48-203.44-16.07-37.49-2.54-74.91-6.17-112.36-8.48-80-4.93-159.68-15.24-240.09-13.67-61.92,1.21-98.24,33.73-106.73,95.92-2.41,17.67-3.19,35.26-4.38,52.94-1,15.13-6.63,24.68-26.27,20-75.15-17.76-151.12-32-225.48-53.24-13.38-3.83-23.84-10.71-30.58-21.51-31-49.71-64.2-98.33-87.36-152.43-15.53-36.26-21.81-75.64-21.73-114.22.2-96-11-191.46-9.77-287.42C463.68,2385.53,481,2320,507.84,2257,552.51,2152.15,611.9,2055.53,676.59,1962Z"/><path class="cls-9" d="M4194.09,2854.93c1.68-80.3,3.44-160.65,6.13-240.88,2.31-69,.65-137.9,2.91-206.8,1.54-47.19-7.15-93.24-14.6-139.34-4.14-25.67-2.81-51.08-1.74-76.52,1.58-37.49,5.33-74.89,7.82-112.35,7-105,11.16-210.11,7.77-315.24-2.49-77.14-5.46-154.46-17.12-231-2-13-8.79-25.21-13.5-38.15,6.27-5.58,13.62-2.81,20.19-2.82q149.58-.27,299.15-.08c5,0,10,.14,15-.1,49-2.37,64.1-17.16,64.16-66,0-16.24,3-22.58,21.3-24.94,49.91-6.44,100.15-9.35,150-15.78,66-8.51,132.45-12.42,198.21-23.18,34.87-5.7,70.43-7.16,105.65-10.81,45.08-4.67,90.13-9.59,135.19-14.46,20.41-2.21,40.86-4.16,61.2-6.92,24.66-3.35,42.11,7,60.76,23,54,46.41,78.15,106.33,88.36,174.33,9.21,61.32,12.94,122.6,5.61,184.45-1.33,11.23-4.76,18.21-14.45,23.56-71.12,39.23-135.7,88-198.2,139.31-48.81,40.08-96,82.22-142.91,124.52q-166.33,149.9-326.45,306.45c-89.42,87.49-179.23,174.63-265,265.87-55.56,59.13-114.36,115.23-171.45,172.93-12.47,12.6-24,26.15-35.68,39.48-3.91,4.45-11.57,8.48-6,15.91,4.56,6.09,11.34,3.68,17.74,2.26q131.77-29.14,263.6-58.07c145.95-32.35,291.79-65.19,437.83-97.12,65.7-14.37,131.93-26.32,197.56-40.94,19.29-4.3,17.19,4.51,14.49,16.37-.77,3.41-3.87,6.51-4,9.81-1.17,39-29.57,46-59.71,51.87q-228.34,44.45-456.63,89.31c-95.2,18.57-190.29,37.75-285.75,54.89q-54.19,9.72-107.53,22.67C4233.88,2850,4215,2866.23,4194.09,2854.93Z"/><path class="cls-10" d="M3249.29,3670.39c32.2,7.83,58.08,22.8,85.7,33,4,1.48,7.72,3.71,11.73,5.13,5.44,1.93,10,.53,12.21-5.12,2-5-1.21-8.42-5.14-10.31-32.06-15.42-64.69-35.17-99.11-36.89-22.63-1.13-28.63-10.71-37.77-24.11C3149.28,3533,3117.7,3421,3100.43,3304c-1.55-10.51-4-21.07-4-31.6,0-9.71-7.32-23.47,5.54-28.32s26.82-11.47,42-.45c19.51,14.14,41,25.58,59.65,41,4.87,4,10.39,9.53,16.53,2.74,6.78-7.49-1.19-11.76-5.44-15.47-16.59-14.49-33.22-29.15-53.6-38.28-12.92-5.8-13.84-10.59-4.81-23.13,53.6-74.39,107.49-148.93,134.5-238.27,19.77-65.4,28.78-133,39.64-200.26,12-74.56,29.72-147.42,65-214.9,26.08-49.84,55.84-97.36,91.44-141,9.21-11.29,18-21.45,35.62-23.78,89.13-11.82,177-4.38,264.91,11.3,97.65,17.44,162.36,78.36,209.6,160.06,60.43,104.52,86.32,219.82,100,338.67a1281.67,1281.67,0,0,1,6.83,206.55c-5.71,122.64-28.92,242.15-72,357.53-34.93,93.62-82.3,179.45-154.05,250.4-78.28,77.42-173.19,99.94-280.21,88.66-53.65-5.65-107.68-8.07-160.52-19.47-64.66-14-121.29-43.92-169-90.09C3261.74,3689.62,3254.34,3683.82,3249.29,3670.39Z"/><path class="cls-11" d="M3032.17,3223c19-32,21.14-68.77,29.36-103.79,20.95-89.24,28.44-180.43,37.74-271.28,5.84-57.11,9.26-114.47,13.7-171.73,6.84-88.29,22.63-174.15,64.17-253.85,56.78-108.93,114.76-217.19,178.93-322,27.87-45.51,69.31-74,119.09-91.93,70.67-25.48,144.74-34.8,218.31-45.54,79.38-11.59,159.36-19.45,239.78-17.19a417.51,417.51,0,0,1,96.5,14.17c32.24,8.63,54,28.2,67.63,57a937.49,937.49,0,0,1,75.87,236.36c9,50.23,16.82,100.61,15.65,152.2-11.14-35.62-19.8-72-33.62-106.59-14.19-35.55-26.44-72.21-50.93-102.69-19.83-24.67-44.76-40.9-76.55-45.57-43.06-18.2-87.32-5.05-130.73-3.3-52.34,2.1-104.7,8.38-156.58,16-67.75,9.95-137,13.15-200.17,45.37-34.33,17.51-58.63,45.08-81.55,73.64-69.79,86.94-128.94,180.52-165.84,286.49-18.23,52.33-28.23,106.48-35.47,161.65-12,91.8-11.85,185.61-45,274.24-25.39,68-64.52,127.73-104.57,187.23-4,5.9-8.1,11.69-12.06,17.6C3079.29,3234.28,3061,3238.17,3032.17,3223Z"/><path class="cls-12" d="M5272.19,3111.61c24.72,12.4,49.35,25,74.21,37.08,6.62,3.23,15.19,9.74,20.55-.14,5.07-9.32-5.5-11.13-10.76-14.78-23-15.94-49-30.8-74.78-34.77-23.9-3.69-23.2-16.86-27-30.72-7.43-27.13-13.62-54.61-21.73-87.67,29.67,17,54.58,31.09,79.3,45.51,5.68,3.31,10.9,13,17.62,4.71,7.63-9.41-1.07-15.64-8.38-20.21-25.34-15.81-50.88-31.31-78.17-43.62-5-2.23-12.79-1.85-11.62-9.61,1-6.53,8-7.22,13.57-8.08,25.9-4,52.07-6.31,75.15-21.11,30.89-19.81,43.72-51.66,56-83.39,6.13-15.84,13.92-27.47,28.66-37.16,21.41-14.08,43.17-27.44,65.15-40.52,6-3.59,14.68-7,9.22-15.75-4.19-6.71-11.32-2.65-17.31,0-22.72,9.95-42.53,25-66.75,39.86,8.36-37.47,16-71.09,23.32-104.77,2-9,4.81-18.23,4.42-27.24-1.36-31.62,18.37-45,44.14-54.11,8-2.83,15.91-6.12,23.72-9.52,5.21-2.27,11.93-5,9.76-11.86-2.29-7.24-9.5-8.55-16.07-5.74-16.19,6.94-32.11,14.49-51.15,23.16,4.76-28.48,12.58-54.76,12.78-81.09.33-43.19,22.44-63.27,61.45-72.37,9.42-2.2,28.95-2.38,23.88-17.3-5.37-15.79-20.89-2.41-31.27-.35-12.85,2.55-23.68,12.35-38.68,13.38,3.09-31,12.31-60,18.19-89.69,2-10.23,8.92-13.92,17.19-16.63,26.27-8.6,51-22.08,79-25.34,8.38-1,14.18-4.66,12.12-13.59s-9.54-6.5-15.8-5.27c-27.29,5.38-52.93,16-81.12,26.37,1.92-22.6,10.35-41.82,17.65-60.9a968.39,968.39,0,0,1,50.45-110.52c3.54-6.62,5.73-15,15.72-15.5,86.45-4.65,173.17-6.05,249.29,43.19,56.56,36.59,86.43,94.76,109.95,156.06,32.12,83.71,44.53,171.2,52.23,260,12.23,141.17-2.73,279.88-40.49,415.47-28.37,101.89-69.83,198.49-151,272.43-30.67,28-66,46.33-106.59,48.67-84,4.84-167.73.58-249.78-20.44-41-10.49-90.61-48.65-110.77-85.66,26.55,10.86,50.46,20.9,74.59,30.36,6.74,2.64,15.92,9.33,20.59-.87,5.15-11.26-6.19-14.88-13.56-17.15-29.85-9.18-56.18-31.07-90.23-25.43-4.15.68-6.22-3-7.8-6.15q-21.87-43.53-43.56-87.14Z"/><path class="cls-13" d="M5763.43,1731.7l111-.76c34.07,13.72,49.42,43,62.54,74.44,24.63,59,40.8,120.49,56.89,181.8-4.58,2.7-6.4.09-7.29-2.27-23.11-61.16-73.51-72.4-130.09-69-64.43,3.82-128,14.62-191.52,26.22-56.32,10.27-88.94,47-116.83,91.31-32.18,51.1-63.15,102.77-86.58,158.8-28.94,69.22-45.55,141.34-57.76,215.05-18.85,113.9-39.72,227.46-59.31,341.24-2.92,17-8.33,21.37-24.09,11.16a947.61,947.61,0,0,0-111.23-62c-11.79-5.55-13-11.18-10.33-22.6,13.33-57.28,27.88-114.39,38.07-172.25,13.38-76,23.69-152.53,34.23-229,10-72.82,30.36-142.57,58.76-210.17,30.91-73.55,70.19-142.8,110.85-211.14,31.83-53.49,83-79.72,142.74-91.38,57.06-11.13,114.08-22.46,172.26-26.24C5758.39,1734.71,5760.89,1732.8,5763.43,1731.7Z"/><path class="cls-13" d="M2608.7,3286.69c-53.83-3.27-107.69-6.18-161.5-9.9-48.84-3.39-97.6-7.75-146.42-11.51-109-8.38-218.1-14.12-326.9-24.79-60.74-5.95-121.72-9.67-182.63-13.74-80-5.35-159.75-13.52-239.64-20.05q-80.64-6.59-161.2-14.09c-87.57-8.25-175.12-16.78-262.7-25-66.4-6.19-132.84-12-199.27-18-5.66-.51-11.43-.25-17-1.17-28.57-4.74-32.58-11.07-28.09-40.32,3.86-25.19,5-50.76,11.46-75.6,12.82-49.64,33.47-66.66,84.34-66.65,89.58,0,178.66,9,267.83,16.14,48.12,3.88,96.39,5.87,144.54,9.47,89.15,6.67,178.25,14,267.39,20.83,60.85,4.66,121.79,8.38,182.61,13.46,92.6,7.74,185.27,14.66,277.72,24.36,49.38,5.18,98.92,10.8,148.45,13.14,75.24,3.55,136.51,33.12,188.83,86,38.94,39.38,75.74,81.27,121.66,113.2,10.28,7.15,21.16,13.42,31.76,20.09C2609.52,3284,2609.11,3285.35,2608.7,3286.69Z"/><path class="cls-12" d="M775.77,3458.08q29.6,14.51,59.19,29c6.53,3.2,13.72,7,18.61-1.64,5.56-9.81-3.44-12.24-9.5-15.1-21.23-10-42.25-26.75-64.07-28-56.37-3.12-61-54.54-88.51-84.7,24.74,7.23,46.54,19.62,67.67,33.53,6.15,4.05,14.08,11.56,20.6,2.89,7.85-10.4-4.46-13.08-10-16.62-28-17.95-55.26-37.79-88.91-44.17-7-1.33-9.31-5.55-11.92-10.54-15.5-29.61-26.6-61-40.93-97,28.36,10.93,51,22.51,71.39,38.62,8.36,6.61,16.38,13.64,24.65,20.36,3.9,3.16,8,6.76,12.91,1.52,4.18-4.42,4.27-9.49-.17-13.15-31.2-25.73-62.2-52-101.92-64-5.16-1.56-11.76.92-13.81-6.67-8.26-30.54-17.42-60.9-21.52-96.66,32.77,17.83,60,36.73,87.43,55.21,5.42,3.65,12.08,14.27,19.46,3.63,6.71-9.67-4.23-14-9.48-18.1-25.92-20-52.67-39.43-83.21-51.43-15.6-6.12-20.46-14.39-19.24-29.75.6-7.56-1.48-15.33-2.71-26.11,31.31,7.42,61.13,14.52,91,21.55C734.6,3073.05,786,3088.45,838.45,3096c26.21,3.78,37,7.15,31.71,35.66-2.53,13.66,6.48,27.93,23.84,26,36-4.06,59.53,19.81,86.18,36.46,4.43,2.76,5.44,11,8,16.8,25.85,59,55.82,114.68,107.88,156.15,82.48,65.71,177.6,51.15,252.68-7.34,37-28.83,64.68-65.71,90.47-104.05,8.06-12,16.36-18.22,31.16-16.4,19,2.33,38.18,3.68,57.32,4.63,10.16.5,12.52,3.66,8.17,13-55,118.43-126.75,221.74-247,283.82-57.38,29.62-118.53,34.29-180.5,30.89-64.45-3.53-128.79-10.36-191.23-28.91C862.59,3526.57,812.33,3503.49,775.77,3458.08Z"/><path class="cls-14" d="M4027.78,2158.7c61.38,19.58,87.77,69.83,109.22,124.43,31.88,81.12,52.95,164.1,49.83,252.4-2.23,63.15.18,126.45-1.83,189.61-1,30.42-3.29,60.83-2.95,91.33l-9.3,89.12c-1.73,7.64.89,16.79-7.61,22.1-10.72,24.93-11.4,54.9-36.53,72.61-2.76,1.95-4.61,5.6-10.55,4.09-1.82-33.4-3.75-67.28,5.6-100.36,12.46-44.08,14.48-89.57,18.93-134.65,6.72-68,7.56-136.41,4.37-204.59-3.72-79.65-21.09-156.24-65-224.46-29.83-46.33-68.41-75.35-128.35-71.71a2405.75,2405.75,0,0,0-281,33.24c-38.3,6.89-77.26,12-112.07,31.49-46.56,26.1-79.41,66.1-109.42,108.73-44.79,63.61-83.52,130.63-105.62,205.7-17.64,59.93-28.29,121.42-36.72,183.36-16.38,120.26-56.59,231.23-130.84,328.66-15,19.75-26.35,42.36-45.52,58.93-3.76,3.25-7.19,7.09-11.43,9.52-5.71,3.27-13.38,5.05-18.06.51-5.19-5,1.38-10.4,4.23-14.65,29.25-43.7,58.9-87.08,83.74-133.62,36.31-68,57-140.1,63.78-216.94,8.24-93.83,14.38-188.31,44.67-278.52,37.32-111.17,100-207.93,171.66-299.87,42.86-55,98.26-82.14,165.76-93.83a2508,2508,0,0,1,293.61-33.67C3963,2155.9,3995.37,2150.68,4027.78,2158.7Z"/><path class="cls-11" d="M5197.07,2944.36c-13.21,2.39-23.1-.91-31.92-10-19.78-20.31-44.54-23.55-71-18q-205,43.07-410,86.46c-130.46,27.57-261.06,54.47-391.26,83.18-45.49,10-87.59,28.85-121.66,62.7-11.64,11.56-27,18-42.52,23.75-11.93,4.43-16.78,1.15-14.79-10.7,6.55-38.9,3.06-78.06,3.67-117.1.19-12.07,4-17.19,16.5-19.61,114.84-22.16,229.49-45.26,344.26-67.77,132.14-25.92,264.38-51.38,396.52-77.32,64.69-12.71,129.2-26.32,193.9-39q149-29.28,298.21-57.68c5.62-1.07,17.2-5.07,12.87,8.3-12.62,38.94-20.56,79.84-50.38,111.43-26.32,27.9-62.56,28-95.64,36.71C5221.72,2942.91,5209.08,2946.9,5197.07,2944.36Z"/><path class="cls-11" d="M4181.21,2910.42c2.47-10.1,8.7-15,19.19-17q234.93-44.8,469.73-90.31c146.84-28.7,293.5-58.27,440.25-87.37,23-4.56,46.06-8.57,69-13.1a28.6,28.6,0,0,1,18.61,2.27c43.6,20.74,84.82,45.69,131.16,72.84l-1190.94,234c25.86-20.77,29.23-50.91,35.51-79.73C4171.77,2923.28,4175.2,2916.41,4181.21,2910.42Z"/><path class="cls-15" d="M4114,2894.08c-10.12-44-15.76-88-26.31-131.24-25.86-105.83-64.43-205.88-139.16-287.63-47.06-51.49-108.57-78.45-176.56-89.84-60.14-10.06-120.85-15.85-182-13-19.5.92-38.77,6.85-62.25,2.08,24.95-23.49,52.7-36.74,82.3-44.64,60.13-16,121.66-25.54,183.29-33.59,36.43-4.76,73.2-7.27,109.91-9.13,13.57-.68,26.74-2.9,40-4.76,65.2-9.15,104.64,27.44,133.67,78,33.18,57.74,48.45,120.71,54.67,187.59s-.34,133.21-1.94,199.68c-1.11,46.5-8,92.86-12.52,139.27C4116.92,2889.34,4115.1,2891.67,4114,2894.08Z"/><path class="cls-13" d="M5989.86,2479c-10.31-17.49-11.35-33.14-7.07-48.11,27.52-96.2,21.81-192.13,0-288.3-7.93-35-21.29-67.54-37.62-99.23-11.65-22.62-30.3-34.25-54.94-33.82A956.25,956.25,0,0,0,5636.3,2048c-27.71,8.15-46.18,30.12-62.12,53.13-58.86,84.9-91.79,180.42-114.25,280.26-26.17,116.28-38.21,235.12-64.32,351.38-3.31,14.71-1.85,32.9-24.28,37.75-16.53,3.57-20.43.66-17.23-15.77q14.83-76.18,28.27-152.64c14.56-82.36,28.52-164.82,43-247.18,22.5-127.84,78.59-240.94,153.08-345.76,20.1-28.29,47.54-46.41,81.94-53.5,76.57-15.77,153.34-30,232-27.71,31.15.91,55.48,13.6,72.45,41.13,32.88,53.35,47.28,112.46,54.36,173.42,12.72,109.74,6.57,218.35-25.42,324.77C5993,2469.94,5992.06,2472.54,5989.86,2479Z"/><path class="cls-16" d="M2776.35,3239.91c-29.88,46.36-68.47,48.36-113.22,41.9-49.31-7.12-87.21-30.78-121.72-64.26-41.82-40.57-80.25-84.8-127.61-119.49-40.3-29.52-86.3-42-135.22-46.54-104.58-9.62-209.1-19.88-313.71-29.08-62.23-5.47-124.61-9.14-186.88-14.1-81.34-6.5-162.63-13.63-244-20.17-42.48-3.42-85-6.2-127.51-9.2-99.14-7-198.23-15.07-297.46-20.44-46.8-2.54-93.61-7.75-140.66-5.16-41.9,2.31-68.4,22.82-80.53,63.08-2.62,8.71-5.36,17.38-8.34,27-8.67-71.38,29.73-115.28,100.41-116,85.41-.85,170.06,10.11,255,16.44,43.2,3.22,86.43,5.87,129.61,9.22,86.31,6.7,172.58,13.9,258.89,20.52,63,4.83,126.06,8.85,189.06,13.63q131.63,10,263.21,20.6,80.64,6.42,161.25,13.4c65,5.67,131.37,6.85,190.67,38.11,68.68,36.2,133.65,78.12,182.9,140.1,21.48,27,47.14,44,84.13,40.84C2720.52,3238.12,2746.72,3239.91,2776.35,3239.91Z"/><path class="cls-17" d="M1435.59,3236.77c-49.32,74.11-100.88,138.82-191.14,156.79-68.89,13.71-121.83-15.59-167.54-63.2-32.47-33.83-55.21-73.71-72.86-117-6.35-15.6-2.47-17.95,12.29-16.47q116.77,11.7,233.61,22.62C1310.12,3225.2,1370.31,3230.7,1435.59,3236.77Z"/><path class="cls-18" d="M5973.84,2403.19c-10.54-29.05-20.92-58.16-31.65-87.14-18.46-49.85-44.32-95.59-83.41-131.89-36-33.41-79.37-53.93-128.69-59.68-43.58-5.08-87.31-9.09-131.27-8.58-15,.17-15.13-4.06-7.62-15.54,13.09-20,30.51-33.78,53.32-39.44,79.73-19.8,159.77-37.54,242.8-35.06,30.77.92,48.49,15.91,62.54,52.8,28.6,75.09,38,153.51,39.3,232.92.48,30.46-6.13,61-9.5,91.55Z"/><path class="cls-14" d="M3037.69,3239.7c-5.59,8.25-12.32,8-18.44,7.76-44.24-1.4-70.17,24.26-85.94,61.18-8.26,19.34-18.3,26.41-39.65,25.4-110.7-5.26-221.27-12.05-331.72-21.38-67.94-5.74-136.11-8.62-204.12-13.63-85-6.26-169.85-13.39-254.77-20.16-75-6-150.1-11.72-225.1-18.07-94.76-8-189.41-17.33-284.22-24.58-54.52-4.17-109.06-7.82-163.47-13.48-84.72-8.82-169.42-18.2-254.34-24.57-61.64-4.63-122.9-12.18-184.34-18.32-9.84-1-19.42-1.26-27.63-11.92,29.95-4.51,57,2.43,84.12,4.56,68.6,5.4,137,13.18,205.54,19.76q109.11,10.5,218.29,20.48c53.73,4.85,107.52,9.13,161.29,13.61q125.2,10.42,250.44,20.73c40.35,3.27,80.75,6,121.13,9,92.74,7,185.46,14.32,278.24,20.88,54.58,3.86,109.25,6.31,163.86,9.75,57.39,3.61,114.7,9,172.13,11,36.12,1.28,72.57-.62,108.56-4.19,17.73-1.76,34.23-13.48,43.89-28.35,15.34-23.63,37.88-26.82,61.21-24.8,61.91,5.39,123.61-4.23,185.41-.78C3024.09,3240,3030.16,3239.7,3037.69,3239.7Z"/><path class="cls-19" d="M4262.94,2859.53c56.28-7.07,111.38-20.47,167-31.1q229.57-43.87,458.93-88.95c85.5-16.74,170.85-34.3,256.27-51.44,11.36-2.28,19.78-7.95,23-19.54,15.36-55.31,27.64-111.27,35.27-168.2-5.44-26.68,4.61-52,7.92-77.74,9.34-72.49,16.7-145.3,30.93-217.15,18.6-94,57-179.89,103.86-262.62,21.39-37.76,43.4-75.15,67.36-111.32,9.72-14.67,20-29.53,37.8-36.13,55.08-44.08,122.34-52.6,188.49-63.59,36.1-6,72.66-9.29,112.49-14.23-7.19,7.38-15.81,2.85-19.26,9.29-68.2,4.08-135.22,15.55-200.09,36.73-56,18.29-91.76,60.06-118.6,110.6-41.28,77.75-86.56,153.46-115.29,237.4-22.83,66.73-36.79,135.08-44.93,205.05-10.07,86.55-23.59,172.63-43.11,257.64-7.45,32.44-16.12,64.6-23.77,97-3.11,13.19-9.65,20-23.94,22.71-101.67,19.1-203.18,39.06-304.71,58.87Q4729.24,2778,4600,2803.53q-163.7,32-327.42,63.86c-28.35,5.5-56.23,14.43-90.47,12.85C4210.29,2865.89,4238.32,2869.07,4262.94,2859.53Z"/><path class="cls-11" d="M4200.68,3141.39a182.39,182.39,0,0,1,75.51-38.76c110.08-27.21,221.37-49,332.29-72.36,139.3-29.41,278.48-59.42,418-88,28.37-5.81,56.37-14.19,85.71-15.58,18.49-.87,32.7,6.34,50.28,20.72l-959.6,200.66C4202.11,3145.86,4201.4,3143.62,4200.68,3141.39Z"/><path class="cls-20" d="M3065.74,3252.79c12.59-1.21,17.14,1.85,17.49,11.35a306,306,0,0,0,10.52,69c2.14,7.85,1.27,12.79-7.86,13-45.43.86-90.55-3.51-135.7-7.71-12.67-1.18-14-7.07-8.39-17,19.95-35.66,43.5-64.88,90.8-61.2C3044.65,3261.13,3057.26,3254.83,3065.74,3252.79Z"/><path class="cls-6" d="M4181.21,2910.42c-1.29,7.61-2.86,15.13-7.46,21.6l-8.62-4.33c1.07-7.88,2.9-15.48,7.63-22.1C4174.5,2909.08,4177.53,2910.31,4181.21,2910.42Z"/><path class="cls-21" d="M1710.17,1337.19c30.08-54.31,58.21-105.16,86.4-156,111.77-201.42,224.74-402.13,345.36-598.46,13.81-22.48,30.48-32.15,56.9-32.93q382.27-11.3,764.69-15.87c306.22-3.37,612.45-5.58,918.67-8.3,31.34-.28,62.6.38,93.86,3.46,16.64,1.65,22.18,9.25,20.26,25.07-8.95,74.11-17,148.32-26.54,222.36q-21.8,170.22-45.16,340.23c-12,86.6-25.45,173-37.82,259.53-1.88,13.1-7,16.69-20.68,16.46-180.13-3-360.27-5.19-540.41-7.68a215.2,215.2,0,0,1-74.94-15c-61.47-23.88-125.54-28.25-190.55-31.43q-331.85-16.25-664-19.7c-203.71-1.83-407.32.51-610.78,11.42C1761.54,1331.66,1737.79,1334.64,1710.17,1337.19Z"/><path class="cls-22" d="M714.65,1988.3A556.68,556.68,0,0,0,793.2,2086c51.39,51.12,113.37,76.05,184.47,80.9,109.73,7.48,219.55,13.78,329.21,22.19,72.21,5.53,144.6,7.74,216.76,13,102.71,7.55,205.58,11.06,308.33,17,63.85,3.69,127.75,4.84,191.59,7.79,83.05,3.84,166.26,4.63,249.22,9.65,30.57,1.85,61,2.29,91.57,2.95,105.9,2.28,211.66,8.43,317.64,9.55,70.45.75,132.65-18.15,190.39-56.9,56-37.58,109.68-78.1,163.55-118.61,52.74-39.65,72.2-89.93,72.8-152.39.41-41.88-1.43-83.78,3.23-125.72,2.24-20.11-1.09-41.11-3.89-61.44-2.52-18.29-17.24-26.59-33-32.84,15-16.68,36.08-8.65,53.89-11.61,51.59-8.6,103.85-12.82,155.63-21.08,58.7-9.36,118-15,177-22.65,71.59-9.34,143.09-19.43,214.69-28.71,60.38-7.84,120.92-14.39,181.24-22.59,78.54-10.67,157.61-17.64,235.49-33.16,21.47-4.27,43.42-6.11,65.15-9.11,12.25-1.69,18.78,2.73,19.32,15.92,2,50.31,6.71,100.48,9.69,150.74,4,66.9,3.75,133.7,2.29,200.42-1.86,85.08-8,170.07-12.34,255.1-.21,4.23-.11,8.71-6.18,11-14.94-52.45-29.54-105-52.63-154.49-21.54-46.21-51-84.85-100.68-104.26-20.24-7.91-41.43-10.39-62.48-11.2-89.63-3.43-178.67,3.57-267.52,15.78-70.93,9.74-141.63,19.77-211,38.21-55.73,14.81-106.53,39.15-152.11,74.14-101.29,77.75-201.45,157-303.63,233.54-63.54,47.62-128.36,94.09-205.11,119.66a271.37,271.37,0,0,1-72.86,13.58c-121,5.86-241.52-9.32-362.48-9.57-58-.12-116.21-6.13-174.41-7.65-20.09-.53-37.47-4.28-51.08-23.08-32.66-45.08-80.57-61-134.13-61.78-109.41-1.67-218.49-10.74-327.84-14.42-79.35-2.68-158.72-8.4-238.12-12.28-46-2.24-92-6.76-138.1-7.76-39.93-.86-74.15,11.5-98.07,45.18-17,23.86-41.54,14.73-62.88,13.68-48.1-2.37-96.06-7.55-144-12-70.53-6.53-128-38.16-174-91.47C780,2162.26,739,2085.93,711.66,2002,710.13,1997.34,701.42,1990.15,714.65,1988.3Z"/><path class="cls-21" d="M4176.54,981.73c6.52-132.22,10.48-264.53,13.17-396.88.78-38.11,6.71-44.4,43.41-42.23q261.18,15.46,522.33,31.63c90.21,5.71,180.3,13.32,270.52,18.87,15.48,1,22.07,6,26.58,20.51,65.44,210,117,423.41,159,639.22,2.44,12.56,5,25.11,7.32,37.7,5,26.6,5,26.94-21,29.75q-220.69,23.88-441.43,47.44c-55.89,6-111.76,12.17-167.73,17.19-24.56,2.2-27.45-1.16-26.82-25.79q3-118.46,6.92-236.9c2.22-64.8-11.34-80-75.82-81.88-69.79-2.07-139.59-1.56-209.36.5-47,1.4-61.34,13.47-65.16,60.64-6.2,76.72-2,153.64-.6,230.48.31,16.37.6,32.73,1.12,49.09.39,12.24-6.45,19.31-17.39,20.36-14.83,1.42-29.88.83-44.83.58-11.76-.19-8.49-9.23-8-15.72,7.23-100,14.79-200.08,21.91-300.14C4173.1,1051.38,4174.6,1016.54,4176.54,981.73Z"/><path class="cls-7" d="M2142.5,539c51.25-70.46,124.53-95.7,207.54-102.58,34.44-2.86,68.54-9.65,102.9-13.83,35.75-4.34,71.61-7.9,107.46-11.42q86.51-8.49,173.07-16.45c24-2.21,48.08-2.41,72.12-4.15,78.4-5.7,156.88-10.68,235.43-14.52,59.47-2.9,118.92-5.82,178.41-8.38,71.58-3.07,143.16-5.62,214.73-8.57,86.54-3.57,173.07-5.68,259.61-8.48,86-2.79,172-3.25,258-3.63,92.34-.4,184.36,8.06,276.69,9.5,55.13.85,110.45,4.72,165.55,8.38,73.51,4.88,147.07,8.22,220.6,12.46,72.73,4.2,145.5,9.24,217.89,17.17,113.07,12.38,225.92,26.43,336.95,52.75,103,24.4,202.8,57.27,297.4,104.64,44,22,76,54,83.71,107.15,5.56,38.39,12.67,76.54,16.37,115.25,2.07,21.67-7.43,27.18-27.24,25.84-46.27-3.12-86.2-21.13-122.27-49.08-45.34-35.12-90.18-70.89-136-105.39-43.71-32.94-91.66-51.7-148-56.45C5045.32,581.79,4957.29,574,4869,568.7c-67.85-4-135.67-8.85-203.5-13.22-91.87-5.92-183.83-10.51-275.63-17.05-52.88-3.76-106.13-3.58-158.74-11.66-14.29-2.19-28.43-.22-40.89,8.29-9.13,2.21-18.18,1.32-27.35-.15-50.59-8.14-101.42-8.26-152.36-4-20.82-23.18-49.87-15.89-75.63-19.53-24.47-3.45-49.18-.92-74,1-21.32,1.62-43.35,1.07-65.07,1.12-156.59.31-313.23-2.49-469.74,1.08-133.67,3-267.4-.48-400.89,4.55-83.19,3.14-166.4-1.34-249.29,4-54.74,3.5-109.56-.65-163.88,4.24-60.45,5.44-120.86-.28-181,4-47.56,3.4-95,2.82-142.57,4.16-11,.31-21.88,5.33-32.81,8.18C2150.66,543.75,2145.7,543.9,2142.5,539Z"/><path class="cls-9" d="M3027.27,1688.4c-93.92-1.48-188-.52-281.71-5.21-77.6-3.88-155.24.69-232.58-4.14-65.49-4.09-131,0-196.25-4.35-62.64-4.2-125.34.29-187.72-4.11-63.33-4.47-126.76-.07-189.83-4.47-53.39-3.72-106.69-1.37-160-3.62-103.73-4.38-207.52-6.15-311.28-9.07-98.78-2.77-197.54-6.06-296.35-8.41-81-1.93-161.93-5.72-242.89-8.68-63.87-2.33-127.69-6.55-191.61-8,2.93-14.09,17-16.82,26.25-22.44,67.14-40.73,135.15-80,203.09-119.41,15.59-9,31.32-12,50.66-8.13,60.54,11.94,122.29,14.44,183.83,18.33,92.8,5.86,185.56,11.19,278.56,13.84,50.23,1.44,100.64,4,150.94,6.41,76,3.72,152.16,2.31,228.15,5.67,111.51,4.93,223.11,5.15,334.62,8.56,232.75,7.1,465.5,2.86,698.23,2.59,84.42-.09,169.05-4.08,253.38-8.68,120.17-6.55,239.67-20.27,358.74-39.9,124.3-20.48,248.74-40.31,372.72-62.62,40.78-7.34,80.5-17,121.91-7.3,3.41.8,7.14.71,9.19,6-17.52,3.9-35.15,6.8-52.15,11.85-28,8.31-41,26-36.16,46.63,5.82,25,29.53,41,56.54,37,51.79-7.66,103.49-15.87,155.22-24,19.27-3,45.45,23.13,40.32,41-2.54,8.84-12.16,6.93-18.12,7.88-34.95,5.54-70.14,9.55-105.2,14.4-54.69,7.56-109.29,15.74-164,23-53.31,7-106.75,13.12-160.11,19.86q-71.62,9-143.17,18.66-104.16,13.93-208.28,28.22c-60.3,8.16-120.44,17.85-180.95,23.94-47.9,4.83-95.3,14.9-143.72,14.67C3040.65,1684.38,3033.11,1682.53,3027.27,1688.4Z"/><path class="cls-23" d="M5194.57,2495.7c-9,21.14-8.48,44.15-12.67,66.22-3,15.72-10.2,24.68-26.69,28-107.62,21.44-214,48.63-321.77,69.47-70.15,13.57-139.42,31.65-209.21,47.13-119.41,26.49-238.93,52.52-358.8,78.83-1.84-10.14,6.2-13.08,10.67-17.6,52.52-53.21,105.43-106,158-159.17,94.05-95,187.26-190.82,282.15-284.95,74.73-74.12,150.16-147.63,227.63-218.85,100.83-92.71,201.43-185.87,311-268.5,41.21-31.09,84.2-59.75,133-89.61-5.74,46.08-22.74,84.6-26.42,125.63,4.62,21.74,1.17,41.45-10.51,61-62.17,104.22-105.49,215.09-120.94,336.48-8.42,66.16-14.86,132.62-25.92,198.44C5202.46,2477.79,5203.07,2488.39,5194.57,2495.7Z"/><path class="cls-22" d="M2915.58,2369.88c-14,16.25-31.29,27.55-47.56,39.42-56.71,41.41-109.42,88.37-169.6,124.9-52.23,31.7-110.63,44.66-170.82,46.66-108.84,3.64-217.37-5.34-325.94-11.56-58.16-3.34-116.33-7.11-174.55-8.62-117.95-3-235.48-13.36-353.31-18.58-86.52-3.83-172.91-10.55-259.31-16.68-110.45-7.83-220.83-16.63-331.27-24.48-71.54-5.09-143.18-8.73-214.7-14-31.69-2.34-63.52-3.63-94-15.66-31.21-12.32-52.48-32.71-64.15-64-17-45.62-22.31-93.58-29.52-141.22-12.09-80,.75-158.45,13.92-236.91.7-4.13,2.6-8.06,4.52-13.81,11.12,12.85,13.47,28.47,19.55,42.14,31.39,70.55,68.28,137.77,121.86,194.13,48.53,51,108.64,77.74,179.38,82.22,98.47,6.25,196.94,13,295.2,21.79,84.9,7.61,170,11.32,255,16.72,102.77,6.53,205.49,13.77,308.45,17.61,96.53,3.6,193,10.12,289.57,12.72q163,4.38,325.94,13c73.85,3.85,147.65,7.63,221.61,7.72,64,.09,123.5-16.34,178.94-48.1C2900.54,2372,2906,2366.23,2915.58,2369.88Z"/><path class="cls-9" d="M5294.92,1327c74.26-2.63,92.64-55.32,107.75-107.75,21.19-73.55,28.1-150,40.09-225.43,5.33-33.5,8.23-67.38,16.31-100.46a52.18,52.18,0,0,1,7.25-17.4c17.15-25.58,94.91-24.11,109.35,2.89,11.7,21.88,20.11,45.27,27.06,69.19,23.52,80.94,47.69,161.69,71,242.7,10.43,36.27,35.64,60.8,63.72,82.93,23.37,18.42,47.16,36.57,72.23,52.53,40.17,25.58,55,63.74,55.84,108.28,1.19,59.75-.17,119.54.38,179.3.14,15.82-7.93,21.8-21.49,23.44-47.78,5.78-95.56,11.57-143.39,16.9-94.28,10.52-189.46,16.71-276.49,60.37-19.33,9.7-16.71-5-15.32-15,10.36-74.93,1.51-148.15-15.59-221.34C5379.37,1417.25,5344.37,1370.92,5294.92,1327Z"/><path class="cls-24" d="M3078.06,1356.83c-126.78,17.8-250.12,45.51-363.19,107.85-24.82,13.68-50.18,26.59-71.75,45.54-9.84,8.65-21.23,12.29-35.06,12.21-115.8-.69-231.7,2.27-347.37-1.77-79-2.75-157.92,0-236.76-3.53-106.52-4.78-213.1-6.15-319.65-9-70.93-1.89-141.88-5.62-212.83-8.39-56-2.18-111.82-8.06-167.94-8.11-2.53,0-5.06-1.1-11.66-2.63,42.35-28.62,83.46-51.82,127.31-69.16,74-29.26,150.13-52,229.06-63.35,43.44-6.26,87.24-11.59,131-13.3,58.21-2.29,116.53-3.84,174.73-6,199.27-7.3,398.55-3,597.8-2.34,88,.3,176,6.14,264.06,8.55,64.5,1.77,128.95,7.62,193.58,7.64C3045.87,1351.08,3061.3,1358.33,3078.06,1356.83Z"/><path class="cls-25" d="M4010.51,530.89c.89-7.3,5.79-8.62,12.13-8.7,55.09-.71,110.16-1.2,164.49,10.12,1.17.24,2.07,1.81,3.09,2.75-20.87,26.49-13,58.72-15.91,88.24-3.59,36.67-.21,74-1.52,110.92-3.79,106.36-7.18,212.75-13.19,319-3.72,65.77-8.6,131.53-13.3,197.24-3.38,47.24-7.68,94.53-11.32,141.81-.86,11.19-5.56,13-15.58,14.86-44.48,8.48-88.13,4.56-131.47-6.18-22.57-5.59-45.33-2.56-68-2.94-15.37-.26-21.41-3.75-18.66-21.33,14.41-92.23,27.72-184.64,40.94-277.05,11.53-80.51,23.17-161,33.4-241.69,9.79-77.19,17.56-154.63,26.78-231.9C4006.19,594.39,4012.47,563,4010.51,530.89Z"/><path class="cls-21" d="M5090.1,602.16c76-3,141.89,19.05,199.51,68.25,38.11,32.53,79.67,61,118.7,92.48,35.43,28.6,74.76,46.83,120.34,48.9,15.35.7,16.27,7.82,17.14,19.93,1.1,15.28-8,13.37-17.38,13.35-64.6-.15-77.23.65-90.55,81-16.26,98.13-26.7,197.28-51.47,293.92a180,180,0,0,1-20.26,49.13c-21.45,35.41-57.74,51.2-98.5,43.9-12.93-2.31-10.24-12.47-11.52-19.63-16.41-92.44-34.31-184.59-55-276.15-30.83-136.55-64.75-272.33-108.7-405.4C5091.37,608.71,5090.85,605.35,5090.1,602.16Z"/><path class="cls-9" d="M4229.47,1406.48c6.43-35.75,4-69.76,2.09-103.52-4-70.27-5.66-140.48,2-210.54,2.52-22.92,16.61-34.24,40.54-36,80.89-5.85,161.8-2.4,242.68.16,22.91.73,35.93,17.7,37,43.57,2.57,59.74-6.48,119.22-4.24,178.88,1.45,38.68-9.89,77.71,3.31,116.11,2.25,6.53-1.2,10.66-8.57,11.39-11.26,1.13-22.48,3.91-33.72,4-70.48.31-141,1.11-211.43-.63C4276,1409.32,4252.65,1406.8,4229.47,1406.48Z"/><path class="cls-24" d="M2653.48,1516.74c16-10.14,31.67-21,48.16-30.3,96.83-54.75,201.42-86.62,310.54-105.76,43.92-7.7,88.46-10.41,132.26-19.53,22-4.59,45.06,4.9,66.13,12.27,46,16.08,92.41,23.46,141.32,25.81,111.68,5.38,223.37-.63,334.89,4,45.44,1.89,90.84,2.78,136.28,3.84,6.9.16,13.75,2.42,24.26,4.39C3452,1498.27,3055.6,1530.94,2653.48,1516.74Z"/><path class="cls-26" d="M2105.39,2389.26c-92.76-4.17-185.42-10.17-278.23-13.73-45.92-1.76-92-4.47-137.81-8.1-78.31-6.21-156.95-7.12-235.12-16-30.18-3.42-60.83-1-91.33-4.45-42.16-4.79-84.69-6.17-127.07-9-3.41-.23-7.63.84-9.58-2.86-2.63-5,2.09-7.58,4.65-10.68,31.55-38.27,74.93-38.08,118.72-36.24,7,.29,14,2.35,21,2.65,70.85,3.05,141.8,4.52,212.53,9.24,56.61,3.78,113.29,5.37,169.85,8.77,81.36,4.9,162.8,7.9,244.1,12.93,40.92,2.53,84.7.2,119.81,29.05,9.85,8.09,18.89,17.18,28.12,26,2.45,2.34,5.56,5,3.83,9.07s-5.92,3.29-9.29,3.33C2128.18,2389.36,2116.78,2389.26,2105.39,2389.26Z"/><path class="cls-27" d="M1800.4,1080c-1.89,10.28-8.92,20.34-14.71,30.77-39.2,70.65-79.35,140.77-117.65,211.89-8.58,15.93-18.11,25.66-36.13,27.06a177,177,0,0,0-25.09,4.15c-14.07,3.18-17.8,2.24-17.9-16-.13-25-3.21-50.77-4.9-76-4.16-62.28-.69-124.74,7.33-186.73,2.91-22.52,22-29.77,40.38-31,45.14-3,90.35-9,135.76-1.08C1787.8,1046.63,1800.63,1058.6,1800.4,1080Z"/><path class="cls-28" d="M4330,1478.84c-42.58-1.57-85.31-1.57-127.84-2.19-47.77-.69-96.24,2.6-143.77,12.59a534.33,534.33,0,0,1-90.6,11.27c-17.48.63-32.92-5.59-35.86-23.36s9.95-27.41,26.7-32.89c40.88-13.4,83.49-15.74,125.65-20.19a1088.38,1088.38,0,0,1,185.47-3.76c78.3,5.17,156.51,2.19,234.74,3.33,6.41.09,12.84-.58,19.23-.23,10.88.61,27.76-15.5,30.07,10,2.64,29.21-6.05,41.44-31.81,41.21C4457.89,1474,4394.09,1482.94,4330,1478.84Z"/><path class="cls-29" d="M5374.41,1868c8.61-36.42,17.71-72.74,25.6-109.33,3.48-16.13,11.93-25.9,27-32.35,67-28.67,136.84-44.6,209.45-51,67.61-6,135.07-14.09,202.34-23.17,17.5-2.36,20.14,1.93,17.28,17.08-6.87,36.33-6.64,36.32-44.85,36.58a1187.55,1187.55,0,0,0-277.5,35c-32.17,8-64.16,18.72-87,45.6-23.91,23.77-42.55,51.28-58.31,81-2.71,5.09-6.17,12.46-14.48,7.93C5371,1873.57,5372.4,1870.29,5374.41,1868Z"/><path class="cls-30" d="M1029.42,1461.92c150.73-40,304.2-64.88,463.18-82.44-9.89,10.93-19.77,12.65-28.75,16-51.4,19.29-101.86,41.38-145.09,75.29-29.78,23.35-61.78,17.29-93.53,15.78-48.08-2.28-96-7.45-144-11.8-17.28-1.57-34.45-4.3-51.66-6.51Z"/><path class="cls-31" d="M2142.5,539c4.77.41,10-.53,13.11,4.6-46.35,51.73-75.65,114.53-111.41,173-45.13,73.83-88.2,149-130.32,224.55-60.81,109.14-123.58,217.2-181.53,327.94-11.48,21.94-25.38,42.62-38,63.95-3.07,5.17-7,10.9-13.15,7.83-8-3.93-1.33-10.85.68-14.55Q1726,1245,1771.3,1164.19c13.49-24.17,28.37-47.61,41.18-72.13,25.31-48.47,56.81-93.33,82.35-141.55,33.23-62.74,70.48-123.08,106.55-184.12,42.94-72.68,86.79-144.84,130.47-217.07C2134.32,545.23,2138.9,542.42,2142.5,539Z"/><path class="cls-32" d="M5246,1304.68c-.68,3.83,1.84,9.75-4.37,10.27-6.59.54-7.12-5.51-8.11-10.35-11.42-56.13-22.42-112.34-34.38-168.35-14.47-67.78-28.76-135.62-45-203-15.05-62.58-32-124.73-49.11-186.78-12.05-43.6-25.94-86.7-38.8-130.08-1.59-5.36-8.23-12.95,1-16,8.42-2.76,9.43,6.63,11.44,12.19,45.05,124.72,75.62,253.56,105.55,382.37,23.32,100.41,43.88,201.57,60.75,303.37C5245.35,1300.45,5245.67,1302.55,5246,1304.68Z"/><path class="cls-2" d="M5374.41,1868c5.54,11.23,7,1.61,9.06-1.94,13.95-23.64,25.38-49,46.19-67.93,5.17-4.71,9.32-10.85,17.09-11.75l4.52,9c-91.94,116.45-161.49,244.4-198.34,388.82-14.72,57.68-19.84,117.06-28.12,175.87-6.59,46.83-9.62,94.23-21.41,140.27-3.7-.08-6.94-1-8.83-4.6,6.88-49.71,15.72-99.25,20.05-149.18,3.94-45.31,10.72-90.1,19.07-134.58,18.53-98.7,57.25-190.07,109.34-275.35,12.85-21,10.95-43.37,18.42-64.33Z"/><path class="cls-33" d="M3407.83,2025.68c.12-6.21-3.07-10.16-8.56-12.55,54.22-27.89,112.74-41.26,172.32-51.13,81-13.43,162.16-25,244.25-30.79,65.43-4.59,130.32-6.22,195.1,5.32,3.51.63,7.13.71,9.94,6.86-21.4-2.46-41.5-6.19-61.71-6.86-119.6-3.93-237.91,7.37-355.69,28.45-52.53,9.41-104.61,18.81-153.91,39.66C3435.25,2010.7,3421.72,2018.61,3407.83,2025.68Z"/><path class="cls-34" d="M2946.58,1726.86c5.7,0,11.4,0,17.09,0,50,.24,63.29,10.13,67.16,58.86,4.57,57.48-1.29,114.8-9.23,171.87-3.15,22.62-17.68,36.88-33.74,49.82-67.16,54.12-139.17,100.17-220,131.79-34.36,13.44-70.23,19-106.15,18.61-105.3-1-210.66-1.66-315.85-5-64-2-128-.3-191.94-3.43-92.31-4.5-184.65-6.72-277-9.12-58.84-1.52-117.73-5.3-176.59-8.23-80.8-4-161.71-7.35-242.36-13.13-96.19-6.91-192.33-14.54-288.57-20.83-69.33-4.54-138.49-11.43-207.78-16.57-88.81-6.59-156.59-50.39-211.35-117.71q-21.5-26.43-42.28-53.44c-10.53-13.7-15.78-29.1-13.6-49.39,12,20.73,17.39,41.13,30.06,58.84,27.48,38.45,65,53.41,109.78,54.6s89.34,3.72,133.85,8.4c41.62,4.39,73.12-11,94-48.22,12.14-21.6,27.32-41.51,39.27-63.21,7.49-13.61,17.79-18.59,31.45-15.53,32.23,7.24,65.09,3.62,97.62,6.64,64.27,6,129,8.29,193.57,9.31,45,.71,76.88,16.83,96.64,58.67,10.49,22.2,22.32,44.27,39.35,63.06,18.08,20,40.78,21.17,64.54,18.85,11.22-1.1,15.81-7.24,10.58-19.4-21.59-50.14-39.29-102.07-65.57-150-19.67-35.91-56.85-40.43-92.46-42.74-67.29-4.38-134.78-5.66-202.09-9.74-52.45-3.19-104.81-7.94-157.39-8.12-10.56,0-17.7-4-22.28-13.2-.94-1.91-2.32-3.64-3-5.63-22.32-62.32-68.09-81.58-131.82-80.62-65,1-130.15-8.52-195.33-10.9-53.26-1.94-71.66,18.11-71.73,71.65,0,28.37,0,56.74-1.86,85.09-1-46.3-5.5-92.57.81-138.87,2.23-16.36,10.53-22.64,27.08-23.08,84.73-2.24,169.26,4.39,253.89,6,31.81.62,63.84,2.44,95.77,2.82,103.09,1.22,206,8.71,309.08,10,39,.48,78.13,1.57,117.19,2.72,117.27,3.47,234.47,8.37,351.82,10.17,53.25.82,106.64,1,159.92,3.17,118,4.75,236,6.29,354,9.44,34,.91,68.16,1.52,102.2,3.29,31,4.21,62.16.67,93.2,2,7.41.33,15.51-2.84,22.51,3.17-4.6,10.93-15.89,7.45-23.47,11.51-45.29,8.15-73.55,39.12-96.42,75.17-11.82,18.61-27,24.45-46.58,22.47-19.23-1.93-38.42-1.86-57.63-1.69-102.54.91-204.93-6.59-307.51-5-26.85.43-53.83-4.33-81-3.68-41.25,1-72.49,16.26-90,56.16-16.84,38.45-36.29,75.76-52.71,114.42-7.56,17.79-4.53,22.44,14.75,25.46,29.59,4.64,53.21-6,71.24-29.23,12.23-15.75,22.35-33,33.66-49.43,22.6-32.84,52-50.3,93.61-48.78,51.93,1.89,104.13-2,156,1,71.9,4.16,143.75,3.29,215.63,3.65,16.36.08,28.82,6.33,38.53,19.09,9.93,13.07,19.2,26.59,26.41,41.35,14.79,30.27,37.44,53.52,64.63,72.62,18.25,12.82,39.77,16,61.13,16.15,83.34.77,166.71,1.5,250-.15,55.79-1.1,103.24-20.75,131.52-72.81,14.32-26.38,16.84-55.84,18.71-84.88,1.82-28.38,1.15-57,.2-85.41-1.21-35.85-18.1-52.81-53.77-56.23-8.68-.83-19.32,1.49-22.7-10.85C2929.59,1720.3,2938.36,1725.29,2946.58,1726.86Z"/><path class="cls-7" d="M1009.9,1777.78c1,9.57,6.46,9.29,13.65,6.67,16.53-6,27.56-1.13,35.49,15.33,9.52,19.75,26.29,23.15,44.82,10.31a34.1,34.1,0,0,1,17.5-6.32c46.63-4,93-1,139.31,4.34,17,2,16.47,18.34,27.37,25.05l-2.7,5c-47.85,0-95.76-1.24-143.55.58-20.24.78-40.77,6.9-55.47,23.48-6.5,7.34-12.87,11.58-20.74,1.9-30.22-10.1-62-8.12-92.94-9.86-75.92-4.28-151.51-14-227.67-14-7.24,0-13.93-2.69-21-3-2.87,7,5.11,19.23-7.6,20.77-7.06.85-18.85-7.53-16.74-12.41,6.12-14.16,4-33.13,20.44-41.88,14.35-7.63,28.69-15.1,40.88-26.08,1.5-1.35,4.55-3.29,5.39-2.73,26.22,17.59,48.73-10.86,73.83-5.78,21.48-11.55,44.72-6.47,66.85-5,24.84,1.71,49.62,3,74.5,3.37C991.88,1767.71,1003.33,1766.36,1009.9,1777.78Z"/><path class="cls-35" d="M723.93,1837.26c18.78-10.12,38.74-3.37,57.67-2.32,89.88,5,179.66,11.8,269.45,18.23,6.54.47,17.45-3,14.53,10.91l-44.15,67.53c-.46,4.77-2.9,7.39-7.89,7.22-23.86,12.75-49.42,9.35-74.81,8-19-1-38.07-1.54-57.1-2.28-2.51,3.07-4.85,2.32-7.11-.3-17.86-4.74-36.24-2-54.29-3.81-19.85-2-37.82-9.34-54.1-20.84a11.44,11.44,0,0,1-9-8.74C738.49,1889.75,728.37,1864.79,723.93,1837.26Z"/><path class="cls-36" d="M1009.9,1777.78c-56.49-4.86-113-8.27-169.77-8.63-27.75-4.62-55.82-4.86-83.81-6.08-31-1.35-31-1.18-32.06-31l-.14.41c8-30.57,9.53-32.37,42.35-30.73q115.89,5.79,231.7,12.83c30.71,1.85,51.16,24.66,58.23,63.25Z"/><path class="cls-7" d="M1323.72,1810.63c29,5.39,58.1,10.39,87,16.36,13.8,2.85,26.34-2.24,39.38-4,33-4.34,64.9-4.55,94.17,14.87,12.64,8.39,16.14,15.39,4.31,28.42-27.11,29.88-27.19,31.05-57,1.83-11.41-11.19-26.32-11.84-38.85-14.52-27.91-6-56.69-12.45-86-4.41-9.86,2.7-23.24,7.15-24.88-12-.59-6.82-6.38-7.11-10.19-1-3.1,5-5.89,10.2-12.55,10.11-8.24-.11-18.09,3.68-23.88-4.57-4.9-7,1-15.07,2.07-22.45,1.46-9.94,11.11-6,17.63-6.77a71.35,71.35,0,0,1,8.53,0Z"/><path class="cls-37" d="M2946.58,1726.86c-7.39,1.48-16.15-2.85-22,5.16-8.38,7.21-18.66,5.93-28.47,6.07-106.51,1.62-212.88-7.16-319.42-4.41-8.41.22-17.25.19-23.76-6.92,5.25-7.57,15-1,23.42-8.3-31.95,0-61.37.19-90.79-.12-7.49-.08-15.77,2.69-22.24-3.88,106.26,1.41,212.61.76,318.75,5.13,48.85,2,97.66,1.63,146.46,3.31C2934.75,1723.12,2941.46,1721.46,2946.58,1726.86Z"/><path class="cls-7" d="M1587.06,1925c.71.37,4.14,1,5.31,2.91,10.65,17.72,14.35,37.94,19.63,57.54,1.07,4-2.28,8.6-7.29,8.54-4.63,0-5.24-4.61-4.7-8,3.06-19.17-7.25-25-24.1-25.75a25,25,0,0,1-13.76-5.08c-5-4-14.72-5.31-12.48-14.93,1.84-7.86,9-7.31,15.37-8.45C1571.9,1930.57,1578.46,1927.73,1587.06,1925Z"/><path class="cls-7" d="M874.52,1944.25l7.11.3c6.72,11.77-1.45,17.77-10.12,16.14a89.74,89.74,0,0,0-37.44.87c-7.15,1.6-15.71-.36-15.24-9.94s9.46-6.33,15.2-6.59C847.51,1944.42,861,1944.47,874.52,1944.25Z"/><path class="cls-7" d="M761.46,1697.27c-6.24-1.44-16.47,3-15.34-9,1-10.4,8.87-13.8,18.61-12.51,6.92.91,18.22-3.65,17.68,8.78S770.38,1696.17,761.46,1697.27Z"/><path class="cls-7" d="M724.26,1732c-5.28-1.75-11.07,4-16.19-1.33-3.7-3.85-6.43-7.6-3.24-13.11,2.21-3.79,4.44-7.34,9.55-7.32,6.26,0,8.84,3.46,9,9.38.12,4.26.47,8.52.72,12.79Z"/><path class="cls-7" d="M757.16,1910.86c3.82,2.06,7.64,4.13,9,8.74a9.23,9.23,0,0,1-1,1.82c-4.33,5-7.63,12.32-16.38,8.14-2.92-1.39-7.46-2.73-6.45-6.83C744.15,1915.42,749.5,1911.42,757.16,1910.86Z"/><path class="cls-7" d="M1013.54,1938.83c1.43-3.72,3.88-6.33,7.89-7.22,4.61,3,14.57-4.69,14.57,6.15a14.54,14.54,0,0,1-11.76,13.77C1015.43,1953,1014.74,1945.13,1013.54,1938.83Z"/><path class="cls-38" d="M1911.78,2773.13c0,49.1.11,98.21,0,147.31-.08,24.52-11.79,37.62-36.32,36.55-41.76-1.83-83.43-5.72-125.13-8.91-31.08-2.38-62.09-5.81-93.2-7.37-72.92-3.66-145.56-10.69-218.3-16.63-23.3-1.9-46.69-2.29-70-4.69-31.39-3.23-42.61-13-42.66-43.57q-.22-142,0-284c.05-24.58,11.94-36.56,36.66-36.16,82.32,1.32,164.41,7.18,246.53,12.44,58.06,3.71,116.21,6,174.32,8.91,29,1.48,58.11,2.72,87.13,4.71,27.76,1.9,40.92,16.09,41.06,44,.24,49.11.06,98.21.06,147.32Z"/><path class="cls-39" d="M3057.16,2662.22c-3.76,84.2-11.3,168.05-24.16,251.39-1.94,12.6-4.43,25.19-5.14,37.87-2.11,37.65-23.53,59.93-57.42,70.79-64.81,20.77-131.48,34.61-197.59,50.46-35.8,8.58-72,15.67-107.95,23.43-3.46.75-6.94,2.22-10.38,2.13-6.05-.16-14.58,3.7-17.51-3.05-3.54-8.15,6.35-9.7,11-13,52.57-37.7,110.5-66.86,164.33-102.59q36.38-24.15,73.32-47.41c12.87-8.08,19.93-18.73,22.76-34,10.64-57.31,13.41-115.29,16.53-173.27,1-19.1-.14-38.15,3.36-57.32,4.29-23.56-3.26-31.94-27.53-30.23-105.2,7.43-210.53,2.58-315.78,4.3-14.85.24-29.36,5-44.47,3.71-8.15-.69-18-1-18.59-10.14-.53-8,9.68-9.6,16.29-10.54,34.35-4.85,68.78-9.18,103.22-13.37,80.09-9.74,160.1-20.22,240.34-28.55,42.26-4.39,84.47-10.71,127.17-10.23,29.86.33,45.85,14.62,48,44.8C3058.05,2632.27,3057.16,2647.27,3057.16,2662.22Z"/><path class="cls-40" d="M646.6,2639c0,24.91,1.56,49.94-.33,74.71-3.5,45.64,15.35,81.14,46.25,112.15q49,49.17,97.88,98.45c5.22,5.29,13.73,10.37,7.61,19.56-5.22,7.85-12.54,3.21-19.29,1.31-69-19.44-137.37-41-203.11-69.49-62.1-27-81.6-42.83-87.68-125.1q-9.27-125.46-8.46-251.13c.44-57.37,19.24-70.68,74.46-51.81Q677.8,2490,801.44,2533c6,2.1,16.75,1.9,13.7,12.15-2.48,8.3-11.74,6.9-18.64,5.49-43-8.79-86.09-17.39-128.88-27.17-16.39-3.75-21.83.61-21.37,17.38.89,32.71.26,65.47.26,98.21Z"/><path class="cls-41" d="M5126.15,1641.11c-.19-33.14-.31-33.45,33.27-46.81,8.51-3.38,8.39-10,10.5-16.68,11.57-36.74,27.35-47.69,62.82-47.62,17.71,0,28.37,9.2,34.95,23.09,7.44,15.69,17.72,23.19,35.12,20.13,2.76-.49,5.68-.1,8.52-.11,29.56-.09,39.4,6.54,41.46,27.93,3.44,35.67-6.41,53-35.17,57.19-21.28,3.11-37.68,7.57-43.52,32.94-5.9,25.65-28,37.3-52.61,39.46-24.34,2.13-39.1-13.25-48.6-34.33-2.58-5.74-5.26-10.62-13.16-12.08C5126.29,1678.09,5126.35,1677.72,5126.15,1641.11Z"/><path class="cls-42" d="M4067.4,3018.66c0,182.79-22.67,320.85-82.2,450.89-33.11,72.32-75.31,138.52-146.64,181.07-60.06,35.83-133.27,30.52-186.5-15.18-62.32-53.5-95.78-124.19-119.54-200.44-33.35-107-43.68-217.15-38.11-328.44,7-139.54,35.23-274.49,97.9-400.72a412.06,412.06,0,0,1,109.78-137.23c64.3-52.42,153.3-46.28,217.45,13.86,59.23,55.54,89.84,127.37,111.79,203C4057.19,2874.67,4068.07,2966.25,4067.4,3018.66Z"/><path class="cls-43" d="M3363.54,2808c-1.41-.77-4.59-1.46-5.82-3.39-2.45-3.86-2.17-8.75,1.38-11.67,7.09-5.81,14.38-11.63,22.34-16.09,31-17.39,63.4-31.63,97.55-41.63,4.63-1.36,11.08-6.78,14.27,2,2.45,6.74-1.67,10.53-7.56,12.95-40,16.45-80.18,32.4-116.76,55.92C3367.79,2806.88,3366.29,2807.09,3363.54,2808Z"/><path class="cls-44" d="M3446,2920.08c-.95,8.39-5.42,10.53-10.07,12.56a587.85,587.85,0,0,0-107,60.64c-3.71,2.65-7.72,7.86-12.54,1.66-4-5.15-3.48-10.59.68-15.52a20,20,0,0,1,4.87-4.05c33.89-20.65,67.62-41.64,103.71-58.36C3433.27,2913.45,3441.53,2911.58,3446,2920.08Z"/><path class="cls-45" d="M3668.71,2460.52c.14,7.87-5,9.58-11.23,9.6-40.4.12-78.42,11.79-116.36,23.82-5.66,1.8-11.63,4.11-14.77-2.88-4-8.8,3.81-11.21,9.44-13.42,37.94-14.92,76.84-25.58,118.08-24.95C3660,2452.79,3667.32,2451.35,3668.71,2460.52Z"/><path class="cls-43" d="M3565.79,2588.86c-1,7.14-6.28,8.53-12.23,9.38-38.2,5.49-74,18.52-108.8,34.7-6.2,2.88-13.6,8.46-18.47-.5s2.89-13,9.54-15.55c37.54-14.64,74.46-31.35,115-36.5C3561.85,2579,3566.38,2581.72,3565.79,2588.86Z"/><path class="cls-2" d="M3295,3210.23c-2.05-1-4.93-1.75-6.75-3.55-3.12-3.06-1.92-6.73.92-9.24,8.46-7.46,16.74-15.24,25.87-21.8a645,645,0,0,1,87-52.44c4.48-2.25,9.71-5.09,13.06.7s1.19,11.08-4.79,14.2c-38.27,20-75,42.28-108.77,69.31C3300,3208.67,3297.78,3209.08,3295,3210.23Z"/><path class="cls-46" d="M3314,3390c-2.56-1.43-5.82-2.15-7.06-4.13-4-6.44.76-10.75,5-14.42,25.89-22.22,52.52-43.76,83.11-59,10.42-5.2,24.42-24,33.74-7.91,6.31,10.86-15,16.82-25.16,23.18-26.46,16.64-53.56,32.24-77.2,53C3322.78,3383.84,3318.61,3386.52,3314,3390Z"/><path class="cls-47" d="M3133.6,3375.13c10.17,4.76,22.93,10.75,35.72,16.68,23.16,10.75,44.27,25,65.64,38.72,5.23,3.37,8.94,8.18,5.15,14.13-4.13,6.48-10.19,3.66-14.79.21-29.08-21.82-61.86-36.75-94.77-51.49-5.16-2.32-10.39-5.43-9-12.64C3122.55,3375.86,3125.5,3373.44,3133.6,3375.13Z"/><path class="cls-43" d="M3468,3467.05c.23,6.54-3.5,9.92-7.88,12.45-31.44,18.15-60.5,39.79-89.79,61.11-4.51,3.28-9,8.45-14.61,2.21-6.44-7.15-.67-11.18,4.47-15.43,28.53-23.6,60.33-42.51,90.87-63.2C3457.06,3460.09,3464.2,3457.77,3468,3467.05Z"/><path class="cls-47" d="M3182.3,3525.3c20,8.71,45.49,19.51,70.69,30.94,10.32,4.68,20.09,10.62,30,16.22,4.91,2.77,7.11,7.22,4.63,12.59-2.9,6.26-8,4.74-12.69,2.4-32.35-16.3-64.59-32.81-98.68-45.36-6.05-2.22-8.63-7.18-7.37-13.67C3169.69,3524.19,3172.36,3522.59,3182.3,3525.3Z"/><path class="cls-46" d="M3429.55,3679.15c-3.83.25-7.08-.68-8.33-4.76-1.81-5.94,2.13-9.45,6.14-12.31,19-13.53,38.16-26.79,57.21-40.24,9.8-6.93,19.33-14.25,29.26-21,4.19-2.85,9.49-4.76,13.09.69,2.49,3.76,2.1,9.18-1.39,11.8-30.51,22.9-60.76,46.21-93.94,65.28A8.61,8.61,0,0,1,3429.55,3679.15Z"/><path class="cls-48" d="M3603.43,3711.57c.21,5.84-3.44,8.11-6.93,10.61q-35.4,25.32-70.71,50.78c-6,4.36-13,9.21-18.21,1.24-4.48-6.84,2.67-11.58,7.77-15.24,23.59-16.93,47.34-33.62,71-50.42C3593.49,3703.51,3599.34,3703.93,3603.43,3711.57Z"/><path class="cls-46" d="M5964.6,2693.24c3.14,115.82-14.29,225.47-51.51,331.61-19.35,55.19-44.77,107.81-87,150.07-69,69.09-142,62.79-199.42-16.87-43.87-60.87-63.95-130.91-77.22-203.3-24.63-134.4-20.34-268.27,7.37-401.92,17.49-84.37,44-164.74,95-235.28,23.93-33.11,54.34-59,94.72-68.78,50.9-12.34,88.21,13,118.38,50,46.56,57.2,67.83,125.43,82.25,196.46C5960.71,2561.7,5966.93,2628.66,5964.6,2693.24Z"/><path class="cls-49" d="M5390.19,2982.18c-3.76-.31-6-1.63-7-4.7-2-6.24.13-11.36,5-15,21.06-15.46,42.15-30.88,63.52-45.91a191.31,191.31,0,0,1,23.75-13.88c4.53-2.29,10.08-2.77,13,2.74s-.22,10.19-4.62,12.68c-31.54,17.8-59.69,40.37-88.48,62C5393.81,2981.38,5391.54,2981.69,5390.19,2982.18Z"/><path class="cls-47" d="M5668.18,2192.68c-1.84,7.69-7.62,8-13.4,8.25-30.78,1.46-60,9.21-88.48,20.78-6.35,2.58-16,9-20.13-2-4.55-12.07,6.86-13.08,14.55-15.95a366.06,366.06,0,0,1,90.63-21.76C5660.94,2181,5666.21,2183.75,5668.18,2192.68Z"/><path class="cls-50" d="M5427.79,3113.88c-4.09.88-6.79-1.13-8.81-4.33-2.13-3.39-2.24-7.56.61-9.82,27.78-22,55.55-44.06,87.36-60.16,4.2-2.13,8.42.25,10.6,4.59,2.37,4.74-.11,9-3.72,11-29.29,16.31-54.61,38.26-82.15,57A20.83,20.83,0,0,1,5427.79,3113.88Z"/><path class="cls-44" d="M5562.39,3164.35c-.54,7.6-5.38,11-9.88,14.3-21.66,16-43.47,31.84-65.19,47.77-5.53,4.06-11.22,7.45-16.44.11s.17-11.59,5.65-15.44c23.2-16.3,46.3-32.75,69.68-48.81C5552,3158.3,5558.92,3154.32,5562.39,3164.35Z"/><path class="cls-51" d="M5610.73,3244.51a9.22,9.22,0,0,1,9,4.42c2.39,3.7.82,7.26-1.82,9.55-22,19.07-44.27,37.71-69.52,52.4-3.2,1.86-7.26,2.14-9.56-1.32a11.55,11.55,0,0,1-1.27-7.78C5538.49,3296.82,5605.52,3244.82,5610.73,3244.51Z"/><path class="cls-46" d="M1498.34,3188.42c-18.53.16-37.17.17-54.8-6.18-23.48-8.46-42.93-22.26-53.44-45.93-11.23-25.27-23.16-50.36-29.85-77.31-5.34-21.49,4.17-35.07,25.64-36.82,27.75-2.27,55.38,1.82,82.67,5.63,25.1,3.51,40.25,21.9,51.69,43.52,12.37,23.37,20.8,48.22,28.66,73.28,10.35,33,2.74,43.43-31.36,43.8C1511.15,3188.48,1504.74,3188.42,1498.34,3188.42Z"/><path class="cls-2" d="M2217.77,3081.45c24.79.07,49.4.72,73.25,9.24,13.26,4.74,24.51,12.26,32.16,23.38,22.42,32.55,34.88,69.36,41.88,107.95,3.6,19.82-10.47,27.58-26.24,28.8-36.88,2.85-73.66,1.14-109.08-11.48-18.07-6.44-28.37-20.91-36.26-37-12.18-24.8-22.68-50.39-29.22-77.33-7.78-32.09,1.12-43.16,34.33-43.55C2205,3081.41,2211.37,3081.48,2217.77,3081.45Z"/><path class="cls-52" d="M1890.45,3218.3c-14.48-1-30.66.44-47-3.27-29.28-6.67-49.35-21.65-60.46-50.58-9.65-25.12-21.23-49.46-26.35-76.09-4.57-23.83,4.42-35.68,27.84-36.92a345.06,345.06,0,0,1,78.54,5c26.81,4.76,45.36,22,57.53,46.16s22.45,49.1,28.64,75.5c6.88,29.34-1.37,39.72-31.37,40.22C1909.29,3218.42,1900.75,3218.3,1890.45,3218.3Z"/><path class="cls-43" d="M1035.83,2991.35c12.63-1.45,30.17,2.82,47.67,5.22,22.55,3.09,42.54,13.61,53.64,34.59,16.28,30.76,29.17,63,35.43,97.51,2.89,15.92-2.69,25.24-20.51,27.48-36.19,4.55-70.73-1.2-104.48-13.55a32.7,32.7,0,0,1-13.67-9.92c-26.48-33.4-42.38-71.82-49.57-113.45-2.89-16.77,7.65-26.59,24.8-27.79C1016.22,2990.94,1023.38,2991.35,1035.83,2991.35Z"/><path class="cls-53" d="M863.63,3156.2c-.42,6.57-4.87,8.78-9.21,11.33-25.75,15.12-49.7,32.5-69.79,54.88-4,4.4-8.92,11.94-15.59,6s-1.94-13.14,2.91-18.62c21.35-24.12,47.16-42.56,75.36-57.76C853.71,3148.53,860.9,3146.16,863.63,3156.2Z"/><path class="cls-44" d="M896.09,3274.67c-.7,5.15-5,6.65-8.46,9-22.55,15.07-44.43,30.82-58.44,55-3.44,6-9.32,10.44-16,6.72-8.1-4.53-3.07-11.26.14-16.46,16.51-26.78,41.79-44.1,67.25-61.06C888.59,3262.55,894,3265.7,896.09,3274.67Z"/><path class="cls-43" d="M950.21,3382.46c-.12,6.32-4.19,9.67-8.05,12.53-19.55,14.48-35.87,32.1-50.48,51.36-3.81,5-7.73,9.07-13.92,4.71-5.68-4-5.55-9.74-1.42-14.87,16.9-21,34.2-41.7,57.58-56C939.55,3376.79,946.68,3371.38,950.21,3382.46Z"/><path class="cls-54" d="M955.5,3534.29c-7.22-2-11.47-6.42-6.6-13.68,15.6-23.25,36.5-41.1,59.77-56.32,4.19-2.73,8.19-1.79,11.2,2.05,2.54,3.25,2,6.76-.82,9.53-19.5,19.3-42.65,34.82-59.23,57.17C959.17,3533.92,957.21,3533.83,955.5,3534.29Z"/><path class="cls-7" d="M2552.93,1726.76c123.94-2.27,247.74,5.39,371.65,5.25,6.77,5.93,15,3.29,22.56,3.46,33,.75,56.93,18.38,58.14,50.23,2,53.11,5.06,106.74-8.4,159.11-13.4,52.18-62.18,93.43-116.43,98.55-96.62,9.11-193.51,3.93-290.24,3.38-55.52-.31-90.65-37.77-116.38-82.09-38-65.54-36.83-66.52-112.84-66.47-109.62.08-219.12-5.85-328.78-5.27-37,.19-62.21,15.65-82,44.12-11.76,16.9-22.58,34.45-34.46,51.24-21.78,30.78-62.2,42.4-96.89,29-10.32-4-10.18-10.35-6.3-18.57,23-48.86,44.87-98.33,69.51-146.37,14.7-28.66,43.79-40.52,73.65-38.84,95.19,5.38,190.53.68,285.7,6.59,45.44,2.83,91.16.88,136.75,1.36,12,.13,24,.74,36.1,1.83,15.9,1.44,29.19-1.86,39.85-19.58C2476.62,1766.2,2504.76,1732.73,2552.93,1726.76Z"/><path class="cls-7" d="M1710,2060.89c-16.12.82-26.16-16.42-34.31-33.86a1021.23,1021.23,0,0,1-52.52-136.85c-11.29-37.32-24.42-74.08-36.62-111.12-2.16-6.56-6.51-13.77,1.1-19.46,7.28-5.45,13.65,0,19.56,3.42,20.86,12.12,35.85,29.59,46.91,51,18.92,36.63,36,74.07,52,112,2.57,6.07,3.91,16.53,11.79,15.24,5-.83,9.9-9.66,12.7-15.86,17.59-38.86,41.27-74.29,62-111.4,11.87-21.28,30.77-35,52.48-45.11,6.6-3.08,13.47-5.83,20-.32,7.37,6.25,2.78,13.64-.08,19.54-38.06,78.49-66.57,161.29-107.56,238.4C1749,2042.22,1740.49,2060.43,1710,2060.89Z"/><path class="cls-55" d="M1616.48,2584.07c83.12,4.5,166.25,8.86,249.36,13.58,25.33,1.44,30.87,7.61,30.87,33q0,141.92-.24,283.82c-.06,23.47-4.53,27.82-27.74,26.08q-220.27-16.46-440.51-33.24c-19.16-1.44-38.34-2.49-57.53-3.43-19.56-1-29.47-9.69-29.35-30.54.51-92.47.41-185,.25-277.42,0-19.18,8.55-26.63,27.66-25.51,82.4,4.82,164.83,9,247.24,13.45Z"/><path class="cls-13" d="M2641.24,2625.43c37.65-4.67,75.28-9.47,112.94-14,69.63-8.33,139.26-16.76,209-24.53,16.21-1.81,32.7-1.74,49-1.46,20.79.35,31.51,10.8,32.42,31.41,2.69,61.2-3.68,122-9.72,182.73-4.49,45.08-11.55,89.89-16,135-3.8,38.76-24.67,70.32-65.13,80.89-90.46,23.64-181.48,44.46-274.44,62,14.86-9.37,29.6-18.94,44.61-28.06,57.65-35,115.28-70.07,170.67-108.65,14.9-10.38,23.55-23.9,26.32-41.85,10.06-65.27,14.59-131,17.11-196.91.38-9.92.26-19.95,1.71-29.73,5-33.53-4.86-46-38.89-47.78-15.67-.81-31.17,2.53-46.68,3-66.77,2.26-133.6,3.23-200.4,4.57-4,.08-8.09-.8-12.13-1.23Z"/><path class="cls-13" d="M689.48,2512.8c-13.09-1.4-26.17-3.11-39.3-4.09-10.15-.76-16.63,3.89-16.37,14.77,1.8,77.39-4.1,154.88,3.52,232.2,3,30.55,22.35,52,41.24,72.69,28.73,31.51,59.77,60.92,89.8,91.25,2.43,2.46,5.35,4.83,3.82,11.5-24.88-7.69-49.88-14.59-74.3-23.16-40.81-14.32-80.91-30.7-121.92-44.39-51.58-17.23-72.07-54-75.32-106-4-64.47-7.82-128.88-8.79-193.49-.4-26.83-6.19-53.55-.31-80.46,6.3-28.84,17.82-37.93,45-28.94,51.68,17.11,102.57,36.56,153.79,55Z"/><path class="cls-56" d="M5339.94,1614.49c4.34,21.87-11.32,30.14-30.26,33.28-50.2,8.31-100.59,15.46-150.91,23-7.09,1.06-12.49-2.16-16.37-7.83-12.61-18.42-1.41-48.53,20.61-52.49,48.68-8.75,97.47-17.14,146.44-24.09C5336.62,1582.51,5340.07,1586.74,5339.94,1614.49Z"/><path class="cls-57" d="M5265.92,1575.88c-.41,7.11-6.81,6.18-11,7.68-20.77,7.52-43.13,5.07-64.39,9.86-6.63,1.5-8.15-3.31-8.64-8.9-1.52-17.17,17.39-39.34,35.49-41.36,24.3-2.71,45.67,11,47.89,30.68A10.54,10.54,0,0,0,5265.92,1575.88Z"/><path class="cls-58" d="M5220.16,1718.44c-20.4,2.92-28.05-12.65-35.28-28.66-3.87-8.57,2.2-9.11,8.21-10.26,20.09-3.85,40.06-8.38,60.2-11.87,10.94-1.89,15.67,1.4,11.66,14.25C5257.29,1706.42,5244.48,1718.21,5220.16,1718.44Z"/><path class="cls-59" d="M4054.31,3101.92c-1.77,105.31-24.85,248.2-91.15,381.66-27.17,54.71-61.23,104.62-110.83,141.61-72.1,53.78-146.5,47.87-209-16.31-58-59.49-88.46-133.61-107.24-212.69-52.22-220-34.56-435.07,50.7-644.15,24.58-60.26,59.35-114.92,108.22-159.46,67.13-61.19,151.23-61.17,216.47,1.47,60.13,57.72,91,131.76,111.52,210.32C4044.8,2888,4054.9,2973.33,4054.31,3101.92Z"/><path class="cls-59" d="M5952.38,2699.31c-2.4,126.41-19.67,252.5-74.52,371.15-18.07,39.08-40.22,75.38-72.32,104.66-50.9,46.43-108.21,43.49-153.23-8.63-42.52-49.23-64.92-108.47-78.59-170.82-43.45-198.25-32.29-393,42.23-582.7,18.86-48,45.09-91.94,85.93-125.47,42.18-34.63,90.67-34.17,131.76,1.23,45.26,39,65.55,92.34,82.92,146.65C5943.69,2520.19,5951.21,2608,5952.38,2699.31Z"/><path class="cls-13" d="M1427.5,3042.62c10,0,19.92-.33,29.85.07,15.68.64,29.81,6.32,38.9,19.06,19.21,26.95,27.48,59,38.39,89.62,3.63,10.21-3.21,15.88-14,15.79-19.2-.16-38.64,1.54-57.52-1-23.13-3-43.6-12.33-53.15-36.79-8.25-21.14-18.26-41.6-26.16-62.85-7.26-19.53-2.63-24.88,18.07-24.32,8.53.23,17.07,0,25.6,0Z"/><path class="cls-13" d="M2225.08,3098.48c14.4-2.09,33.22,3,52.21,4.59,17.63,1.52,31.2,10.86,40.16,27.52,13.58,25.24,19.59,53.07,29.46,79.55,5,13.42-.79,23.32-15.27,23.39-30.34.16-60.87-.6-90.31-9-12-3.44-20.27-13.19-26.08-24-14.19-26.27-23.05-54.75-32.6-82.88-4-11.72.17-19.5,14.12-19.2C2204.57,3098.62,2212.38,3098.48,2225.08,3098.48Z"/><path class="cls-60" d="M1896.54,3201.45c-17.58-1.82-35.34-2.66-52.71-5.68-25.28-4.39-37.95-23.45-46.66-45.17-7.86-19.63-14.87-39.67-21-59.91-3.93-13-.35-22.78,16.19-21.78,24.71,1.49,49.55,1.9,74.11,4.77,18.92,2.21,32.31,14.38,39.59,31.8q12.67,30.33,23.31,61.51c9.8,28.74,6,33.57-24.23,33.64h-8.52Z"/><path class="cls-13" d="M1113.55,3137.34c-9.09-.52-20.76.29-31.74-2.09-23-5-42.41-15-50.82-40-7.68-22.85-17.35-45-26.32-67.45-5.2-13-.52-19.17,13-19.09,17.79.1,35.72-.77,53.33,1.16,26.22,2.89,46.42,15.47,58.57,40.35,10.35,21.2,16.81,43.72,25.31,65.53,6.25,16.05,1.57,22.77-15.54,21.69C1131.51,3136.93,1123.66,3137.34,1113.55,3137.34Z"/><path class="cls-36" d="M2491.14,1904.36c116.9,0,231.4-.18,345.91.1,40.56.1,81.11,1.87,121.66,1.76,14.69,0,18.42,4.37,15.31,18.7-9.7,44.61-59.62,87.85-105.61,88.19-88.23.64-176.48.15-264.72.11-20.39,0-37.1-8.69-51.19-22.68C2527.12,1965.34,2509.12,1935,2491.14,1904.36Z"/><path class="cls-61" d="M2495.63,1827.27c26.3-47.36,57.47-72.9,108.59-71.26,110.26,3.52,220.61,4.55,330.91,7,35.21.77,53.76,26.77,45,60.74-2.72,10.52-10.16,8-16.82,8-94.67-1.39-189.33-3.24-284-4.27C2619.65,1826.74,2560,1827.27,2495.63,1827.27Z"/><path class="cls-62" d="M1604.53,1780.23c17.52,9,26.31,22.68,33.42,37,21.17,42.58,41.46,85.61,62.23,128.39,3.65,7.51,6.24,17.17,16.63,17.42,10.15.25,14-9,18.12-16.14,22-38.12,43.27-76.69,65.67-114.58,10.7-18.11,22.5-35.89,46.36-46.85-25.89,60.11-50.63,117-74.87,174.07-9.72,22.9-19.09,45.91-32.53,67-15.86,24.85-31.28,24.7-45.67-.75-15.08-26.68-26-55.2-36.21-84C1639,1889.13,1620.54,1836.4,1604.53,1780.23Z"/></svg>