<svg id="Layer_1" data-name="Layer 1" xmlns="http://www.w3.org/2000/svg" viewBox="0 0 4723.55 1254.53"><defs><style>.cls-1{fill:#fff;}</style></defs><path class="cls-1" d="M4701,0H22.53A22.53,22.53,0,0,0,0,22.53V1232a22.53,22.53,0,0,0,22.53,22.53H4701a22.53,22.53,0,0,0,22.53-22.53V22.53A22.53,22.53,0,0,0,4701,0ZM4678.5,604.74h-3424V45.05h3424ZM45.05,45.05H1209.48V1209.48H45.05ZM4678.5,1209.48h-3424V649.8h3424Z"/><path class="cls-1" d="M1457.57,455.78l-7.73-225.27h38.62l5.15,171.2v29h7.72v-29l10.3-171.2h68.23l10.29,171.2v29h7.73v-29l5.14-171.2h38.62l-7.72,225.27h-74l-10.3-171.2v-30.9h-7.72v30.9l-10.3,171.2Z"/><path class="cls-1" d="M1727.57,460.28a66.91,66.91,0,0,1-35.08-9.65q-16.1-9.66-25.74-28t-9.66-44.09v-5.15q0-25.41,9.33-43.76t24.94-28.16a63.17,63.17,0,0,1,34.28-9.82q17.05,0,27.51,5.8t16.58,18h5.79V296.16h40.55V407.51q0,9.64,8.69,9.65h6.11v38.62h-27.68q-10.93,0-17.86-6.6a21.94,21.94,0,0,1-6.91-16.57h-5.8q-6.12,14.81-17.86,21.24T1727.57,460.28Zm9-38.61q17.7,0,28.32-11.75t10.62-32V374q0-20.28-10.62-32t-28.32-11.75q-17.7,0-28.32,11.75t-10.62,32v3.86q0,20.28,10.62,32T1736.58,421.67Z"/><path class="cls-1" d="M1854.69,455.78V417.16h32.82V334.78h-29V296.16h67.58v23.17h5.79a38.65,38.65,0,0,1,15.45-20.44q10.94-7.23,25.74-7.24,23.82,0,38.3,15t14.48,45.54v7.07l-41.83,3.86v-4.5q0-13.2-6.76-21.08T1957,329.63q-13.51,0-21.24,9.33t-7.72,26.71v51.49h36.69v38.62Z"/><path class="cls-1" d="M2063.22,455.78V296.16h40.55V320h5.79a42.35,42.35,0,0,1,17.7-20.91q12.24-7.41,28.65-7.41a60.16,60.16,0,0,1,28.15,6.6q12.72,6.6,20.28,20.59t7.56,35.89v101h-40.55V365q0-17.05-8.2-26.88t-23.66-9.81q-17.7,0-26.71,12.07t-9,32.34v83Z"/><path class="cls-1" d="M2263.07,455.78V417.16h54.07V334.78h-50.21V296.16h90.75v121H2404v38.62Zm74-176.36a29.63,29.63,0,0,1-21.56-8.85,30.68,30.68,0,0,1,0-43.44,30.69,30.69,0,0,1,43.12,0,30.68,30.68,0,0,1,0,43.44A29.66,29.66,0,0,1,2337.09,279.42Z"/><path class="cls-1" d="M2457.12,455.78V296.16h40.55V320h5.8a42.25,42.25,0,0,1,17.7-20.91q12.23-7.41,28.64-7.41a60.2,60.2,0,0,1,28.16,6.6q12.71,6.6,20.27,20.59t7.56,35.89v101h-40.54V365q0-17.05-8.21-26.88t-23.65-9.81q-17.71,0-26.71,12.07t-9,32.34v83Z"/><path class="cls-1" d="M2676.28,520.14V481.52h83q8.68,0,8.69-9.65V432.61h-5.79q-4.83,10.62-15.93,19.15t-34,8.52a67.24,67.24,0,0,1-35.4-9.49q-15.78-9.5-25.11-27.68t-9.33-44.25v-5.79q0-25.74,9.82-43.92t26.06-27.84a68.35,68.35,0,0,1,35.56-9.66q19.32,0,30.74,7.24a46.91,46.91,0,0,1,17.54,20.44H2768V296.16h40.55V495q0,10.93-6.92,18t-17.86,7.08Zm49.24-98.47q19,0,30.73-12.07T2768,377.9V374q0-19.62-11.75-31.7t-30.73-12.07q-18.67,0-30.57,11.9T2683,374v3.86q0,20,11.91,31.86T2725.52,421.67Z"/><path class="cls-1" d="M2924.4,460.28a29.68,29.68,0,0,1-21.56-8.85,30.68,30.68,0,0,1,0-43.44,30.69,30.69,0,0,1,43.12,0,30.66,30.66,0,0,1,0,43.44A29.68,29.68,0,0,1,2924.4,460.28Zm-21.24-72.72v-157h42.48V387.56Z"/><path class="cls-1" d="M1458.17,876.26V777.13h18.69v40.65H1481l26.19-40.65h21.1V778l-30.58,47.43V828L1530,875.41v.85h-22l-27-40.65h-4.11v40.65Z"/><path class="cls-1" d="M1545.25,876.26V777.13h17.84v40.22h2.55a21.58,21.58,0,0,1,7.93-9.84,22.86,22.86,0,0,1,12.89-3.47q10.47,0,17.34,6.8t6.87,21.24v44.18h-17.84V836.32q0-7.5-3.61-11.82t-10.41-4.32c-5.19,0-9.11,1.78-11.75,5.31s-4,8.29-4,14.23v36.54Z"/><path class="cls-1" d="M1663.91,878.24a39.13,39.13,0,0,1-18-4.25,33.7,33.7,0,0,1-13.45-12.32q-5.1-8.07-5.1-19.68v-1.7q0-11.47,5.1-19.61a33.52,33.52,0,0,1,13.45-12.39,40.16,40.16,0,0,1,36,0,33.61,33.61,0,0,1,13.46,12.39q5.09,8.15,5.09,19.61V842q0,11.61-5.09,19.68A33.79,33.79,0,0,1,1681.89,874,39.13,39.13,0,0,1,1663.91,878.24Zm-24.07-82.7,11.89-19.25h24.36L1688,795.54h-17.13l-6.09-12.45h-1.7L1657,795.54Zm24.07,65.71a18.85,18.85,0,0,0,13.24-5q5.44-5,5.45-13.67v-2.83q0-8.78-5.45-13.73a20.15,20.15,0,0,0-26.48,0q-5.45,4.95-5.45,13.73v2.83q0,8.66,5.45,13.67A18.83,18.83,0,0,0,1663.91,861.25Z"/><path class="cls-1" d="M1718.28,876.26V806h17.85V816.5h2.54a18.61,18.61,0,0,1,7.79-9.2,23.88,23.88,0,0,1,12.6-3.26,26.41,26.41,0,0,1,12.39,2.91,21.2,21.2,0,0,1,8.93,9q3.31,6.16,3.32,15.79v44.47h-17.84V836.32q0-7.5-3.61-11.82t-10.41-4.32c-5.19,0-9.11,1.78-11.75,5.31s-4,8.29-4,14.23v36.54Z"/><path class="cls-1" d="M1814.71,904.58v-17h36.53c2.55,0,3.83-1.41,3.83-4.25V866.06h-2.55a22.31,22.31,0,0,1-7,8.42q-4.89,3.76-14.94,3.76A28.87,28.87,0,0,1,1804,861.88q-4.11-8-4.11-19.46v-2.56q0-11.33,4.32-19.32a31,31,0,0,1,11.47-12.25,30.1,30.1,0,0,1,15.65-4.25q8.49,0,13.52,3.19a20.64,20.64,0,0,1,7.72,9h2.55V806h17.84v87.51a10.88,10.88,0,0,1-3.05,7.93,10.53,10.53,0,0,1-7.85,3.12Zm21.67-43.33q8.36,0,13.52-5.31t5.17-14v-1.7q0-8.64-5.17-13.95T1836.38,821a18.24,18.24,0,0,0-13.46,5.24q-5.24,5.24-5.23,14V842q0,8.79,5.23,14A18.21,18.21,0,0,0,1836.38,861.25Z"/><path class="cls-1" d="M1983.92,876.26V777.13h17.84v54.66h3.4L2023.85,806h19.54v.85L2020.74,839v2.56l24.92,33.84v.85h-20.39l-20.11-27.47h-3.4v27.47Z"/><path class="cls-1" d="M2065.2,876.26V777.13H2083v40.22h2.55a21.45,21.45,0,0,1,7.93-9.84A22.85,22.85,0,0,1,2106.4,804q10.48,0,17.35,6.8t6.87,21.24v44.18h-17.85V836.32q0-7.5-3.61-11.82t-10.4-4.32c-5.2,0-9.12,1.78-11.76,5.31s-4,8.29-4,14.23v36.54Z"/><path class="cls-1" d="M2176.49,878.24a26.21,26.21,0,0,1-12.6-3,21.79,21.79,0,0,1-9-9.34q-3.33-6.3-3.33-15.93V806h17.84v40.22q0,7.37,3.61,11.61t10.55,4.24q8.07,0,11.83-5.16t3.75-14.09V806H2217v70.24h-17.84v-10.2h-2.55Q2191.92,878.24,2176.49,878.24Z"/><path class="cls-1" d="M2251,904.58v-17h31c2.55,0,3.83-1.41,3.83-4.25V866.06h-2.55q-4.68,12.18-20.11,12.18a26.15,26.15,0,0,1-12.6-3,21.73,21.73,0,0,1-9-9.34q-3.33-6.3-3.33-15.93V806h17.84v40.22q0,7.37,3.61,11.61t10.55,4.24q8.07,0,11.82-5.16t3.76-14.09V806h17.84v87.51a10.88,10.88,0,0,1-3.05,7.93,10.54,10.54,0,0,1-7.86,3.12Z"/><path class="cls-1" d="M2357.88,878.24a37.74,37.74,0,0,1-18.55-4.46,31.38,31.38,0,0,1-12.6-12.82q-4.53-8.36-4.53-20.1V840a36.06,36.06,0,0,1,4.81-18.83,34.53,34.53,0,0,1,12.82-12.61A35.4,35.4,0,0,1,2357.6,804a35.88,35.88,0,0,1,15.57,3.11,31.58,31.58,0,0,1,10.69,8.07,35.3,35.3,0,0,1,8.29,22.24V847H2340.6a13.53,13.53,0,0,0,5.24,10.26,18.06,18.06,0,0,0,11.76,4q6.65,0,10.26-2.41a13.49,13.49,0,0,0,5-5.53l15.29,8.5a26.57,26.57,0,0,1-5.17,7.37,28.86,28.86,0,0,1-9.7,6.44Q2367.22,878.23,2357.88,878.24Zm-24.78-82.7L2345,776.29h24.36l11.89,19.25h-17.13L2358,783.09h-1.7l-6.09,12.45Zm7.79,36.11H2374a12.57,12.57,0,0,0-5.31-8.21,18.58,18.58,0,0,0-11.26-3.26,17,17,0,0,0-11,3.47A15.73,15.73,0,0,0,2340.89,831.65Zm34.83-48.56,7.36-19.26h19l-11.9,19.26Z"/><path class="cls-1" d="M2411.54,876.26V806h17.85V816.5h2.54a18.61,18.61,0,0,1,7.79-9.2,23.88,23.88,0,0,1,12.6-3.26,26.41,26.41,0,0,1,12.39,2.91,21.2,21.2,0,0,1,8.93,9q3.32,6.16,3.32,15.79v44.47h-17.84V836.32q0-7.5-3.61-11.82t-10.41-4.32c-5.19,0-9.11,1.78-11.75,5.31s-4,8.29-4,14.23v36.54Z"/><path class="cls-1" d="M2590.52,876.26V777.13h17.84v54.66h3.4L2630.45,806H2650v.85L2627.34,839v2.56l24.92,33.84v.85h-20.39l-20.11-27.47h-3.4v27.47Z"/><path class="cls-1" d="M2671.8,876.26V777.13h17.84v40.22h2.55a21.52,21.52,0,0,1,7.93-9.84A22.86,22.86,0,0,1,2713,804q10.47,0,17.34,6.8t6.87,21.24v44.18h-17.84V836.32q0-7.5-3.61-11.82t-10.41-4.32c-5.19,0-9.11,1.78-11.75,5.31s-4,8.29-4,14.23v36.54Z"/><path class="cls-1" d="M2759.45,876.26v-17h23.79V823h-22.09V806h39.93v53.25h20.39v17Zm22.09-80.72,7.36-19.25h19L2796,795.54Z"/><path class="cls-1" d="M2878,878.24a41.16,41.16,0,0,1-18.7-4.18A31.85,31.85,0,0,1,2846,861.88q-4.89-8-4.89-19.33v-1.69q0-11.33,5-19.61a33.76,33.76,0,0,1,13.31-12.75A38.76,38.76,0,0,1,2878,804q14.72,0,23.93,7.65a33,33,0,0,1,11.47,20.1l-17.56,4.53a18.42,18.42,0,0,0-5.38-10.76c-3-3-7.27-4.53-12.75-4.53a18.26,18.26,0,0,0-13.17,5.38q-5.52,5.39-5.52,14.87v.85q0,9.5,5.52,14.3a19.39,19.39,0,0,0,13.17,4.82q8.22,0,12.53-4.11a19.66,19.66,0,0,0,5.6-11l17.56,4.39a33.21,33.21,0,0,1-11.33,20.1Q2893,878.24,2878,878.24Z"/><path class="cls-1" d="M2931.77,876.26V777.13h17.84v40.22h2.55a21.58,21.58,0,0,1,7.93-9.84A22.86,22.86,0,0,1,2973,804q10.47,0,17.34,6.8t6.87,21.24v44.18h-17.84V836.32q0-7.5-3.61-11.82t-10.41-4.32c-5.19,0-9.11,1.78-11.75,5.31s-4,8.29-4,14.23v36.54Z"/><path class="cls-1" d="M3104.8,876.26V806h17.85V816.5h2.54a18.61,18.61,0,0,1,7.79-9.2,23.88,23.88,0,0,1,12.6-3.26A26.41,26.41,0,0,1,3158,807a21.2,21.2,0,0,1,8.93,9q3.32,6.16,3.32,15.79v44.47h-17.84V836.32q0-7.5-3.61-11.82t-10.41-4.32c-5.19,0-9.11,1.78-11.75,5.31s-4,8.29-4,14.23v36.54Z"/><path class="cls-1" d="M3201.23,904.58v-17h36.53c2.55,0,3.83-1.41,3.83-4.25V866.06H3239a22.31,22.31,0,0,1-7,8.42q-4.89,3.76-14.94,3.76a28.87,28.87,0,0,1-26.62-16.36q-4.11-8-4.11-19.46v-2.56q0-11.33,4.32-19.32a31,31,0,0,1,11.47-12.25A30.1,30.1,0,0,1,3217.8,804q8.49,0,13.52,3.19a20.64,20.64,0,0,1,7.72,9h2.55V806h17.84v87.51a10.88,10.88,0,0,1-3,7.93,10.53,10.53,0,0,1-7.85,3.12Zm21.67-43.33q8.35,0,13.52-5.31t5.17-14v-1.7q0-8.64-5.17-13.95T3222.9,821a18.24,18.24,0,0,0-13.46,5.24q-5.24,5.24-5.23,14V842q0,8.79,5.23,14A18.21,18.21,0,0,0,3222.9,861.25Z"/><path class="cls-1" d="M3288.17,878.24q-8.49,0-13.52-5.38t-5-16.15V806h17.84v45.6a11.94,11.94,0,0,0,2.27,7.65,8,8,0,0,0,6.65,2.82c3.69,0,6.24-1,7.65-3.11a14.29,14.29,0,0,0,2.13-8.21V806H3324v30.3h14c2.54,0,3.82-1.41,3.82-4.24v-1.42h-1.28a12.21,12.21,0,1,1,12.32-12.32v16.29a12.57,12.57,0,0,1-12.74,12.74H3324v28.89h-17.84v-6.8h-2.55a12.15,12.15,0,0,1-5,6.3Q3295,878.23,3288.17,878.24Z"/><path class="cls-1" d="M3385,878.24q-13.61,0-21-9.56T3356.56,842v-1.7q0-17,7.51-26.62t21-9.63q12.6,0,20,8.57t8.28,23.71h10.34q3.83,0,3.82-4.24v-1.42h-1.27a12.21,12.21,0,1,1,12.32-12.32v16.29a12.57,12.57,0,0,1-12.74,12.74h-12.47q-1.12,14.73-8.49,22.8T3385,878.24Zm-6.94-82.7-11.9-19.25h19l7.36,19.25Zm6.94,65.71a9,9,0,0,0,7.71-4.11q2.91-4.11,2.9-13.45v-5.1q0-9.35-2.9-13.45a9.3,9.3,0,0,0-15.43,0q-2.91,4.11-2.91,13.45v5.1q0,9.34,2.91,13.45A9,9,0,0,0,3385,861.25Z"/><path class="cls-1" d="M3452.71,876.26v-17h23.79V823h-22.09V806h39.93v53.25h20.39v17Zm32.57-77.6a13.09,13.09,0,0,1-9.49-3.89,13.5,13.5,0,0,1,0-19.12,13.48,13.48,0,0,1,19,0,13.5,13.5,0,0,1,0,19.12A13.06,13.06,0,0,1,3485.28,798.66Z"/><path class="cls-1" d="M3650.66,878.24A28.87,28.87,0,0,1,3624,861.88q-4.11-8-4.11-19.46v-2.56q0-11.33,4.32-19.32a31,31,0,0,1,11.47-12.25,30.13,30.13,0,0,1,15.65-4.25q8.49,0,13.52,3.19a20.57,20.57,0,0,1,7.72,9h2.55V777.13H3693v99.13h-17.84v-10.2h-2.55a22.31,22.31,0,0,1-7,8.42Q3660.71,878.25,3650.66,878.24Zm5.81-17q8.36,0,13.52-5.31t5.17-14v-1.7q0-8.64-5.17-13.95T3656.47,821a18.21,18.21,0,0,0-13.45,5.24q-5.25,5.24-5.24,14V842q0,8.79,5.24,14A18.17,18.17,0,0,0,3656.47,861.25Z"/><path class="cls-1" d="M3721.46,878.24q-8.49,0-13.52-5.38t-5-16.15V806h17.84v45.6a11.94,11.94,0,0,0,2.27,7.65,8,8,0,0,0,6.65,2.82c3.68,0,6.23-1,7.65-3.11a14.36,14.36,0,0,0,2.12-8.21V806h17.84v30.3h14q3.82,0,3.83-4.24v-1.42h-1.28a12.21,12.21,0,1,1,12.32-12.32v16.29a12.57,12.57,0,0,1-12.74,12.74h-16.15v28.89h-17.84v-6.8h-2.55a12.13,12.13,0,0,1-4.95,6.3Q3728.25,878.23,3721.46,878.24Z"/><path class="cls-1" d="M3818.31,878.24q-13.59,0-21-9.56T3789.85,842v-1.7q0-17,7.51-26.62t20.95-9.63q12.6,0,20,8.57t8.28,23.71H3857q3.83,0,3.82-4.24v-1.42h-1.27a12.21,12.21,0,1,1,12.32-12.32v16.29a12.57,12.57,0,0,1-12.75,12.74h-12.46q-1.12,14.73-8.49,22.8T3818.31,878.24Zm0-17a9,9,0,0,0,7.72-4.11q2.89-4.11,2.9-13.45v-5.1q0-9.35-2.9-13.45a9.3,9.3,0,0,0-15.43,0q-2.91,4.11-2.91,13.45v5.1q0,9.34,2.91,13.45A9,9,0,0,0,3818.31,861.25Zm-7.08-65.71,7.37-19.25h19l-11.89,19.25Z"/><path class="cls-1" d="M3886,876.26v-17h23.79V823H3887.7V806h39.93v53.25H3948v17Zm32.56-77.6a13.06,13.06,0,0,1-9.48-3.89,13.5,13.5,0,0,1,0-19.12,13.48,13.48,0,0,1,19,0,13.5,13.5,0,0,1,0,19.12A13.09,13.09,0,0,1,3918.56,798.66Z"/><path class="cls-1" d="M4058.32,876.26V777.13h17.84v40.22h2.55a21.52,21.52,0,0,1,7.93-9.84,22.86,22.86,0,0,1,12.89-3.47q10.47,0,17.34,6.8t6.87,21.24v44.18H4105.9V836.32q0-7.5-3.61-11.82t-10.41-4.32c-5.19,0-9.11,1.78-11.75,5.31s-4,8.29-4,14.23v36.54Z"/><path class="cls-1" d="M4177,878.24a39.1,39.1,0,0,1-18-4.25,33.79,33.79,0,0,1-13.46-12.32q-5.09-8.07-5.09-19.68v-1.7q0-11.47,5.09-19.61A33.61,33.61,0,0,1,4159,808.29a40.16,40.16,0,0,1,36,0,33.59,33.59,0,0,1,13.45,12.39q5.1,8.15,5.1,19.61V842q0,11.61-5.1,19.68A33.77,33.77,0,0,1,4195,874,39.13,39.13,0,0,1,4177,878.24Zm0-17a18.85,18.85,0,0,0,13.24-5q5.45-5,5.45-13.67v-2.83q0-8.78-5.45-13.73a20.15,20.15,0,0,0-26.48,0q-5.46,4.95-5.45,13.73v2.83q0,8.66,5.45,13.67A18.83,18.83,0,0,0,4177,861.25Z"/><path class="cls-1" d="M4257,878.24a29.46,29.46,0,0,1-15.43-4.25,30.52,30.52,0,0,1-11.33-12.32q-4.24-8.07-4.25-19.4V840q0-11.19,4.11-19.26a30.55,30.55,0,0,1,11-12.39,27.78,27.78,0,0,1,15.08-4.32q7.5,0,12.11,2.55a17.86,17.86,0,0,1,7.29,7.93h2.55V806h17.84v49c0,2.83,1.28,4.25,3.82,4.25h2.69v17h-12.17a10.91,10.91,0,0,1-7.86-2.91,9.64,9.64,0,0,1-3-7.29h-2.54a18.05,18.05,0,0,1-7.86,9.35A24.62,24.62,0,0,1,4257,878.24Zm3.82-82.55q-8.21,0-13.45-4.61t-5.24-12.67v-2h12.75v.85a6.22,6.22,0,0,0,1.48,4.25,6.74,6.74,0,0,0,8.93,0,6.22,6.22,0,0,0,1.48-4.25v-.85h12.75v2q0,8.07-5.17,12.67T4260.8,795.69Zm.15,65.56q7.79,0,12.46-5.17c3.11-3.44,4.67-8.15,4.67-14.09v-1.7q0-8.92-4.67-14.09T4261,821q-7.8,0-12.47,5.17t-4.67,14.09V842c0,5.94,1.56,10.65,4.67,14.09S4255.75,861.25,4261,861.25Zm-.71,51a13.09,13.09,0,0,1-9.49-3.89,13.52,13.52,0,0,1,0-19.12,13.51,13.51,0,0,1,19,0,13.5,13.5,0,0,1,0,19.12A13.06,13.06,0,0,1,4260.24,912.22Z"/><path class="cls-1" d="M4351.14,878.24a41.14,41.14,0,0,1-18.69-4.18,31.94,31.94,0,0,1-13.24-12.18q-4.87-8-4.88-19.33v-1.69q0-11.33,4.95-19.61a33.83,33.83,0,0,1,13.31-12.75,38.82,38.82,0,0,1,18.55-4.46q14.73,0,23.93,7.65a32.85,32.85,0,0,1,11.47,20.1L4369,836.32a18.37,18.37,0,0,0-5.38-10.76q-4.53-4.53-12.74-4.53a18.24,18.24,0,0,0-13.17,5.38q-5.52,5.39-5.52,14.87v.85q0,9.5,5.52,14.3a19.37,19.37,0,0,0,13.17,4.82q8.21,0,12.53-4.11a19.65,19.65,0,0,0,5.59-11l17.56,4.39a33.15,33.15,0,0,1-11.32,20.1Q4366.15,878.24,4351.14,878.24Z"/><path class="cls-1" d="M1488.05,1046.17a10.5,10.5,0,0,1-7.86-3.12,10.84,10.84,0,0,1-3-7.92v-42.2h-20.81v-17h20.81V947.05H1495v28.89h25.34v17H1495v32q0,4.24,3.82,4.25h19v17Z"/><path class="cls-1" d="M1539.87,1046.17v-17h14.44V992.93h-12.74v-17h29.74v10.19h2.55a17,17,0,0,1,6.79-9A20.09,20.09,0,0,1,1592,974q10.47,0,16.85,6.58t6.37,20v3.11l-18.41,1.7v-2q0-5.8-3-9.28t-8.92-3.47a11.48,11.48,0,0,0-9.35,4.11q-3.39,4.11-3.39,11.75v22.66h16.14v17Z"/><path class="cls-1" d="M1664.62,1048.15a37.63,37.63,0,0,1-18.55-4.46,31.35,31.35,0,0,1-12.6-12.81q-4.53-8.36-4.53-20.11v-.85a36.06,36.06,0,0,1,4.81-18.83,34.5,34.5,0,0,1,12.82-12.6,35.4,35.4,0,0,1,17.77-4.53,35.77,35.77,0,0,1,15.57,3.11,31.58,31.58,0,0,1,10.69,8.07,35.25,35.25,0,0,1,8.29,22.23v9.49h-51.55a13.53,13.53,0,0,0,5.24,10.27,18,18,0,0,0,11.76,4q6.65,0,10.26-2.41a13.47,13.47,0,0,0,5-5.52l15.29,8.5a26.68,26.68,0,0,1-5.17,7.36,28.73,28.73,0,0,1-9.7,6.45Q1674,1048.15,1664.62,1048.15Zm-24.78-82.69,11.89-19.26h24.36L1688,965.46h-17.13L1664.76,953h-1.7L1657,965.46Zm7.79,36.11h33.13a12.59,12.59,0,0,0-5.31-8.22,18.65,18.65,0,0,0-11.26-3.25,16.93,16.93,0,0,0-11,3.47A15.69,15.69,0,0,0,1647.63,1001.57Z"/><path class="cls-1" d="M1718.28,1046.17V975.94h17.85v10.47h2.54a18.7,18.7,0,0,1,7.79-9.2,23.88,23.88,0,0,1,12.6-3.25,26.41,26.41,0,0,1,12.39,2.9,21.23,21.23,0,0,1,8.93,9.06q3.31,6.17,3.32,15.79v44.46h-17.84v-39.93c0-5-1.2-9-3.61-11.82s-5.88-4.32-10.41-4.32q-7.78,0-11.75,5.31t-4,14.23v36.53Z"/><path class="cls-1" d="M1889.9,1046.17v-17.84h28V956.4h-2.55l-9.35,34H1888.2v-1.7l11.89-41.63h36.54v81.28h24.64v17.84Z"/><path class="cls-1" d="M2010.54,1048.15a49.67,49.67,0,0,1-19.12-3.61,29.06,29.06,0,0,1-12.53-9.7,24.19,24.19,0,0,1-4.46-14.44v-.85a24.73,24.73,0,0,1,2.55-11.82,21.56,21.56,0,0,1,6.59-7.58A28.33,28.33,0,0,1,1992,996V993.5a25.38,25.38,0,0,1-10.55-7.51q-4.45-5.24-4.46-14.3v-.85a21,21,0,0,1,4.82-14,30.74,30.74,0,0,1,12.46-8.78,45.11,45.11,0,0,1,32.56,0,30.84,30.84,0,0,1,12.47,8.78,21,21,0,0,1,4.81,14v.85q0,9.06-4.46,14.3a25.31,25.31,0,0,1-10.55,7.51V996a27.28,27.28,0,0,1,8.5,4.11,21.88,21.88,0,0,1,6.51,7.58,24.73,24.73,0,0,1,2.55,11.82v.85a24.48,24.48,0,0,1-4.39,14.44,29,29,0,0,1-12.53,9.77A47.87,47.87,0,0,1,2010.54,1048.15Zm0-17.84q8.36,0,12.89-3.82a12.27,12.27,0,0,0,0-19q-4.54-3.76-12.89-3.76t-12.81,3.76a12.13,12.13,0,0,0,0,19Q2002.32,1030.32,2010.54,1030.31Zm0-44.46a16.88,16.88,0,0,0,10.62-3.26,10.05,10.05,0,0,0,0-16.42,18.93,18.93,0,0,0-21.24,0,10.05,10.05,0,0,0,0,16.42A16.88,16.88,0,0,0,2010.54,985.85Z"/><path class="cls-1" d="M2089.13,1026.21v-21.53H2067.6V988.54h21.53V967h16.14v21.52h21.52v16.14h-21.52v21.53Z"/><path class="cls-1" d="M2271.36,1048.15a41.27,41.27,0,0,1-18.69-4.17,32.07,32.07,0,0,1-13.24-12.18q-4.87-8-4.88-19.33v-1.7q0-11.32,4.95-19.61a34,34,0,0,1,13.31-12.75,38.81,38.81,0,0,1,18.55-4.45q14.73,0,23.93,7.64a32.88,32.88,0,0,1,11.47,20.11l-17.56,4.53a18.31,18.31,0,0,0-5.38-10.76q-4.53-4.53-12.74-4.53a18.2,18.2,0,0,0-13.17,5.38q-5.52,5.38-5.52,14.87v.85q0,9.48,5.52,14.3a19.36,19.36,0,0,0,13.17,4.81q8.21,0,12.53-4.1a19.64,19.64,0,0,0,5.59-11l17.56,4.39a33.14,33.14,0,0,1-11.33,20.11Q2286.37,1048.15,2271.36,1048.15Z"/><path class="cls-1" d="M2325.17,1046.17V947.05H2343v40.21h2.55a21.44,21.44,0,0,1,7.93-9.83,22.78,22.78,0,0,1,12.89-3.47q10.47,0,17.34,6.79t6.87,21.24v44.18h-17.84v-39.93c0-5-1.21-9-3.61-11.82s-5.88-4.32-10.41-4.32q-7.79,0-11.75,5.31t-4,14.23v36.53Z"/><path class="cls-1" d="M2431.79,1048.15q-13.59,0-21-9.55t-7.43-26.7v-1.69q0-17,7.51-26.62t20.95-9.63q12.6,0,20,8.56t8.28,23.72h10.34q3.83,0,3.82-4.25v-1.41H2473a12.21,12.21,0,1,1,12.32-12.32v16.28a12.57,12.57,0,0,1-12.75,12.74h-12.46q-1.12,14.73-8.49,22.8T2431.79,1048.15Zm0-17a9,9,0,0,0,7.72-4.1q2.89-4.11,2.9-13.45v-5.1q0-9.36-2.9-13.46a9.31,9.31,0,0,0-15.43,0q-2.91,4.11-2.91,13.46v5.1q0,9.33,2.91,13.45A9,9,0,0,0,2431.79,1031.16Z"/><path class="cls-1" d="M2499.48,1046.17v-17h23.79V992.93h-22.1v-17h39.94v53.24h20.39v17ZM2532,968.58a13,13,0,0,1-9.48-3.9,13.48,13.48,0,0,1,0-19.11,13.48,13.48,0,0,1,19,0,13.48,13.48,0,0,1,0,19.11A13.06,13.06,0,0,1,2532,968.58Z"/><path class="cls-1" d="M2686.67,1046.17l-20.11-70.23h19.26l16.56,61.73h2.55l16.57-61.73h19.26l-20.11,70.23Z"/><path class="cls-1" d="M2759.45,1046.17v-17h23.79V992.93h-22.09v-17h39.93v53.24h20.39v17Zm22.23-80.71-11.89-19.26h19l7.36,19.26Z"/><path class="cls-1" d="M2957.4,1048.15a28.84,28.84,0,0,1-26.62-16.35q-4.11-8-4.11-19.47v-2.55q0-11.32,4.32-19.33a30.86,30.86,0,0,1,11.47-12.24,30,30,0,0,1,15.65-4.25q8.49,0,13.52,3.18a20.63,20.63,0,0,1,7.72,9h2.55V947.05h17.84v99.12H2981.9V1036h-2.55a22.46,22.46,0,0,1-7,8.42Q2967.45,1048.15,2957.4,1048.15Zm5.81-17q8.36,0,13.52-5.31t5.17-13.95v-1.69q0-8.64-5.17-14T2963.21,991a18.21,18.21,0,0,0-13.46,5.24q-5.23,5.23-5.23,14v1.69q0,8.79,5.23,14A18.24,18.24,0,0,0,2963.21,1031.16Z"/><path class="cls-1" d="M3051.14,1048.15a37.63,37.63,0,0,1-18.55-4.46,31.35,31.35,0,0,1-12.6-12.81q-4.53-8.36-4.53-20.11v-.85a36.06,36.06,0,0,1,4.81-18.83,34.5,34.5,0,0,1,12.82-12.6,38.62,38.62,0,0,1,33.34-1.42,31.58,31.58,0,0,1,10.69,8.07,35.25,35.25,0,0,1,8.29,22.23v9.49h-51.55a13.53,13.53,0,0,0,5.24,10.27,18,18,0,0,0,11.76,4q6.64,0,10.26-2.41a13.47,13.47,0,0,0,5-5.52l15.29,8.5a26.68,26.68,0,0,1-5.17,7.36,28.73,28.73,0,0,1-9.7,6.45Q3060.48,1048.15,3051.14,1048.15ZM3033,941.39,3022.68,933l7.64-9.63a15.48,15.48,0,0,1,5.53-4.67,15.32,15.32,0,0,1,6.37-1.27,12.07,12.07,0,0,1,9.34,4.25,20.68,20.68,0,0,0,3.61,3.4,5.45,5.45,0,0,0,3,1,5,5,0,0,0,3.18-1.06,14.55,14.55,0,0,0,2.48-2.48l4.11-5.09,10.48,8.07-7.93,9.91a16.81,16.81,0,0,1-5.38,4.53,14.45,14.45,0,0,1-6.52,1.42,12,12,0,0,1-5.31-1.2,16.24,16.24,0,0,1-4.88-3.9,14.84,14.84,0,0,0-2.41-2.41,5.09,5.09,0,0,0-3.26-1.13,5.53,5.53,0,0,0-3.25,1,10.64,10.64,0,0,0-2.55,2.55Zm-6.65,24.07,11.89-19.26h24.36l11.89,19.26h-17.13L3051.28,953h-1.7l-6.09,12.46Zm7.79,36.11h33.13a12.59,12.59,0,0,0-5.31-8.22,18.65,18.65,0,0,0-11.26-3.25,16.93,16.93,0,0,0-11,3.47A15.69,15.69,0,0,0,3034.15,1001.57Z"/><path class="cls-1" d="M3201.23,1074.49v-17h36.53q3.82,0,3.83-4.25V1036H3239a22.46,22.46,0,0,1-7,8.42q-4.89,3.75-14.94,3.75a28.84,28.84,0,0,1-26.62-16.35q-4.11-8-4.11-19.47v-2.55q0-11.32,4.32-19.33a30.86,30.86,0,0,1,11.47-12.24A30,30,0,0,1,3217.8,974q8.49,0,13.52,3.18a20.69,20.69,0,0,1,7.72,9h2.55V975.94h17.84v87.5a10.92,10.92,0,0,1-3,7.94,10.52,10.52,0,0,1-7.85,3.11Zm21.67-43.33q8.35,0,13.52-5.31t5.17-13.95v-1.69q0-8.64-5.17-14T3222.9,991a18.21,18.21,0,0,0-13.46,5.24q-5.24,5.23-5.23,14v1.69q0,8.79,5.23,14A18.24,18.24,0,0,0,3222.9,1031.16Z"/><path class="cls-1" d="M3303.75,1048.15a29.48,29.48,0,0,1-15.44-4.24,30.56,30.56,0,0,1-11.32-12.32q-4.26-8.07-4.25-19.4v-2.27q0-11.17,4.11-19.26a30.46,30.46,0,0,1,11-12.38A27.76,27.76,0,0,1,3302.9,974q7.5,0,12.11,2.54a18,18,0,0,1,7.29,7.93h2.55v-8.49h17.84v49q0,4.24,3.82,4.25h2.69v17H3337a10.9,10.9,0,0,1-7.85-2.9,9.62,9.62,0,0,1-3.05-7.29h-2.55a17.9,17.9,0,0,1-7.86,9.34A24.45,24.45,0,0,1,3303.75,1048.15Zm-20.25-82.69,11.89-19.26h24.36l11.89,19.26h-17.13L3308.42,953h-1.7l-6.09,12.46Zm24.21,65.7q7.78,0,12.46-5.17t4.68-14.09v-1.69q0-8.93-4.68-14.1T3307.71,991q-7.78,0-12.46,5.16t-4.67,14.1v1.69q0,8.93,4.67,14.09T3307.71,1031.16Z"/><path class="cls-1" d="M3377.52,1074.49v-17h31q3.82,0,3.82-4.25V1036h-2.55q-4.66,12.18-20.1,12.17a26.21,26.21,0,0,1-12.61-3,21.81,21.81,0,0,1-9-9.35q-3.33-6.3-3.32-15.93V975.94h17.84v40.21q0,7.36,3.61,11.61t10.55,4.25q8.07,0,11.82-5.17t3.75-14.09V975.94h17.84v87.5a10.92,10.92,0,0,1-3,7.94,10.53,10.53,0,0,1-7.86,3.11Z"/><path class="cls-1" d="M3538.09,1046.17V975.94h17.84v10.47h2.55a18.7,18.7,0,0,1,7.79-9.2,23.88,23.88,0,0,1,12.6-3.25,26.44,26.44,0,0,1,12.39,2.9,21.21,21.21,0,0,1,8.92,9.06q3.33,6.17,3.33,15.79v44.46h-17.84v-39.93c0-5-1.21-9-3.61-11.82s-5.88-4.32-10.41-4.32q-7.79,0-11.75,5.31t-4,14.23v36.53Z"/><path class="cls-1" d="M3634.52,1074.49v-17h36.53q3.82,0,3.82-4.25V1036h-2.54a22.56,22.56,0,0,1-7,8.42q-4.89,3.75-14.94,3.75a28.81,28.81,0,0,1-26.62-16.35q-4.11-8-4.11-19.47v-2.55q0-11.32,4.32-19.33a30.86,30.86,0,0,1,11.47-12.24,30,30,0,0,1,15.65-4.25q8.49,0,13.52,3.18a20.69,20.69,0,0,1,7.72,9h2.54V975.94h17.85v87.5a10.92,10.92,0,0,1-3,7.94,10.53,10.53,0,0,1-7.86,3.11Zm21.66-43.33q8.36,0,13.53-5.31t5.16-13.95v-1.69q0-8.64-5.16-14T3656.18,991a18.18,18.18,0,0,0-13.45,5.24q-5.24,5.23-5.24,14v1.69q0,8.79,5.24,14A18.22,18.22,0,0,0,3656.18,1031.16Z"/><path class="cls-1" d="M3711.69,1046.17V947.05h17.84v40.21h2.55a21.44,21.44,0,0,1,7.93-9.83A22.78,22.78,0,0,1,3752.9,974q10.47,0,17.34,6.79t6.87,21.24v44.18h-17.84v-39.93c0-5-1.21-9-3.61-11.82s-5.88-4.32-10.41-4.32q-7.78,0-11.75,5.31t-4,14.23v36.53Z"/><path class="cls-1" d="M3799.34,1046.17v-17h23.79V992.93H3801v-17H3841v53.24h20.39v17Zm32.57-77.59a13.06,13.06,0,0,1-9.49-3.9,13.48,13.48,0,0,1,0-19.11,13.48,13.48,0,0,1,19,0,13.48,13.48,0,0,1,0,19.11A13,13,0,0,1,3831.91,968.58Z"/><path class="cls-1" d="M3917.71,1048.15a37.66,37.66,0,0,1-18.55-4.46,31.35,31.35,0,0,1-12.6-12.81q-4.53-8.36-4.53-20.11v-.85a36.06,36.06,0,0,1,4.81-18.83,34.58,34.58,0,0,1,12.82-12.6,35.43,35.43,0,0,1,17.77-4.53,35.82,35.82,0,0,1,15.58,3.11,31.68,31.68,0,0,1,10.69,8.07,35.16,35.16,0,0,1,8.28,22.23v9.49h-51.54a13.5,13.5,0,0,0,5.24,10.27,18,18,0,0,0,11.75,4q6.66,0,10.27-2.41a13.44,13.44,0,0,0,5-5.52l15.3,8.5a26.68,26.68,0,0,1-5.17,7.36,28.83,28.83,0,0,1-9.7,6.45Q3927.06,1048.15,3917.71,1048.15Zm-24.78-82.69,11.9-19.26h24.35l11.9,19.26h-17.14L3917.86,953h-1.7l-6.09,12.46Zm7.79,36.11h33.14a12.63,12.63,0,0,0-5.31-8.22,18.69,18.69,0,0,0-11.26-3.25,16.89,16.89,0,0,0-11,3.47A15.71,15.71,0,0,0,3900.72,1001.57Zm16.29,80.57a13.11,13.11,0,0,1-9.49-3.89,13.51,13.51,0,0,1,0-19.13,13.51,13.51,0,0,1,19,0,13.51,13.51,0,0,1,0,19.13A13.1,13.1,0,0,1,3917,1082.14Z"/><path class="cls-1" d="M3971.38,1046.17V975.94h17.84v10.47h2.55a18.65,18.65,0,0,1,7.79-9.2,23.83,23.83,0,0,1,12.6-3.25,26.44,26.44,0,0,1,12.39,2.9,21.21,21.21,0,0,1,8.92,9.06q3.33,6.17,3.33,15.79v44.46H4019v-39.93c0-5-1.21-9-3.61-11.82s-5.88-4.32-10.41-4.32q-7.79,0-11.75,5.31t-4,14.23v36.53Z"/><path class="cls-1" d="M4090.32,1048.15a13.06,13.06,0,0,1-9.49-3.89,13.51,13.51,0,0,1,0-19.11,13.5,13.5,0,0,1,19,0,13.51,13.51,0,0,1,0,19.11A13.06,13.06,0,0,1,4090.32,1048.15Z"/><path class="cls-1" d="M627.08,819.44a47.56,47.56,0,1,0,33.65,81.24h0a47.56,47.56,0,0,0-33.67-81.23Z"/><path class="cls-1" d="M593.65,447.35a45.86,45.86,0,0,0-14.13,33.71v269.1a47.56,47.56,0,1,0,95.11,0V481.06a46.27,46.27,0,0,0-13.86-33.42,45.74,45.74,0,0,0-33.69-14.13A46.36,46.36,0,0,0,593.65,447.35Z"/><path class="cls-1" d="M1063.77,911.41,692.06,267.73c-9.73-16.53-23.18-27.68-40-33.16a78.73,78.73,0,0,0-50,0c-16.79,5.47-30.25,16.63-40,33.21l-370.33,642a6.31,6.31,0,0,0-1.41,1.74c-9.14,16.5-12,33.67-8.41,51a78.75,78.75,0,0,0,25,43.58c13.25,11.89,29.7,17.93,48.88,17.93h743c19.18,0,35.62-6,48.88-17.93a78.74,78.74,0,0,0,25-43.58C1076.2,945.17,1073.23,928,1063.77,911.41ZM630,303.78a6,6,0,0,0,1.34,1.64L1001.65,947a3.17,3.17,0,0,1,0,3.72c-1.07,1.71-2,1.86-2.89,1.86h-743a3.31,3.31,0,0,1-3.23-1.94c-.76-1.28-.75-1.94.26-3.48L624.1,303.93a.51.51,0,0,0,.09-.16c.88-1.62,1.66-1.91,2.89-1.91S629.09,302.15,630,303.78Z"/></svg>